<?xml version="1.0" standalone="no"?>
<!DOCTYPE svg PUBLIC "-//W3C//DTD SVG 1.1//EN" "http://www.w3.org/Graphics/SVG/1.1/DTD/svg11.dtd" >
<svg>
<metadata>
Created by FontForge 20090622 at Sat Jul 14 10:48:06 2018
 By ffonts
Copyright (c) 2017 Marc Rouault / W+K. All rights reserved.
</metadata>
<defs>
<font id="Formula1-Display-Bold" horiz-adv-x="854" >
  <font-face 
    font-family="Formula1 Display Bold"
    font-weight="500"
    font-stretch="normal"
    units-per-em="1000"
    panose-1="2 0 0 0 0 0 0 0 0 0"
    ascent="850"
    descent="-150"
    x-height="600"
    cap-height="750"
    bbox="-180 -190 1493 1016"
    underline-thickness="0"
    underline-position="0"
    unicode-range="U+0020-U+F6C3"
  />
<missing-glyph horiz-adv-x="0" 
 />
    <glyph glyph-name=".notdef" horiz-adv-x="0" 
 />
    <glyph glyph-name="space" unicode=" " horiz-adv-x="240" 
 />
    <glyph glyph-name="thinspace" unicode="&#x2009;" horiz-adv-x="120" 
 />
    <glyph glyph-name="a" unicode="a" horiz-adv-x="685" 
d="M627 325v-325h-411q-90 0 -138 39t-48 102q0 69 47 110.5t113 86.5l170 117h-316v145h263q172 0 246 -72.5t74 -202.5zM270 145h177v199l-181 -141q-17 -13 -24 -19.5t-7 -16.5q0 -11 8 -16.5t27 -5.5z" />
    <glyph glyph-name="b" unicode="b" horiz-adv-x="758" 
d="M58 0v750h190v-140h236q111 0 174 -74t63 -196v-70q0 -122 -63 -196t-174 -74h-426zM419 462h-171v-314h171q61 0 84 28t23 87v89q0 59 -23 84.5t-84 25.5z" />
    <glyph glyph-name="c" unicode="c" horiz-adv-x="621" 
d="M346 455q-59 0 -86.5 -26.5t-27.5 -80.5v-103q0 -60 27.5 -80t86.5 -20h225v-145h-231q-161 0 -232 70t-71 193v73q0 123 71 193.5t232 70.5h231v-145h-225z" />
    <glyph glyph-name="d" unicode="d" horiz-adv-x="758" 
d="M700 750v-750h-426q-111 0 -174 74t-63 196v60q0 122 63 196t174 74h236v150h190zM339 148h171v304h-171q-61 0 -84 -28t-23 -87v-79q0 -59 23 -84.5t84 -25.5z" />
    <glyph glyph-name="e" unicode="e" horiz-adv-x="699" 
d="M659 244h-429v-4q0 -57 25 -76t86 -19h304v-145h-293q-88 0 -148.5 19.5t-97 55t-53 85.5t-16.5 110v76q0 119 69 190.5t226 71.5h40q84 0 140 -20t88.5 -56.5t45.5 -87.5t13 -113v-87zM394 474h-78q-48 0 -67 -21t-19 -70v-13h249v13q0 49 -19.5 70t-65.5 21z" />
    <glyph glyph-name="f" unicode="f" horiz-adv-x="492" 
d="M122 0v455h-92v145h93q7 94 56 142t165 48h138v-124h-146q-22 0 -33 -11t-11 -36v-19h190v-145h-170v-455h-190z" />
    <glyph glyph-name="g" unicode="g" horiz-adv-x="738" 
d="M365 -150h-287v142h289q77 0 100 18t23 54v13h-221q-106 0 -169 65t-63 180v23q0 119 63 187t169 68h411v-518q0 -125 -73 -178.5t-242 -53.5zM328 213h162v241h-162q-54 0 -75 -21.5t-21 -73.5v-46q0 -51 21 -75.5t75 -24.5z" />
    <glyph glyph-name="h" unicode="h" horiz-adv-x="737" 
d="M58 0v750h190v-150h182q131 0 190 -66t59 -179v-355h-190v360q0 46 -15.5 65.5t-59.5 19.5h-166v-445h-190z" />
    <glyph glyph-name="i" unicode="i" horiz-adv-x="330" 
d="M260 652h-190v118h190v-118zM70 0v600h190v-600h-190z" />
    <glyph glyph-name="j" unicode="j" horiz-adv-x="315" 
d="M250 652h-190v118h190v-118zM60 600h190v-553q0 -99 -53.5 -148t-146.5 -49h-80v129h46q21 0 32.5 11.5t11.5 40.5v569z" />
    <glyph glyph-name="k" unicode="k" horiz-adv-x="713" 
d="M58 0v750h190v-365h21q28 0 42.5 5t27.5 21l148 189h218l-248 -295l256 -305h-226l-156 197q-16 20 -28.5 24t-37.5 4h-17v-225h-190z" />
    <glyph glyph-name="l" unicode="l" horiz-adv-x="330" 
d="M70 750h190v-750h-190v750z" />
    <glyph glyph-name="m" unicode="m" horiz-adv-x="1088" 
d="M58 0v600h712q137 0 198 -66t61 -179v-355h-190v360q0 46 -15.5 65.5t-59.5 19.5h-126v-445h-190v445h-200v-445h-190z" />
    <glyph glyph-name="n" unicode="n" horiz-adv-x="737" 
d="M58 0v600h372q131 0 190 -66t59 -179v-355h-190v360q0 46 -15.5 65.5t-59.5 19.5h-166v-445h-190z" />
    <glyph glyph-name="o" unicode="o" horiz-adv-x="727" 
d="M690 336v-72q0 -125 -75.5 -199.5t-215.5 -74.5h-70q-140 0 -216 74.5t-76 199.5v72q0 125 76 199.5t216 74.5h70q140 0 215.5 -74.5t75.5 -199.5zM495 352q0 58 -21.5 86.5t-76.5 28.5h-66q-55 0 -77 -28.5t-22 -86.5v-103q0 -59 22 -87.5t77 -28.5h66q55 0 76.5 28.5
t21.5 87.5v103z" />
    <glyph glyph-name="p" unicode="p" horiz-adv-x="758" 
d="M58 -150v750h426q111 0 174 -74t63 -196v-60q0 -122 -63 -196t-174 -74h-236v-150h-190zM419 452h-171v-304h171q61 0 84 28t23 87v79q0 59 -23 84.5t-84 25.5z" />
    <glyph glyph-name="q" unicode="q" horiz-adv-x="758" 
d="M700 600v-750h-190v150h-236q-111 0 -174 74t-63 196v60q0 122 63 196t174 74h426zM339 148h171v304h-171q-61 0 -84 -28t-23 -87v-79q0 -59 23 -84.5t84 -25.5z" />
    <glyph glyph-name="r" unicode="r" horiz-adv-x="482" 
d="M58 377q0 43 13 83t41 71t72.5 50t106.5 19h176v-145h-133q-51 0 -68.5 -18t-17.5 -62v-375h-190v377z" />
    <glyph glyph-name="s" unicode="s" horiz-adv-x="637" 
d="M388 210l-163 32q-90 18 -137.5 63t-47.5 120q0 35 13.5 67t42 56t73 38t105.5 14h298v-145h-313q-30 0 -40 -9t-10 -20q0 -12 9 -21t31 -13l148 -29q110 -22 157.5 -65.5t47.5 -115.5q0 -81 -61.5 -131.5t-186.5 -50.5h-294v145h326q32 0 41.5 9t9.5 23q0 15 -13.5 22
t-35.5 11z" />
    <glyph glyph-name="t" unicode="t" horiz-adv-x="542" 
d="M20 455v145h97v122h175v-122h205v-145h-205v-243q0 -38 16 -52.5t52 -14.5h137v-145h-159q-124 0 -177.5 52.5t-53.5 159.5v243h-87z" />
    <glyph glyph-name="u" unicode="u" horiz-adv-x="737" 
d="M489 155v445h190v-600h-372q-131 0 -190 66t-59 179v355h190v-360q0 -46 15.5 -65.5t59.5 -19.5h166z" />
    <glyph glyph-name="v" unicode="v" horiz-adv-x="723" 
d="M207 600l134 -421q6 -19 11 -24.5t14 -5.5q7 0 12 6.5t11 25.5l133 419h190l-162 -454q-29 -81 -73 -118.5t-111 -37.5q-72 0 -118 36.5t-73 111.5l-164 462h196z" />
    <glyph glyph-name="w" unicode="w" horiz-adv-x="1070" 
d="M536 613q48 0 82 -14t57 -36.5t35.5 -52.5t17.5 -62l44 -287q1 -10 6 -17t14 -7t13 7t5 17l66 439h179l-75 -459q-12 -71 -61.5 -111t-119.5 -40q-90 0 -141.5 46t-63.5 122l-43 275q-1 9 -4.5 14t-12.5 5t-12 -5t-4 -15l-36 -275q-10 -75 -59 -121t-128 -46
q-76 0 -126 38t-65 115l-89 457h191l70 -438q2 -13 6.5 -19t12.5 -6q9 0 13.5 6.5t5.5 17.5l40 289q4 31 17 60t35 52t54.5 37t75.5 14z" />
    <glyph glyph-name="x" unicode="x" horiz-adv-x="739" 
d="M392 160q-10 14 -21.5 15t-22.5 -15l-114 -160h-206l221 287l-229 313h212l118 -171q10 -15 19 -15t19 15l117 171h206l-212 -296l220 -304h-212z" />
    <glyph glyph-name="y" unicode="y" horiz-adv-x="720" 
d="M351 241q4 -11 10 -14.5t11 -3.5q6 0 10.5 3.5t8.5 14.5l117 359h202l-215 -582q-27 -73 -91.5 -120.5t-172.5 -47.5h-164v159h181q36 0 54.5 16.5t31.5 54.5l7 20h-48q-41 0 -67.5 18t-41.5 55l-174 427h209z" />
    <glyph glyph-name="z" unicode="z" horiz-adv-x="669" 
d="M625 0h-372q-107 0 -158.5 47t-51.5 117q0 71 47 114t119 65l211 66q13 4 19.5 10t6.5 15q0 10 -7 15.5t-22 5.5h-354v145h350q119 0 168.5 -44t49.5 -116q0 -75 -42.5 -116.5t-114.5 -63.5l-219 -66q-13 -4 -20 -10t-7 -16q0 -11 7.5 -17t21.5 -6h368v-145z" />
    <glyph glyph-name="A" unicode="A" horiz-adv-x="890" 
d="M677 0l-59 157h-351l-60 -157h-202l249 605q29 71 71.5 114t117.5 43q78 0 122.5 -42.5t72.5 -112.5l247 -607h-208zM426 569l-99 -257h232l-97 257q-3 7 -6.5 12.5t-11.5 5.5q-7 0 -11 -5t-7 -13z" />
    <glyph glyph-name="B" unicode="B" horiz-adv-x="797" 
d="M430 750q78 0 138 -8.5t99.5 -29.5t60 -57t20.5 -92v-33q0 -46 -26 -85.5t-95 -61.5q76 -22 108 -62.5t32 -88.5v-35q0 -106 -74 -151.5t-251 -45.5h-377v750h365zM444 608h-179v-154h174q64 0 84 15t20 49v23q0 34 -19.5 50.5t-79.5 16.5zM463 306h-198v-164h193
q66 0 85 17t19 51v24q0 34 -18.5 53t-80.5 19z" />
    <glyph glyph-name="C" unicode="C" horiz-adv-x="721" 
d="M691 165v-165h-290q-89 0 -157 22.5t-113 64t-68 101t-23 132.5v110q0 73 23 132.5t68 101t113 64t157 22.5h285v-165h-275q-93 0 -127 -36.5t-34 -120.5v-106q0 -84 35 -120.5t131 -36.5h275z" />
    <glyph glyph-name="D" unicode="D" horiz-adv-x="850" 
d="M454 750q89 0 156.5 -22.5t111.5 -64t66 -101t22 -132.5v-110q0 -73 -22 -132.5t-66 -101t-111.5 -64t-156.5 -22.5h-389v750h389zM441 592h-176v-434h171q99 0 131.5 37t32.5 127v107q0 90 -32 126.5t-127 36.5z" />
    <glyph glyph-name="E" unicode="E" horiz-adv-x="748" 
d="M65 0v750h626v-165h-431v-130h431v-160h-431v-130h431v-165h-626z" />
    <glyph glyph-name="F" unicode="F" horiz-adv-x="716" 
d="M65 0v750h591v-165h-391v-138h391v-165h-391v-282h-200z" />
    <glyph glyph-name="G" unicode="G" horiz-adv-x="855" 
d="M791 750v-165h-380q-93 0 -127 -36.5t-34 -120.5v-113q0 -89 33.5 -126t114.5 -37h122q56 0 80.5 16.5t24.5 52.5v66h-202v158h382v-237q0 -112 -75.5 -165t-216.5 -53h-109q-183 0 -273.5 88t-90.5 245v107q0 73 23 132.5t68 101t113 64t157 22.5h390z" />
    <glyph glyph-name="H" unicode="H" horiz-adv-x="885" 
d="M65 0v750h200v-284h355v284h200v-750h-200v291h-355v-291h-200z" />
    <glyph glyph-name="I" unicode="I" horiz-adv-x="340" 
d="M70 0v750h200v-750h-200z" />
    <glyph glyph-name="J" unicode="J" horiz-adv-x="632" 
d="M40 0v165h207q68 0 94 24.5t26 83.5v477h200v-461q0 -134 -75.5 -211.5t-244.5 -77.5h-207z" />
    <glyph glyph-name="K" unicode="K" horiz-adv-x="805" 
d="M60 0v750h200v-288h37q31 0 47 8t37 36l181 244h225l-285 -366l293 -384h-231l-176 238q-25 34 -42.5 45t-48.5 11h-37v-294h-200z" />
    <glyph glyph-name="L" unicode="L" horiz-adv-x="676" 
d="M65 0v750h200v-585h381v-165h-581z" />
    <glyph glyph-name="M" unicode="M" horiz-adv-x="1160" 
d="M40 0l47 536q10 120 65.5 173t140.5 53q91 0 144.5 -55.5t68.5 -151.5l59 -373q2 -12 6.5 -18t14.5 -6t15 7t6 19l57 372q14 95 67.5 150.5t143.5 55.5q95 0 141.5 -53.5t56.5 -172.5l47 -536h-193l-40 565q-1 10 -3.5 17t-12.5 7q-8 0 -13 -6.5t-6 -15.5l-67 -401
q-13 -80 -64.5 -129t-135.5 -49q-87 0 -139 50.5t-65 128.5l-70 399q-2 11 -7 17t-13 6q-10 0 -13.5 -7t-4.5 -18l-40 -564h-193z" />
    <glyph glyph-name="N" unicode="N" horiz-adv-x="971" 
d="M65 0v550q0 51 17 91t44.5 66.5t65 40.5t77.5 14q96 0 150.5 -51.5t88.5 -135.5l163 -398q3 -7 6.5 -13.5t11.5 -6.5q10 0 13.5 5.5t3.5 15.5v572h200v-551q0 -53 -17 -93t-44.5 -66.5t-65 -39.5t-77.5 -13q-96 0 -149.5 50t-89.5 137l-163 398q-3 7 -6.5 13.5t-11.5 6.5
q-10 0 -13.5 -5.5t-3.5 -15.5v-571h-200z" />
    <glyph glyph-name="O" unicode="O" horiz-adv-x="874" 
d="M834 323q0 -75 -22.5 -136.5t-67.5 -105t-114 -67.5t-160 -24h-66q-91 0 -160 24t-114 67.5t-67.5 105t-22.5 136.5v104q0 75 22.5 136.5t67.5 105t114 67.5t160 24h66q91 0 160 -24t114 -67.5t67.5 -105t22.5 -136.5v-104zM250 315q0 -89 33.5 -126t114.5 -37h78
q81 0 114.5 37t33.5 126v122q0 89 -33.5 125.5t-114.5 36.5h-78q-81 0 -114.5 -36.5t-33.5 -125.5v-122z" />
    <glyph glyph-name="P" unicode="P" horiz-adv-x="778" 
d="M743 538v-74q0 -122 -74 -168t-229 -46h-175v-250h-200v750h375q155 0 229 -49t74 -163zM543 470v59q0 35 -21.5 54.5t-75.5 19.5h-181v-206h181q54 0 75.5 19.5t21.5 53.5z" />
    <glyph glyph-name="Q" unicode="Q" horiz-adv-x="874" 
d="M507 -150l-114 140q-88 1 -155 26t-110.5 68.5t-65.5 104t-22 134.5v104q0 75 22.5 136.5t67.5 105t114 67.5t160 24h66q91 0 160 -24t114 -67.5t67.5 -105t22.5 -136.5v-104q0 -122 -61 -207t-183 -113l127 -153h-210zM250 315q0 -89 33.5 -126t114.5 -37h78
q81 0 114.5 37t33.5 126v122q0 89 -33.5 125.5t-114.5 36.5h-78q-81 0 -114.5 -36.5t-33.5 -125.5v-122z" />
    <glyph glyph-name="R" unicode="R" horiz-adv-x="808" 
d="M785 0h-224l-199 229q-25 29 -35 57t-10 50q0 49 30 74.5t81 25.5h99q33 0 49 18.5t16 46.5v33q0 30 -15.5 46t-51.5 16h-260v-596h-200v750h440q145 0 214 -48t69 -155v-43q0 -47 -19 -83.5t-50.5 -61.5t-74 -38.5t-89.5 -13.5h-24z" />
    <glyph glyph-name="S" unicode="S" horiz-adv-x="752" 
d="M434 279l-180 53q-104 31 -154 85t-50 129q0 94 66 149t186 55h385v-165h-386q-32 0 -45 -11.5t-13 -25.5q0 -18 12.5 -29.5t40.5 -19.5l183 -53q116 -34 174.5 -83.5t58.5 -138.5q0 -46 -17.5 -87t-53 -71t-90 -48t-127.5 -18h-354v165h384q38 0 53 15t15 35
q0 24 -18.5 36.5t-69.5 27.5z" />
    <glyph glyph-name="T" unicode="T" horiz-adv-x="820" 
d="M310 0v585h-285v165h770v-165h-285v-585h-200z" />
    <glyph glyph-name="U" unicode="U" horiz-adv-x="850" 
d="M372 -13q-168 0 -240 75t-72 209v479h200v-498q0 -54 24.5 -79.5t84.5 -25.5h114q56 0 81.5 25.5t25.5 79.5v498h200v-479q0 -67 -15.5 -120t-51 -89.5t-95.5 -55.5t-148 -19h-108z" />
    <glyph glyph-name="V" unicode="V" horiz-adv-x="810" 
d="M230 750l160 -571q3 -11 7.5 -17.5t13.5 -6.5q10 0 14.5 6t8.5 19l164 570h202l-186 -585q-26 -81 -72 -128t-130 -47q-91 0 -136.5 44t-73.5 131l-192 585h220z" />
    <glyph glyph-name="W" unicode="W" horiz-adv-x="1220" 
d="M215 750l86 -571q1 -10 6 -17t15 -7q9 0 13.5 6.5t5.5 15.5l64 379q16 93 65.5 149.5t144.5 56.5q96 0 139.5 -57t59.5 -148l64 -379q2 -11 7 -17t13 -6q13 0 17.5 7t5.5 18l84 570h200l-104 -580q-16 -88 -62.5 -134t-132.5 -46q-96 0 -149 51t-67 138l-65 394
q-1 9 -5 14t-12 5t-12 -5t-5 -14l-67 -396q-15 -87 -62.5 -137t-138.5 -50q-96 0 -144.5 54.5t-63.5 138.5l-100 567h200z" />
    <glyph glyph-name="X" unicode="X" horiz-adv-x="843" 
d="M456 224q-7 10 -15.5 16t-17.5 6q-8 0 -17 -5.5t-16 -16.5l-154 -224h-218l269 375l-277 375h234l150 -221q6 -9 13 -14t14 -6q7 0 14.5 5t14.5 15l150 221h225l-269 -375l277 -375h-221z" />
    <glyph glyph-name="Y" unicode="Y" horiz-adv-x="800" 
d="M300 0v261l-290 489h224l145 -260q8 -15 22.5 -15.5t23.5 15.5l156 260h209l-290 -489v-261h-200z" />
    <glyph glyph-name="Z" unicode="Z" horiz-adv-x="719" 
d="M678 0h-442q-57 0 -98.5 13.5t-68 36t-39.5 52.5t-13 63q0 65 39.5 115t120.5 96l292 162q10 5 14 11t4 14q0 10 -7.5 16t-23.5 6h-413v165h412q129 0 183 -38.5t54 -119.5q0 -52 -33 -103t-111 -96l-304 -173q-12 -7 -18 -13t-6 -18q0 -13 9 -18.5t25 -5.5h424v-165z
" />
    <glyph glyph-name="zero" unicode="0" horiz-adv-x="844" 
d="M794 325q0 -75 -20.5 -137t-62 -106t-104.5 -68t-147 -24h-76q-84 0 -147 24.5t-104.5 68.5t-62 106.5t-20.5 137.5v104q0 74 20.5 135t62 104t104.5 66.5t147 23.5h76q84 0 147 -24t104.5 -67t62 -104.5t20.5 -135.5v-104zM260 295q0 -78 31.5 -110.5t106.5 -32.5h48
q75 0 106.5 32.5t31.5 110.5v162q0 78 -31.5 110t-106.5 32h-48q-75 0 -106.5 -32t-31.5 -110v-162z" />
    <glyph glyph-name="one" unicode="1" horiz-adv-x="632" 
d="M40 0v153h189v402q0 16 -7.5 24.5t-22.5 8.5h-149v162h192q85 0 136 -51.5t51 -130.5v-415h163v-153h-552z" />
    <glyph glyph-name="two" unicode="2" horiz-adv-x="692" 
d="M649 157v-157h-619v122q0 48 10 86t35 70.5t66.5 63t104.5 63.5l159 83q26 13 37 25.5t11 31.5q0 28 -19 38t-51 10h-337v157h354q134 0 196 -48.5t62 -132.5q0 -47 -14 -81t-41.5 -61t-67.5 -51.5t-92 -52.5l-145 -79q-34 -18 -43.5 -33t-9.5 -34v-20h404z" />
    <glyph glyph-name="three" unicode="3" horiz-adv-x="715" 
d="M213 453l183 137h-351v160h629v-130l-258 -187h9q71 0 119 -13.5t77 -36t41.5 -52.5t12.5 -63v-73q0 -99 -73 -147t-215 -48h-327v160h353q32 0 46.5 11.5t14.5 45.5v27q0 34 -15.5 44.5t-43.5 10.5h-185q-38 0 -58 20t-20 51q0 26 16.5 44.5t44.5 38.5z" />
    <glyph glyph-name="four" unicode="4" horiz-adv-x="817" 
d="M200 115q-93 0 -136.5 37.5t-43.5 94.5q0 39 18.5 76.5t61.5 91.5l181 227q43 54 94.5 86t111.5 32h26q69 0 116.5 -43t47.5 -136v-313h115v-153h-115v-115h-195v115h-282zM258 268h224v297q0 10 -5 14.5t-13 4.5q-6 0 -10.5 -3.5t-8.5 -9.5l-205 -263q-4 -6 -6.5 -11
t-2.5 -10q0 -8 5.5 -13.5t21.5 -5.5z" />
    <glyph glyph-name="five" unicode="5" horiz-adv-x="709" 
d="M414 474q143 0 201.5 -54t58.5 -171v-27q0 -105 -58.5 -163.5t-208.5 -58.5h-352v157h331q51 0 69 12.5t18 52.5v27q0 42 -17.5 56.5t-64.5 14.5h-336v430h612v-167h-432v-109h179z" />
    <glyph glyph-name="six" unicode="6" horiz-adv-x="764" 
d="M429 466q151 0 223 -53t72 -154v-34q0 -112 -71 -171t-228 -59h-39q-175 0 -255.5 74.5t-80.5 234.5v131q0 72 20.5 130.5t64 99t111.5 63t162 22.5h283v-152h-290q-87 0 -116.5 -28t-29.5 -94v-10h174zM380 138h25q70 0 94 20.5t24 58.5v22q0 44 -23.5 61t-85.5 17h-159
v-62q0 -70 26.5 -93.5t98.5 -23.5z" />
    <glyph glyph-name="seven" unicode="7" horiz-adv-x="686" 
d="M330 0h-218l321 535q8 13 10.5 22.5t2.5 17.5q0 11 -8 16.5t-24 5.5h-378v153h441q93 0 136 -37t43 -101q0 -37 -15.5 -75t-38.5 -78z" />
    <glyph glyph-name="eight" unicode="8" horiz-adv-x="751" 
d="M51 574q0 97 76.5 141.5t236.5 44.5h23q160 0 236.5 -44.5t76.5 -141.5v-40q0 -48 -25.5 -91t-103.5 -64q87 -21 118.5 -64.5t31.5 -92.5v-42q0 -97 -78 -143.5t-246 -46.5h-43q-168 0 -246 46.5t-78 143.5v42q0 49 31.5 92.5t118.5 64.5q-78 21 -103.5 64t-25.5 91v40z
M509 550q0 34 -23.5 48t-89.5 14h-41q-66 0 -89.5 -14t-23.5 -48v-35q0 -34 24 -48t94 -14h31q70 0 94 14t24 48v35zM530 242q0 34 -23.5 49t-89.5 15h-83q-66 0 -89.5 -15t-23.5 -49v-35q0 -34 24 -51.5t94 -17.5h73q70 0 94 17.5t24 51.5v35z" />
    <glyph glyph-name="nine" unicode="9" horiz-adv-x="764" 
d="M335 284q-151 0 -223 53t-72 154v34q0 112 71 171t228 59h39q175 0 255.5 -74.5t80.5 -234.5v-131q0 -72 -20.5 -130.5t-64 -99t-111.5 -63t-162 -22.5h-283v152h290q87 0 116.5 28t29.5 94v10h-174zM350 433h159v62q0 70 -26.5 93.5t-98.5 23.5h-25q-70 0 -94 -20.5
t-24 -58.5v-22q0 -44 23.5 -61t85.5 -17z" />
    <glyph glyph-name="period" unicode="." horiz-adv-x="330" 
d="M60 0v210h210v-210h-210z" />
    <glyph glyph-name="comma" unicode="," horiz-adv-x="284" 
d="M7 -130q16 31 24.5 52t12.5 40t4.5 41.5t0.5 56.5v140h193v-139q0 -57 -12 -97t-52 -94h-171z" />
    <glyph glyph-name="semicolon" unicode=";" horiz-adv-x="297" 
d="M7 -130q16 31 24.5 52t12.5 40t4.5 41.5t0.5 56.5v140h193v-139q0 -57 -12 -97t-52 -94h-171z" />
    <glyph glyph-name="colon" unicode=":" horiz-adv-x="330" 
d="M60 0v210h210v-210h-210z" />
    <glyph glyph-name="ellipsis" unicode="&#x2026;" horiz-adv-x="950" 
d="M680 0v210h210v-210h-210zM60 0v210h210v-210h-210zM370 0v210h210v-210h-210z" />
    <glyph glyph-name="hyphen" unicode="-" horiz-adv-x="366" 
d="M60 212v173h246v-173h-246z" />
    <glyph glyph-name="exclam" unicode="!" horiz-adv-x="336" 
d="M60 750h216l-8 -463h-200zM63 0v210h210v-210h-210z" />
    <glyph glyph-name="exclamdown" unicode="&#xa1;" horiz-adv-x="336" 
d="M273 600v-210h-210v210h210zM276 -150h-216l8 463h200z" />
    <glyph glyph-name="question" unicode="?" horiz-adv-x="626" 
d="M576 522q0 -121 -74.5 -178t-220.5 -57h-136v156h155q49 0 68.5 17t19.5 59t-21.5 58.5t-76.5 16.5h-240v156h231q146 0 220.5 -56t74.5 -172zM145 0v210h210v-210h-210z" />
    <glyph glyph-name="questiondown" unicode="&#xbf;" horiz-adv-x="626" 
d="M481 600v-210h-210v210h210zM50 78q0 121 74.5 178t220.5 57h136v-156h-155q-49 0 -68.5 -17t-19.5 -59t21.5 -58.5t76.5 -16.5h240v-156h-231q-146 0 -220.5 56t-74.5 172z" />
    <glyph glyph-name="ordfeminine" unicode="&#xaa;" horiz-adv-x="362" 
d="M340 579v-160h-233q-48 0 -71.5 22.5t-23.5 54.5q0 43 26.5 67t60.5 46l66 44h-149v97h124q109 0 154.5 -45t45.5 -126zM134 517h90v69z" />
    <glyph glyph-name="ordmasculine" unicode="&#xba;" horiz-adv-x="399" 
d="M384 599v-31q0 -69 -43.5 -111.5t-122.5 -42.5h-37q-76 0 -121 42.5t-45 111.5v31q0 69 45 111.5t122 42.5h36q79 0 122.5 -42.5t43.5 -111.5zM252 608q0 25 -9 38t-31 13h-24q-24 0 -32.5 -13t-8.5 -38v-48q0 -26 9 -39t32 -13h24q22 0 31 13t9 39v48z" />
    <glyph glyph-name="onesuperior" unicode="&#xb9;" horiz-adv-x="321" 
d="M12 419v95h86v124q0 7 -3.5 10.5t-9.5 3.5h-73v98h108q44 0 74 -29.5t30 -68.5v-138h85v-95h-297z" />
    <glyph glyph-name="twosuperior" unicode="&#xb2;" horiz-adv-x="292" 
d="M278 513v-94h-274v53q0 52 19 80t70 50l48 21q9 4 12.5 8.5t3.5 9.5q0 7 -4.5 11t-17.5 4h-121v94h138q68 0 99 -24t31 -67q0 -41 -20.5 -63t-62.5 -41l-81 -38v-4h160z" />
    <glyph glyph-name="threesuperior" unicode="&#xb3;" horiz-adv-x="306" 
d="M95 629l38 25h-123v96h281v-85l-80 -52q51 -6 68 -28.5t17 -44.5v-29q0 -42 -35.5 -67t-104.5 -25h-138v96h163v27h-82q-22 0 -33 11t-11 24q0 16 10 27.5t30 24.5z" />
    <glyph glyph-name="quoteleft" unicode="&#x2018;" horiz-adv-x="306" 
d="M270 750q-25 -52 -33.5 -98.5t-8.5 -99.5v-81h-170v70q0 63 18 111.5t54 97.5h140z" />
    <glyph glyph-name="quoteright" unicode="&#x2019;" horiz-adv-x="306" 
d="M36 471q25 52 33.5 98.5t8.5 99.5v81h170v-70q0 -63 -18 -111.5t-54 -97.5h-140z" />
    <glyph glyph-name="quotedblleft" unicode="&#x201c;" horiz-adv-x="526" 
d="M270 750q-25 -52 -33.5 -98.5t-8.5 -99.5v-81h-170v70q0 63 18 111.5t54 97.5h140zM490 750q-25 -52 -33.5 -98.5t-8.5 -99.5v-81h-170v70q0 63 18 111.5t54 97.5h140z" />
    <glyph glyph-name="quotedblright" unicode="&#x201d;" horiz-adv-x="526" 
d="M256 471q25 52 33.5 98.5t8.5 99.5v81h170v-70q0 -63 -18 -111.5t-54 -97.5h-140zM36 471q25 52 33.5 98.5t8.5 99.5v81h170v-70q0 -63 -18 -111.5t-54 -97.5h-140z" />
    <glyph glyph-name="quotesinglbase" unicode="&#x201a;" horiz-adv-x="306" 
d="M36 -139q25 52 33.5 98.5t8.5 99.5v81h170v-70q0 -63 -18 -111.5t-54 -97.5h-140z" />
    <glyph glyph-name="quotedblbase" unicode="&#x201e;" horiz-adv-x="526" 
d="M256 -139q25 52 33.5 98.5t8.5 99.5v81h170v-70q0 -63 -18 -111.5t-54 -97.5h-140zM36 -139q25 52 33.5 98.5t8.5 99.5v81h170v-70q0 -63 -18 -111.5t-54 -97.5h-140z" />
    <glyph glyph-name="quotesingle" unicode="'" horiz-adv-x="310" 
d="M200 470h-130v280h170z" />
    <glyph glyph-name="quotedbl" unicode="&#x22;" horiz-adv-x="540" 
d="M200 470h-130v280h170zM430 470h-130v280h170z" />
    <glyph glyph-name="guilsinglleft" unicode="&#x2039;" horiz-adv-x="461" 
d="M391 288v-173l-273 165q-22 13 -42.5 35.5t-20.5 55.5v9q0 33 20.5 55.5t42.5 35.5l273 165v-173l-166 -87z" />
    <glyph glyph-name="guilsinglright" unicode="&#x203a;" horiz-adv-x="461" 
d="M343 280l-273 -165v173l166 88l-166 87v173l273 -165q22 -13 42.5 -35.5t20.5 -55.5v-9q0 -33 -20.5 -55.5t-42.5 -35.5z" />
    <glyph glyph-name="guillemotleft" unicode="&#xab;" horiz-adv-x="801" 
d="M391 288v-173l-273 165q-22 13 -42.5 35.5t-20.5 55.5v9q0 33 20.5 55.5t42.5 35.5l273 165v-173l-166 -87zM731 288v-173l-273 165q-22 13 -42.5 35.5t-20.5 55.5v9q0 33 20.5 55.5t42.5 35.5l273 165v-173l-166 -87z" />
    <glyph glyph-name="guillemotright" unicode="&#xbb;" horiz-adv-x="801" 
d="M683 280l-273 -165v173l166 88l-166 87v173l273 -165q22 -13 42.5 -35.5t20.5 -55.5v-9q0 -33 -20.5 -55.5t-42.5 -35.5zM343 280l-273 -165v173l166 88l-166 87v173l273 -165q22 -13 42.5 -35.5t20.5 -55.5v-9q0 -33 -20.5 -55.5t-42.5 -35.5z" />
    <glyph glyph-name="slash" unicode="/" horiz-adv-x="390" 
d="M210 750h170l-200 -860h-170z" />
    <glyph glyph-name="backslash" unicode="\" horiz-adv-x="390" 
d="M180 750l200 -860h-170l-200 860h170z" />
    <glyph glyph-name="bar" unicode="|" horiz-adv-x="310" 
d="M70 750h170v-860h-170v860z" />
    <glyph glyph-name="brokenbar" unicode="&#xa6;" horiz-adv-x="310" 
d="M70 439v311h170v-311h-170zM240 -110h-170v311h170v-311z" />
    <glyph glyph-name="endash" unicode="&#x2013;" horiz-adv-x="516" 
d="M60 212v173h396v-173h-396z" />
    <glyph glyph-name="underscore" unicode="_" horiz-adv-x="446" 
d="M0 -173v173h446v-173h-446z" />
    <glyph glyph-name="emdash" unicode="&#x2014;" horiz-adv-x="766" 
d="M60 212v173h646v-173h-646z" />
    <glyph glyph-name="bullet" unicode="&#x2022;" horiz-adv-x="566" 
d="M130 272v56q0 53 33.5 89.5t87.5 36.5h64q54 0 87.5 -36.5t33.5 -89.5v-56q0 -53 -33.5 -90t-87.5 -37h-64q-54 0 -87.5 37t-33.5 90z" />
    <glyph glyph-name="periodcentered" unicode="&#xb7;" horiz-adv-x="450" 
d="M120 194v210h210v-210h-210z" />
    <glyph glyph-name="parenleft" unicode="(" horiz-adv-x="447" 
d="M90 36v509q0 50 18 88.5t49 64t74 39t92 13.5h64v-135h-49q-31 0 -44.5 -15.5t-13.5 -55.5v-508q0 -40 13.5 -55.5t44.5 -15.5h49v-135h-64q-49 0 -92 13.5t-74 39.5t-49 64.5t-18 88.5z" />
    <glyph glyph-name="parenright" unicode=")" horiz-adv-x="447" 
d="M357 36q0 -50 -18 -88.5t-49 -64.5t-74 -39.5t-92 -13.5h-64v135h49q31 0 44.5 15.5t13.5 55.5v508q0 40 -13.5 55.5t-44.5 15.5h-49v135h64q49 0 92 -13.5t74 -39t49 -64t18 -88.5v-509z" />
    <glyph glyph-name="bracketleft" unicode="[" horiz-adv-x="437" 
d="M90 -170v920h287v-145h-107v-640h107v-135h-287z" />
    <glyph glyph-name="bracketright" unicode="]" horiz-adv-x="437" 
d="M347 -170h-287v135h107v640h-107v145h287v-920z" />
    <glyph glyph-name="braceleft" unicode="{" horiz-adv-x="405" 
d="M200 292v-4q42 -7 60 -34t18 -78v-130q0 -46 15.5 -63.5t52.5 -17.5h39v-135h-104q-79 0 -126 42t-47 133v147q0 34 -13.5 50t-44.5 16h-30v144h30q31 0 44.5 16t13.5 50v147q0 91 47 133t126 42h104v-135h-39q-37 0 -52.5 -17.5t-15.5 -63.5v-130q0 -51 -18 -78t-60 -34
z" />
    <glyph glyph-name="braceright" unicode="}" horiz-adv-x="405" 
d="M205 292q-42 7 -60 34t-18 78v130q0 46 -15.5 63.5t-52.5 17.5h-39v135h104q79 0 126 -42t47 -133v-147q0 -34 13.5 -50t44.5 -16h30v-144h-30q-31 0 -44.5 -16t-13.5 -50v-147q0 -91 -47 -133t-126 -42h-104v135h39q37 0 52.5 17.5t15.5 63.5v130q0 51 18 78t60 34v4z
" />
    <glyph glyph-name="asterisk" unicode="*" horiz-adv-x="523" 
d="M338 378l-76 107l-76 -107l-82 62l70 83h-114v96h113l-69 83l82 62l76 -107l76 107l81 -62l-69 -83h113v-96h-113l69 -83z" />
    <glyph glyph-name="dagger" unicode="&#x2020;" horiz-adv-x="610" 
d="M30 425v155h180v170h190v-170h180v-155h-180v-425h-190v425h-180z" />
    <glyph glyph-name="daggerdbl" unicode="&#x2021;" horiz-adv-x="610" 
d="M30 170v155h180v100h-180v155h180v170h190v-170h180v-155h-180v-100h180v-155h-180v-170h-190v170h-180z" />
    <glyph glyph-name="copyright" unicode="&#xa9;" horiz-adv-x="930" 
d="M875 315q0 -74 -19.5 -134.5t-59.5 -103t-102.5 -66t-148.5 -23.5h-160q-86 0 -149 23.5t-103 66t-59 103t-19 134.5v120q0 75 19 135.5t59 103.5t103 66t149 23h160q86 0 148.5 -23t102.5 -66t59.5 -103.5t19.5 -135.5v-120zM161 285q0 -103 50.5 -154.5t155.5 -51.5
h196q106 0 156 51.5t50 154.5v181q0 104 -50 155t-156 51h-196q-105 0 -155.5 -51t-50.5 -155v-181zM467 501q-57 0 -81.5 -21.5t-24.5 -78.5v-50q0 -58 24.5 -80t81.5 -22h165v-89h-189q-82 0 -133 45.5t-51 134.5v71q0 88 51 133.5t133 45.5h189v-89h-165z" />
    <glyph glyph-name="registered" unicode="&#xae;" horiz-adv-x="712" 
d="M657 432q0 -107 -58 -172.5t-184 -65.5h-118q-126 0 -184 65.5t-58 172.5v90q0 110 58 175.5t184 65.5h118q126 0 184 -65.5t58 -175.5v-90zM143 415q0 -72 35.5 -108t109.5 -36h136q75 0 110 36t35 108v127q0 72 -35 108t-110 36h-136q-74 0 -109.5 -36t-35.5 -108v-127
zM504 319h-93l-92 128q-13 17 -6.5 40t37.5 23h36q28 0 39 5.5t11 22.5v6q0 18 -11 23.5t-39 5.5h-94v-254h-76v318h187q46 0 78 -16.5t32 -65.5v-11q0 -53 -26.5 -73t-73.5 -21z" />
    <glyph glyph-name="trademark" unicode="&#x2122;" horiz-adv-x="756" 
d="M505 545q4 0 6 3t3 8l15 102q8 56 38.5 80.5t68.5 24.5q47 0 72.5 -26.5t27.5 -72.5l10 -202h-97l-7 186q0 8 -2 12.5t-6 4.5q-5 0 -7.5 -4.5t-3.5 -11.5l-15 -104q-7 -51 -36.5 -71t-66.5 -20q-35 0 -66.5 20t-38.5 71l-15 104q-1 7 -3.5 11.5t-6.5 4.5q-5 0 -7 -4.5
t-2 -12.5l-7 -186h-96l10 202q2 46 28 72.5t72 26.5q43 0 71.5 -23.5t36.5 -81.5l14 -102q1 -6 3.5 -8.5t6.5 -2.5zM73 462v201h-73v92h251v-92h-73v-201h-105z" />
    <glyph glyph-name="section" unicode="&#xa7;" horiz-adv-x="792" 
d="M732 55q0 -41 -13.5 -78.5t-42 -65.5t-73 -44.5t-105.5 -16.5h-428v150h423q30 0 40 10.5t10 23.5t-11 22.5t-41 14.5l-285 47q-84 13 -125 65t-41 125q0 43 15 78t45 59q-19 23 -29.5 53t-10.5 67t13.5 70.5t42 59t73 40.5t105.5 15h428v-150h-423q-30 0 -40 -10.5
t-10 -23.5t10.5 -22.5t36.5 -14.5l275 -51q93 -17 137 -62.5t44 -123.5q0 -42 -14 -76.5t-42 -58.5q17 -20 26.5 -45.5t9.5 -56.5zM560 224l6 -1q10 7 15.5 18.5t5.5 27.5q0 23 -14 35.5t-37 16.5l-304 55l-6 1q-10 -7 -15.5 -18.5t-5.5 -27.5q0 -23 14 -35.5t37 -16.5z" />
    <glyph glyph-name="paragraph" unicode="&#xb6;" horiz-adv-x="975" 
d="M35 538q0 114 74 163t229 49h275v-900h-200v400h-75q-155 0 -229 46t-74 168v74zM710 -150v900h200v-900h-200z" />
    <glyph glyph-name="at" unicode="@" horiz-adv-x="838" 
d="M55 548v167h405q163 0 241.5 -81t78.5 -217v-417h-477q-125 0 -190 46.5t-65 159.5v60q0 82 56.5 135.5t178.5 53.5h222v-310h105v280q0 62 -28 92.5t-92 30.5h-435zM280 145h70v170h-70q-41 0 -57.5 -15t-16.5 -49v-40q0 -34 16.5 -50t57.5 -16z" />
    <glyph glyph-name="numbersign" unicode="#" horiz-adv-x="833" 
d="M720 323v-133h-148l-49 -190h-145l49 190h-120l-49 -190h-145l49 190h-112v133h147l34 133h-118v134h153l47 180h145l-47 -180h120l47 180h145l-47 -180h107v-134h-142l-34 -133h113zM342 323h120l34 133h-120z" />
    <glyph glyph-name="Euro" unicode="&#x20ac;" horiz-adv-x="797" 
d="M20 225v120h96v60h-96v120h107q26 104 114.5 164.5t235.5 60.5h285v-155h-275q-63 0 -98.5 -16.5t-49.5 -53.5h318v-120h-331v-60h331v-120h-318q15 -37 51 -53.5t102 -16.5h275v-155h-290q-147 0 -235.5 60.5t-114.5 164.5h-107z" />
    <glyph glyph-name="dollar" unicode="$" horiz-adv-x="752" 
d="M332 -100v100h-262v165h262v144l-78 23q-104 31 -154 85t-50 129q0 94 66 149t186 55h30v100h110v-100h245v-165h-245v-128l37 -11q116 -34 174.5 -83.5t58.5 -138.5q0 -44 -16.5 -84t-49.5 -70.5t-84 -49t-120 -20.5v-100h-110zM296 499l36 -10v96h-31q-32 0 -45 -11.5
t-13 -25.5q0 -18 12.5 -29.5t40.5 -19.5zM522 215q0 24 -17 36.5t-63 25.5v-112h12q38 0 53 15t15 35z" />
    <glyph glyph-name="cent" unicode="&#xa2;" horiz-adv-x="671" 
d="M362 -100v100h-22q-161 0 -232 70t-71 193v73q0 123 71 193.5t232 70.5h22v100h110v-100h149v-145h-149v-310h149v-145h-149v-100h-110zM346 455q-59 0 -86.5 -26.5t-27.5 -80.5v-103q0 -60 27.5 -80t86.5 -20h16v310h-16z" />
    <glyph glyph-name="sterling" unicode="&#xa3;" horiz-adv-x="759" 
d="M30 157h150v143h-150v157h150v107q0 84 62 135t196 51h284v-157h-277q-32 0 -51 -10t-19 -36v-90h347v-157h-347v-143h354v-157h-699v157z" />
    <glyph glyph-name="yen" unicode="&#xa5;" horiz-adv-x="800" 
d="M82 164v120h204l-35 60h-169v120h98l-170 286h224l145 -260q8 -15 22.5 -15.5t23.5 15.5l156 260h209l-170 -286h99v-120h-170l-35 -60h205v-120h-219v-164h-200v164h-218z" />
    <glyph glyph-name="ruble" unicode="&#x20bd;" horiz-adv-x="878" 
d="M7 220h158v55h-158v147h158v328h375q155 0 229 -49t74 -163v-49q0 -122 -74.5 -168t-228.5 -46h-175v-55h273v-120h-273v-100h-200v100h-158v120zM365 603v-181h181q54 0 75.5 19.5t21.5 53.5v34q0 35 -21.5 54.5t-75.5 19.5h-181z" />
    <glyph glyph-name="manat" unicode="&#x20bc;" horiz-adv-x="998" 
d="M609 420h-15v-320h-190v320h-15q-53 0 -76 -20t-23 -73v-327h-200v285q0 149 75.5 229.5t238.5 85.5v150h190v-150q163 -5 238.5 -85.5t75.5 -229.5v-285h-200v327q0 53 -23 73t-76 20z" />
    <glyph glyph-name="percent" unicode="%" horiz-adv-x="846" 
d="M40 551v57q0 69 46.5 110.5t113.5 41.5h70q63 0 109.5 -41.5t46.5 -110.5v-57q0 -69 -46.5 -111.5t-109.5 -42.5h-70q-67 0 -113.5 42.5t-46.5 111.5zM632 419h-159l155 331h160zM171 589v-25q0 -25 11 -40t36 -15h29q27 0 37.5 15t10.5 40v25q0 27 -10.5 43t-37.5 16
h-29q-25 0 -36 -16t-11 -43zM420 144v57q0 69 46.5 110.5t113.5 41.5h70q63 0 109.5 -41.5t46.5 -110.5v-57q0 -69 -46.5 -111.5t-109.5 -42.5h-70q-67 0 -113.5 42.5t-46.5 111.5zM214 331h159l-155 -331h-160zM551 182v-25q0 -25 11 -40t36 -15h29q27 0 37.5 15t10.5 40
v25q0 27 -10.5 43t-37.5 16h-29q-25 0 -36 -16t-11 -43z" />
    <glyph glyph-name="perthousand" unicode="&#x2030;" horiz-adv-x="1286" 
d="M40 551v57q0 69 46.5 110.5t113.5 41.5h70q63 0 109.5 -41.5t46.5 -110.5v-57q0 -69 -46.5 -111.5t-109.5 -42.5h-70q-67 0 -113.5 42.5t-46.5 111.5zM632 419h-159l155 331h160zM171 589v-25q0 -25 11 -40t36 -15h29q27 0 37.5 15t10.5 40v25q0 27 -10.5 43t-37.5 16
h-29q-25 0 -36 -16t-11 -43zM860 146v57q0 69 46.5 110.5t113.5 41.5h70q63 0 109.5 -41.5t46.5 -110.5v-57q0 -69 -46.5 -111.5t-109.5 -42.5h-70q-67 0 -113.5 42.5t-46.5 111.5zM420 144v57q0 69 46.5 110.5t113.5 41.5h70q63 0 109.5 -41.5t46.5 -110.5v-57
q0 -69 -46.5 -111.5t-109.5 -42.5h-70q-67 0 -113.5 42.5t-46.5 111.5zM214 331h159l-155 -331h-160zM991 184v-25q0 -25 11 -40t36 -15h29q27 0 37.5 15t10.5 40v25q0 27 -10.5 43t-37.5 16h-29q-25 0 -36 -16t-11 -43zM551 182v-25q0 -25 11 -40t36 -15h29q27 0 37.5 15
t10.5 40v25q0 27 -10.5 43t-37.5 16h-29q-25 0 -36 -16t-11 -43z" />
    <glyph glyph-name="onequarter" unicode="&#xbc;" horiz-adv-x="850" 
d="M614 419h-159l175 331h160zM94 419v95h86v124q0 7 -3.5 10.5t-9.5 3.5h-73v98h108q44 0 74 -29.5t30 -68.5v-138h85v-95h-297zM474 39q-44 0 -66 18.5t-22 49.5q0 21 10.5 41.5t32.5 54.5l51 75q17 25 45.5 42.5t61.5 17.5h19q34 0 60 -22.5t26 -71.5v-109h50v-96h-50
v-39h-118v39h-100zM236 331h159l-175 -331h-160zM510 135h64v96z" />
    <glyph glyph-name="onethird" unicode="&#x2153;" horiz-adv-x="850" 
d="M614 419h-159l175 331h160zM94 419v95h86v124q0 7 -3.5 10.5t-9.5 3.5h-73v98h108q44 0 74 -29.5t30 -68.5v-138h85v-95h-297zM236 331h159l-175 -331h-160zM537 210l38 25h-123v96h281v-85l-80 -52q51 -6 68 -28.5t17 -44.5v-29q0 -42 -35.5 -67t-104.5 -25h-138v96h163
v27h-82q-22 0 -33 11t-11 24q0 16 10 27.5t30 24.5z" />
    <glyph glyph-name="twothird" horiz-adv-x="850" 
d="M614 419h-159l175 331h160zM334 513v-94h-274v53q0 52 19 80t70 50l48 21q9 4 12.5 8.5t3.5 9.5q0 7 -4.5 11t-17.5 4h-121v94h138q68 0 99 -24t31 -67q0 -41 -20.5 -63t-62.5 -41l-81 -38v-4h160zM236 331h159l-175 -331h-160zM537 210l38 25h-123v96h281v-85l-80 -52
q51 -6 68 -28.5t17 -44.5v-29q0 -42 -35.5 -67t-104.5 -25h-138v96h163v27h-82q-22 0 -33 11t-11 24q0 16 10 27.5t30 24.5z" />
    <glyph glyph-name="onehalf" unicode="&#xbd;" horiz-adv-x="850" 
d="M614 419h-159l175 331h160zM94 419v95h86v124q0 7 -3.5 10.5t-9.5 3.5h-73v98h108q44 0 74 -29.5t30 -68.5v-138h85v-95h-297zM730 106v-94h-274v53q0 52 19 80t70 50l48 21q9 4 12.5 8.5t3.5 9.5q0 7 -4.5 11t-17.5 4h-121v94h138q68 0 99 -24t31 -67q0 -41 -20.5 -63
t-62.5 -41l-81 -38v-4h160zM236 331h159l-175 -331h-160z" />
    <glyph glyph-name="threequarter" horiz-adv-x="850" 
d="M614 419h-159l175 331h160zM207 629l38 25h-123v96h281v-85l-80 -52q51 -6 68 -28.5t17 -44.5v-29q0 -42 -35.5 -67t-104.5 -25h-138v96h163v27h-82q-22 0 -33 11t-11 24q0 16 10 27.5t30 24.5zM484 39q-44 0 -66 18.5t-22 49.5q0 21 10.5 41.5t32.5 54.5l51 75
q17 25 45.5 42.5t61.5 17.5h19q34 0 60 -22.5t26 -71.5v-109h50v-96h-50v-39h-118v39h-100zM236 331h159l-175 -331h-160zM520 135h64v96z" />
    <glyph glyph-name="plus" unicode="+" horiz-adv-x="586" 
d="M50 295v160h163v163h160v-163h163v-160h-163v-173h-160v173h-163z" />
    <glyph glyph-name="minus" unicode="&#x2212;" horiz-adv-x="526" 
d="M50 295v160h426v-160h-426z" />
    <glyph glyph-name="plusminus" unicode="&#xb1;" horiz-adv-x="556" 
d="M50 400v160h163v113h160v-113h163v-160h-163v-123h-160v123h-163zM80 70v150h426v-150h-426z" />
    <glyph glyph-name="multiply" unicode="&#xd7;" horiz-adv-x="586" 
d="M54 496l113 113l126 -126l122 122l113 -113l-122 -122l126 -126l-113 -113l-126 126l-122 -122l-113 113l122 122z" />
    <glyph glyph-name="divide" unicode="&#xf7;" horiz-adv-x="546" 
d="M193 525v170h160v-170h-160zM50 295v160h446v-160h-446zM193 55v170h160v-170h-160z" />
    <glyph glyph-name="equal" unicode="=" horiz-adv-x="526" 
d="M50 425v160h426v-160h-426zM50 165v160h426v-160h-426z" />
    <glyph glyph-name="asciitilde" unicode="~" horiz-adv-x="860" 
d="M485 428l18 -13.5t15 -4.5q8 0 12 5.5t4 18.5v62h99v-76q0 -53 -31 -83.5t-79 -30.5q-34 0 -56.5 11.5t-55.5 36.5l-34 26q-10 8 -17 13t-15 5q-7 0 -12 -5.5t-5 -18.5v-62h-99v78q0 54 32 83t78 29q34 0 56.5 -11.5t55.5 -36.5z" />
    <glyph glyph-name="asciicircum" unicode="^" horiz-adv-x="707" 
d="M406 332l-52 82l-53 -82h-137l101 145q12 16 34 32.5t55 16.5t54 -15.5t34 -33.5l101 -145h-137z" />
    <glyph glyph-name="less" unicode="&#x3c;" horiz-adv-x="471" 
d="M391 288v-173l-273 165q-22 13 -42.5 35.5t-20.5 55.5v9q0 33 20.5 55.5t42.5 35.5l273 165v-173l-166 -87z" />
    <glyph glyph-name="greater" unicode="&#x3e;" horiz-adv-x="471" 
d="M353 280l-273 -165v173l166 88l-166 87v173l273 -165q22 -13 42.5 -35.5t20.5 -55.5v-9q0 -33 -20.5 -55.5t-42.5 -35.5z" />
    <glyph glyph-name="currency" unicode="&#xa4;" horiz-adv-x="688" 
d="M344 88q-40 0 -77 11.5t-67 33.5l-96 -98l-50 50l96 95q-22 28 -34.5 63.5t-12.5 75.5t13 76.5t35 64.5l-97 96l50 50l97 -99q30 22 66.5 33.5t76.5 11.5t76.5 -11.5t67.5 -32.5l96 98l50 -51l-96 -94q22 -29 35 -65.5t13 -76.5t-12.5 -75.5t-34.5 -63.5l95 -94l-50 -51
l-95 97q-31 -21 -68 -32.5t-77 -11.5zM344 234q37 0 63 24.5t26 60.5q0 37 -26 62t-63 25q-36 0 -62 -25t-26 -62q0 -36 26 -60.5t62 -24.5z" />
    <glyph glyph-name="degree" unicode="&#xb0;" horiz-adv-x="468" 
d="M50 566v54q0 66 44 105.5t110 39.5h64q62 0 106 -39.5t44 -105.5v-54q0 -66 -44 -106.5t-106 -40.5h-64q-66 0 -110 40.5t-44 106.5zM176 605v-27q0 -24 9.5 -38t31.5 -14h36q25 0 34.5 14t9.5 38v27q0 27 -9.5 41.5t-34.5 14.5h-36q-22 0 -31.5 -14.5t-9.5 -41.5z" />
    <glyph glyph-name="ampersand" unicode="&#x26;" horiz-adv-x="814" 
d="M588 0l-65 74q-40 -46 -85 -60t-117 -14h-63q-112 0 -167.5 45.5t-55.5 148.5v63q0 77 45 122.5t134 52.5q-37 48 -47.5 84t-10.5 66q0 34 14 64.5t40.5 53.5t66.5 36.5t91 13.5h301v-159h-265q-28 0 -40.5 -11t-12.5 -30q0 -12 6 -23.5t16 -22.5l146 -169l83 116h206
l-181 -241l182 -210h-221zM313 151q40 0 62 9t43 35l-100 115h-37q-37 0 -54 -15t-17 -55v-19q0 -37 16 -53.5t52 -16.5h35z" />
    <glyph glyph-name="germandbls" unicode="&#xdf;" horiz-adv-x="762" 
d="M323 770h133q137 0 199.5 -49.5t62.5 -145.5v-33q0 -43 -22 -80t-80 -56q63 -18 89.5 -60t26.5 -103v-46q0 -58 -18 -96.5t-53.5 -60.5t-89 -31t-122.5 -9h-141v160h151q59 0 76 16t17 46v26q0 22 -19.5 37.5t-70.5 15.5h-134v170h134q42 0 57.5 16.5t15.5 47.5v18
q0 29 -16.5 45t-53.5 16h-151q-35 0 -54.5 -18t-19.5 -65v-531h-190v519q0 131 71 191t202 60z" />
    <glyph glyph-name="arrowleft" unicode="&#x2190;" horiz-adv-x="794" 
d="M754 465v-180h-450l321 -286h-258l-270 245q-42 38 -59.5 67t-17.5 63t18.5 64.5t59.5 67.5l269 244h258l-321 -285h450z" />
    <glyph glyph-name="arrowup" unicode="&#x2191;" horiz-adv-x="871" 
d="M536 0h-200v489l-296 -248v228l265 210l70.5 56t59.5 21t61.5 -22l70.5 -56l264 -209v-228l-295 248v-489z" />
    <glyph glyph-name="arrowright" unicode="&#x2192;" horiz-adv-x="794" 
d="M169 -1l321 285h-450v180h450l-321 286h258l270 -245q42 -38 59.5 -67t17.5 -63t-18.5 -64.5t-59.5 -67.5l-269 -244h-258z" />
    <glyph glyph-name="arrowdown" unicode="&#x2193;" horiz-adv-x="871" 
d="M536 750v-489l295 248v-228l-264 -209l-70.5 -56t-61.5 -22t-59.5 21l-70.5 56l-265 210v228l296 -248v489h200z" />
    <glyph glyph-name="arrowNW" unicode="&#x2196;" horiz-adv-x="788" 
d="M748 183l-144 -143l-366 366v-366h-178v503q0 56 7 89t31 57q24 25 58.5 31.5t89.5 6.5h502v-178h-366z" />
    <glyph glyph-name="arrowNE" unicode="&#x2197;" horiz-adv-x="788" 
d="M40 183l366 366h-366v178h502q55 0 89.5 -6.5t58.5 -31.5q24 -24 31 -57t7 -89v-503h-178v366l-366 -366z" />
    <glyph glyph-name="arrowSE" unicode="&#x2198;" horiz-adv-x="788" 
d="M40 201h366l-366 366l144 143l366 -366v366h178v-503q0 -56 -7 -89t-31 -57q-24 -25 -58.5 -31.5t-89.5 -6.5h-502v178z" />
    <glyph glyph-name="arrowSW" unicode="&#x2199;" horiz-adv-x="788" 
d="M748 201v-178h-502q-55 0 -89.5 6.5t-58.5 31.5q-24 24 -31 57t-7 89v503h178v-366l366 366l144 -143l-366 -366h366z" />
    <glyph glyph-name="numero" unicode="&#x2116;" horiz-adv-x="1493" 
d="M65 0v550q0 51 17 91t44.5 66.5t65 40.5t77.5 14q96 0 150.5 -51.5t88.5 -135.5l163 -398q3 -7 6.5 -13.5t11.5 -6.5q10 0 13.5 5.5t3.5 15.5v572h200v-551q0 -53 -17 -93t-44.5 -66.5t-65 -39.5t-77.5 -13q-96 0 -149.5 50t-89.5 137l-163 398q-3 7 -6.5 13.5t-11.5 6.5
q-10 0 -13.5 -5.5t-3.5 -15.5v-571h-200zM1493 518v-25q0 -113 -62 -175t-182 -62h-22q-125 0 -184.5 62t-59.5 175v25q0 113 59.5 175.5t184.5 62.5h22q120 0 182 -62.5t62 -175.5zM1341 531q0 43 -18 64.5t-61 21.5h-47q-40 0 -59 -21.5t-19 -64.5v-49q0 -44 19 -65.5
t59 -21.5h47q43 0 61 21.5t18 65.5v49zM1030 62v126h416v-126h-416z" />
    <glyph glyph-name="circleblack" unicode="&#x25cf;" horiz-adv-x="723" 
d="M361 114q-75 0 -127 12.5t-83.5 42t-46 80t-14.5 125.5q0 79 14.5 130t46 80.5t83.5 41t127 11.5t127 -11.5t84 -41t46.5 -80.5t14.5 -130q0 -75 -14.5 -125.5t-46.5 -80t-84 -42t-127 -12.5z" />
    <glyph glyph-name="squareblack" unicode="&#x25a0;" horiz-adv-x="670" 
d="M579 132h-487v487h487v-487z" />
    <glyph glyph-name="triangleupblack" unicode="&#x25b2;" horiz-adv-x="691" 
d="M86 186l259 449l260 -449h-519z" />
    <glyph glyph-name="trianglerightblack" unicode="&#x25b6;" horiz-adv-x="610" 
d="M86 635l449 -259l-449 -260v519z" />
    <glyph glyph-name="triangledownblack" unicode="&#x25bc;" horiz-adv-x="691" 
d="M86 584h519l-260 -449z" />
    <glyph glyph-name="triangleleftblack" unicode="&#x25c0;" horiz-adv-x="610" 
d="M524 635v-519l-449 260z" />
    <glyph glyph-name="grave" unicode="`" horiz-adv-x="707" 
d="M430 672h-150l-70 188h155z" />
    <glyph glyph-name="acute" unicode="&#xb4;" horiz-adv-x="707" 
d="M270 672l65 188h155l-70 -188h-150z" />
    <glyph glyph-name="circumflex" unicode="&#x2c6;" horiz-adv-x="707" 
d="M406 672l-52 82l-53 -82h-137l101 145q12 16 34 32.5t55 16.5t54 -15.5t34 -33.5l101 -145h-137z" />
    <glyph glyph-name="caron" unicode="&#x2c7;" horiz-adv-x="707" 
d="M442 700q-13 -18 -34 -33.5t-54 -15.5t-55 16.5t-34 32.5l-101 145h137l53 -82l52 82h137z" />
    <glyph glyph-name="caron.alt" horiz-adv-x="306" 
d="M36 483l42 267h130l-42 -267h-130z" />
    <glyph glyph-name="tilde" unicode="&#x2dc;" horiz-adv-x="860" 
d="M485 788l18 -13.5t15 -4.5q8 0 12 5.5t4 18.5v62h99v-76q0 -53 -31 -83.5t-79 -30.5q-34 0 -56.5 11.5t-55.5 36.5l-34 26q-10 8 -17 13t-15 5q-7 0 -12 -5.5t-5 -18.5v-62h-99v78q0 54 32 83t78 29q34 0 56.5 -11.5t55.5 -36.5z" />
    <glyph glyph-name="dieresis" unicode="&#xa8;" horiz-adv-x="510" 
d="M424 692h-134v128h134v-128zM219 692h-134v128h134v-128z" />
    <glyph glyph-name="macron" unicode="&#xaf;" horiz-adv-x="510" 
d="M385 697h-260v98h260v-98z" />
    <glyph glyph-name="breve" unicode="&#x2d8;" horiz-adv-x="727" 
d="M197 830h98v-51q0 -16 9.5 -24.5t24.5 -8.5h60q15 0 24.5 8.5t9.5 24.5v51h96v-84q0 -36 -28.5 -59.5t-65.5 -23.5h-133q-40 0 -67.5 23.5t-27.5 59.5v84z" />
    <glyph glyph-name="ring" unicode="&#x2da;" horiz-adv-x="727" 
d="M256 754v24q0 39 25.5 63t62.5 24h39q37 0 62.5 -24t25.5 -63v-24q0 -39 -25.5 -63t-62.5 -24h-39q-37 0 -62.5 24t-25.5 63zM323 776v-20q0 -16 7.5 -23.5t20.5 -7.5h25q13 0 21 7.5t8 23.5v20q0 16 -8 23.5t-21 7.5h-25q-13 0 -20.5 -7.5t-7.5 -23.5z" />
    <glyph glyph-name="hungarumlaut" unicode="&#x2dd;" horiz-adv-x="510" 
d="M88 672l65 188h155l-70 -188h-150zM288 672l65 188h155l-70 -188h-150z" />
    <glyph glyph-name="dotaccent" unicode="&#x2d9;" horiz-adv-x="510" 
d="M324 662h-139v128h139v-128z" />
    <glyph glyph-name="cedilla" unicode="&#xb8;" horiz-adv-x="637" 
d="M395 10l-68 -198h-155l73 198h150z" />
    <glyph glyph-name="ogonek" unicode="&#x2db;" horiz-adv-x="326" 
d="M119 0h112l-44 -58q-9 -11 -14 -18.5t-5 -16.5t7 -14.5t21 -5.5h35v-77h-85q-55 0 -79.5 21t-24.5 52q0 19 9.5 39t34.5 45z" />
    <glyph glyph-name="commaaccent" unicode="&#xf6c3;" horiz-adv-x="637" 
d="M217 -188q16 48 21 70t5 53v25h152v-25q0 -31 -5 -53t-24 -70h-149z" />
    <glyph glyph-name="agrave" unicode="&#xe0;" horiz-adv-x="685" 
d="M627 325v-325h-411q-90 0 -138 39t-48 102q0 69 47 110.5t113 86.5l170 117h-316v145h263q172 0 246 -72.5t74 -202.5zM270 145h177v199l-181 -141q-17 -13 -24 -19.5t-7 -16.5q0 -11 8 -16.5t27 -5.5zM432 672h-150l-70 188h155z" />
    <glyph glyph-name="aacute" unicode="&#xe1;" horiz-adv-x="685" 
d="M627 325v-325h-411q-90 0 -138 39t-48 102q0 69 47 110.5t113 86.5l170 117h-316v145h263q172 0 246 -72.5t74 -202.5zM270 145h177v199l-181 -141q-17 -13 -24 -19.5t-7 -16.5q0 -11 8 -16.5t27 -5.5zM283 672l65 188h155l-70 -188h-150z" />
    <glyph glyph-name="acircumflex" unicode="&#xe2;" horiz-adv-x="685" 
d="M627 325v-325h-411q-90 0 -138 39t-48 102q0 69 47 110.5t113 86.5l170 117h-316v145h263q172 0 246 -72.5t74 -202.5zM270 145h177v199l-181 -141q-17 -13 -24 -19.5t-7 -16.5q0 -11 8 -16.5t27 -5.5zM407 672l-52 82l-53 -82h-137l101 145q12 16 34 32.5t55 16.5
t54 -15.5t34 -33.5l101 -145h-137z" />
    <glyph glyph-name="atilde" unicode="&#xe3;" horiz-adv-x="685" 
d="M627 325v-325h-411q-90 0 -138 39t-48 102q0 69 47 110.5t113 86.5l170 117h-316v145h263q172 0 246 -72.5t74 -202.5zM270 145h177v199l-181 -141q-17 -13 -24 -19.5t-7 -16.5q0 -11 8 -16.5t27 -5.5zM410 788l18 -13.5t15 -4.5q8 0 12 5.5t4 18.5v62h99v-76
q0 -53 -31 -83.5t-79 -30.5q-34 0 -56.5 11.5t-55.5 36.5l-34 26q-10 8 -17 13t-15 5q-7 0 -12 -5.5t-5 -18.5v-62h-99v78q0 54 32 83t78 29q34 0 56.5 -11.5t55.5 -36.5z" />
    <glyph glyph-name="adieresis" unicode="&#xe4;" horiz-adv-x="685" 
d="M627 325v-325h-411q-90 0 -138 39t-48 102q0 69 47 110.5t113 86.5l170 117h-316v145h263q172 0 246 -72.5t74 -202.5zM270 145h177v199l-181 -141q-17 -13 -24 -19.5t-7 -16.5q0 -11 8 -16.5t27 -5.5zM524 692h-134v128h134v-128zM319 692h-134v128h134v-128z" />
    <glyph glyph-name="aring" unicode="&#xe5;" horiz-adv-x="685" 
d="M627 325v-325h-411q-90 0 -138 39t-48 102q0 69 47 110.5t113 86.5l170 117h-316v145h263q172 0 246 -72.5t74 -202.5zM270 145h177v199l-181 -141q-17 -13 -24 -19.5t-7 -16.5q0 -11 8 -16.5t27 -5.5zM247 754v24q0 39 25.5 63t62.5 24h39q37 0 62.5 -24t25.5 -63v-24
q0 -39 -25.5 -63t-62.5 -24h-39q-37 0 -62.5 24t-25.5 63zM314 776v-20q0 -16 7.5 -23.5t20.5 -7.5h25q13 0 21 7.5t8 23.5v20q0 16 -8 23.5t-21 7.5h-25q-13 0 -20.5 -7.5t-7.5 -23.5z" />
    <glyph glyph-name="ae" unicode="&#xe6;" horiz-adv-x="1120" 
d="M773 0q-82 0 -134.5 20t-85.5 54q-27 -33 -72.5 -53.5t-102.5 -20.5h-162q-90 0 -138 39t-48 102q0 69 46.5 111.5t113.5 85.5l183 117h-329v145h263q89 0 144 -16.5t89 -51.5q34 39 86 57.5t127 18.5h40q84 0 140 -20t88.5 -56.5t45.5 -87.5t13 -113v-87h-429v-4
q0 -57 25 -76t86 -19h304v-145h-293zM815 474h-78q-48 0 -67 -21t-19 -70v-13h249v13q0 49 -19.5 70t-65.5 21zM250 145h148q31 0 45 16.5t14 43.5v147l-211 -149q-17 -12 -24 -19t-7 -17q0 -11 8 -16.5t27 -5.5z" />
    <glyph glyph-name="amacron" unicode="&#x101;" horiz-adv-x="685" 
d="M627 325v-325h-411q-90 0 -138 39t-48 102q0 69 47 110.5t113 86.5l170 117h-316v145h263q172 0 246 -72.5t74 -202.5zM270 145h177v199l-181 -141q-17 -13 -24 -19.5t-7 -16.5q0 -11 8 -16.5t27 -5.5zM485 697h-260v98h260v-98z" />
    <glyph glyph-name="abreve" unicode="&#x103;" horiz-adv-x="685" 
d="M627 325v-325h-411q-90 0 -138 39t-48 102q0 69 47 110.5t113 86.5l170 117h-316v145h263q172 0 246 -72.5t74 -202.5zM270 145h177v199l-181 -141q-17 -13 -24 -19.5t-7 -16.5q0 -11 8 -16.5t27 -5.5zM188 830h98v-51q0 -16 9.5 -24.5t24.5 -8.5h60q15 0 24.5 8.5
t9.5 24.5v51h96v-84q0 -36 -28.5 -59.5t-65.5 -23.5h-133q-40 0 -67.5 23.5t-27.5 59.5v84z" />
    <glyph glyph-name="aogonek" unicode="&#x105;" horiz-adv-x="685" 
d="M627 325v-325h-411q-90 0 -138 39t-48 102q0 69 47 110.5t113 86.5l170 117h-316v145h263q172 0 246 -72.5t74 -202.5zM270 145h177v199l-181 -141q-17 -13 -24 -19.5t-7 -16.5q0 -11 8 -16.5t27 -5.5zM515 0h112l-44 -58q-9 -11 -14 -18.5t-5 -16.5t7 -14.5t21 -5.5h35
v-77h-85q-55 0 -79.5 21t-24.5 52q0 19 9.5 39t34.5 45z" />
    <glyph glyph-name="ccedilla" unicode="&#xe7;" horiz-adv-x="621" 
d="M346 455q-59 0 -86.5 -26.5t-27.5 -80.5v-103q0 -60 27.5 -80t86.5 -20h225v-145h-231q-161 0 -232 70t-71 193v73q0 123 71 193.5t232 70.5h231v-145h-225zM438 20l-68 -198h-155l73 198h150z" />
    <glyph glyph-name="cacute" unicode="&#x107;" horiz-adv-x="621" 
d="M346 455q-59 0 -86.5 -26.5t-27.5 -80.5v-103q0 -60 27.5 -80t86.5 -20h225v-145h-231q-161 0 -232 70t-71 193v73q0 123 71 193.5t232 70.5h231v-145h-225zM279 672l65 188h155l-70 -188h-150z" />
    <glyph glyph-name="cdotaccent" unicode="&#x10b;" horiz-adv-x="621" 
d="M346 455q-59 0 -86.5 -26.5t-27.5 -80.5v-103q0 -60 27.5 -80t86.5 -20h225v-145h-231q-161 0 -232 70t-71 193v73q0 123 71 193.5t232 70.5h231v-145h-225zM420 662h-139v128h139v-128z" />
    <glyph glyph-name="ccaron" unicode="&#x10d;" horiz-adv-x="621" 
d="M346 455q-59 0 -86.5 -26.5t-27.5 -80.5v-103q0 -60 27.5 -80t86.5 -20h225v-145h-231q-161 0 -232 70t-71 193v73q0 123 71 193.5t232 70.5h231v-145h-225zM439 700q-13 -18 -34 -33.5t-54 -15.5t-55 16.5t-34 32.5l-101 145h137l53 -82l52 82h137z" />
    <glyph glyph-name="dcaron" unicode="&#x10f;" horiz-adv-x="918" 
d="M700 750v-750h-426q-111 0 -174 74t-63 196v60q0 122 63 196t174 74h236v150h190zM339 148h171v304h-171q-61 0 -84 -28t-23 -87v-79q0 -59 23 -84.5t84 -25.5zM736 483l42 267h130l-42 -267h-130z" />
    <glyph glyph-name="dcroat" unicode="&#x111;" horiz-adv-x="758" 
d="M387 720h123v30h190v-30h48v-90h-48v-630h-426q-111 0 -174 74t-63 196v60q0 122 63 196t174 74h236v30h-123v90zM339 148h171v304h-171q-61 0 -84 -28t-23 -87v-79q0 -59 23 -84.5t84 -25.5z" />
    <glyph glyph-name="eth" unicode="&#xf0;" horiz-adv-x="719" 
d="M210 594l108 31l-157 125h260l85 -70l173 50v-80l-102 -30q32 -28 52 -52.5t31 -51t15 -58.5t4 -73v-131q0 -141 -73 -200t-243 -59h-49q-159 0 -224 50t-65 157v64q0 110 65.5 157t219.5 47h171q-4 16 -17.5 33t-42.5 40l-30 24l-181 -53v80zM379 138q60 0 82.5 19.5
t22.5 77.5v92h-159q-62 0 -85.5 -15t-23.5 -53v-52q0 -34 20 -51.5t78 -17.5h65z" />
    <glyph glyph-name="egrave" unicode="&#xe8;" horiz-adv-x="699" 
d="M659 244h-429v-4q0 -57 25 -76t86 -19h304v-145h-293q-88 0 -148.5 19.5t-97 55t-53 85.5t-16.5 110v76q0 119 69 190.5t226 71.5h40q84 0 140 -20t88.5 -56.5t45.5 -87.5t13 -113v-87zM394 474h-78q-48 0 -67 -21t-19 -70v-13h249v13q0 49 -19.5 70t-65.5 21zM428 672
h-150l-70 188h155z" />
    <glyph glyph-name="eacute" unicode="&#xe9;" horiz-adv-x="699" 
d="M659 244h-429v-4q0 -57 25 -76t86 -19h304v-145h-293q-88 0 -148.5 19.5t-97 55t-53 85.5t-16.5 110v76q0 119 69 190.5t226 71.5h40q84 0 140 -20t88.5 -56.5t45.5 -87.5t13 -113v-87zM394 474h-78q-48 0 -67 -21t-19 -70v-13h249v13q0 49 -19.5 70t-65.5 21zM280 672
l65 188h155l-70 -188h-150z" />
    <glyph glyph-name="ecircumflex" unicode="&#xea;" horiz-adv-x="699" 
d="M659 244h-429v-4q0 -57 25 -76t86 -19h304v-145h-293q-88 0 -148.5 19.5t-97 55t-53 85.5t-16.5 110v76q0 119 69 190.5t226 71.5h40q84 0 140 -20t88.5 -56.5t45.5 -87.5t13 -113v-87zM394 474h-78q-48 0 -67 -21t-19 -70v-13h249v13q0 49 -19.5 70t-65.5 21zM404 672
l-52 82l-53 -82h-137l101 145q12 16 34 32.5t55 16.5t54 -15.5t34 -33.5l101 -145h-137z" />
    <glyph glyph-name="edieresis" unicode="&#xeb;" horiz-adv-x="699" 
d="M659 244h-429v-4q0 -57 25 -76t86 -19h304v-145h-293q-88 0 -148.5 19.5t-97 55t-53 85.5t-16.5 110v76q0 119 69 190.5t226 71.5h40q84 0 140 -20t88.5 -56.5t45.5 -87.5t13 -113v-87zM394 474h-78q-48 0 -67 -21t-19 -70v-13h249v13q0 49 -19.5 70t-65.5 21zM521 692
h-134v128h134v-128zM316 692h-134v128h134v-128z" />
    <glyph glyph-name="emacron" unicode="&#x113;" horiz-adv-x="699" 
d="M659 244h-429v-4q0 -57 25 -76t86 -19h304v-145h-293q-88 0 -148.5 19.5t-97 55t-53 85.5t-16.5 110v76q0 119 69 190.5t226 71.5h40q84 0 140 -20t88.5 -56.5t45.5 -87.5t13 -113v-87zM394 474h-78q-48 0 -67 -21t-19 -70v-13h249v13q0 49 -19.5 70t-65.5 21zM482 697
h-260v98h260v-98z" />
    <glyph glyph-name="ebreve" unicode="&#x115;" horiz-adv-x="699" 
d="M659 244h-429v-4q0 -57 25 -76t86 -19h304v-145h-293q-88 0 -148.5 19.5t-97 55t-53 85.5t-16.5 110v76q0 119 69 190.5t226 71.5h40q84 0 140 -20t88.5 -56.5t45.5 -87.5t13 -113v-87zM394 474h-78q-48 0 -67 -21t-19 -70v-13h249v13q0 49 -19.5 70t-65.5 21zM185 830
h98v-51q0 -16 9.5 -24.5t24.5 -8.5h60q15 0 24.5 8.5t9.5 24.5v51h96v-84q0 -36 -28.5 -59.5t-65.5 -23.5h-133q-40 0 -67.5 23.5t-27.5 59.5v84z" />
    <glyph glyph-name="edotaccent" unicode="&#x117;" horiz-adv-x="699" 
d="M659 244h-429v-4q0 -57 25 -76t86 -19h304v-145h-293q-88 0 -148.5 19.5t-97 55t-53 85.5t-16.5 110v76q0 119 69 190.5t226 71.5h40q84 0 140 -20t88.5 -56.5t45.5 -87.5t13 -113v-87zM394 474h-78q-48 0 -67 -21t-19 -70v-13h249v13q0 49 -19.5 70t-65.5 21zM421 662
h-139v128h139v-128z" />
    <glyph glyph-name="eogonek" unicode="&#x119;" horiz-adv-x="699" 
d="M659 244h-429v-4q0 -57 25 -76t86 -19h304v-145h-293q-88 0 -148.5 19.5t-97 55t-53 85.5t-16.5 110v76q0 119 69 190.5t226 71.5h40q84 0 140 -20t88.5 -56.5t45.5 -87.5t13 -113v-87zM394 474h-78q-48 0 -67 -21t-19 -70v-13h249v13q0 49 -19.5 70t-65.5 21zM533 0h112
l-44 -58q-9 -11 -14 -18.5t-5 -16.5t7 -14.5t21 -5.5h35v-77h-85q-55 0 -79.5 21t-24.5 52q0 19 9.5 39t34.5 45z" />
    <glyph glyph-name="ecaron" unicode="&#x11b;" horiz-adv-x="699" 
d="M659 244h-429v-4q0 -57 25 -76t86 -19h304v-145h-293q-88 0 -148.5 19.5t-97 55t-53 85.5t-16.5 110v76q0 119 69 190.5t226 71.5h40q84 0 140 -20t88.5 -56.5t45.5 -87.5t13 -113v-87zM394 474h-78q-48 0 -67 -21t-19 -70v-13h249v13q0 49 -19.5 70t-65.5 21zM440 700
q-13 -18 -34 -33.5t-54 -15.5t-55 16.5t-34 32.5l-101 145h137l53 -82l52 82h137z" />
    <glyph glyph-name="ipa:schwa" unicode="&#x259;" horiz-adv-x="699" 
d="M40 356h429v4q0 57 -25 76t-86 19h-304v145h293q88 0 148.5 -19.5t97 -55t53 -85.5t16.5 -110v-76q0 -119 -69 -190.5t-226 -71.5h-40q-84 0 -140 20t-88.5 56.5t-45.5 87.5t-13 113v87zM305 126h78q48 0 67 21t19 70v13h-249v-13q0 -49 19.5 -70t65.5 -21z" />
    <glyph glyph-name="gbreve" unicode="&#x11f;" horiz-adv-x="738" 
d="M365 -150h-287v142h289q77 0 100 18t23 54v13h-221q-106 0 -169 65t-63 180v23q0 119 63 187t169 68h411v-518q0 -125 -73 -178.5t-242 -53.5zM328 213h162v241h-162q-54 0 -75 -21.5t-21 -73.5v-46q0 -51 21 -75.5t75 -24.5zM223 830h98v-51q0 -16 9.5 -24.5t24.5 -8.5
h60q15 0 24.5 8.5t9.5 24.5v51h96v-84q0 -36 -28.5 -59.5t-65.5 -23.5h-133q-40 0 -67.5 23.5t-27.5 59.5v84z" />
    <glyph glyph-name="gdotaccent" unicode="&#x121;" horiz-adv-x="738" 
d="M365 -150h-287v142h289q77 0 100 18t23 54v13h-221q-106 0 -169 65t-63 180v23q0 119 63 187t169 68h411v-518q0 -125 -73 -178.5t-242 -53.5zM328 213h162v241h-162q-54 0 -75 -21.5t-21 -73.5v-46q0 -51 21 -75.5t75 -24.5zM458 662h-139v128h139v-128z" />
    <glyph glyph-name="gcommaaccent" unicode="&#x123;" horiz-adv-x="738" 
d="M365 -150h-287v142h289q77 0 100 18t23 54v13h-221q-106 0 -169 65t-63 180v23q0 119 63 187t169 68h411v-518q0 -125 -73 -178.5t-242 -53.5zM328 213h162v241h-162q-54 0 -75 -21.5t-21 -73.5v-46q0 -51 21 -75.5t75 -24.5z" />
    <glyph glyph-name="hbar" unicode="&#x127;" horiz-adv-x="737" 
d="M58 0v630h-51v90h51v30h190v-30h190v-90h-190v-30h182q131 0 190 -66t59 -179v-355h-190v360q0 46 -15.5 65.5t-59.5 19.5h-166v-445h-190z" />
    <glyph glyph-name="dotlessi" unicode="&#x131;" horiz-adv-x="330" 
d="M70 0v600h190v-600h-190z" />
    <glyph glyph-name="igrave" unicode="&#xec;" horiz-adv-x="330" 
d="M70 0v600h190v-600h-190zM241 672h-150l-70 188h155z" />
    <glyph glyph-name="iacute" unicode="&#xed;" horiz-adv-x="330" 
d="M70 0v600h190v-600h-190zM93 672l65 188h155l-70 -188h-150z" />
    <glyph glyph-name="icircumflex" unicode="&#xee;" horiz-adv-x="330" 
d="M70 0v600h190v-600h-190zM217 672l-52 82l-53 -82h-137l101 145q12 16 34 32.5t55 16.5t54 -15.5t34 -33.5l101 -145h-137z" />
    <glyph glyph-name="idieresis" unicode="&#xef;" horiz-adv-x="330" 
d="M70 0v600h190v-600h-190zM334 692h-134v128h134v-128zM129 692h-134v128h134v-128z" />
    <glyph glyph-name="itilde" unicode="&#x129;" horiz-adv-x="330" 
d="M70 0v600h190v-600h-190zM220 788l18 -13.5t15 -4.5q8 0 12 5.5t4 18.5v62h99v-76q0 -53 -31 -83.5t-79 -30.5q-34 0 -56.5 11.5t-55.5 36.5l-34 26q-10 8 -17 13t-15 5q-7 0 -12 -5.5t-5 -18.5v-62h-99v78q0 54 32 83t78 29q34 0 56.5 -11.5t55.5 -36.5z" />
    <glyph glyph-name="imacron" unicode="&#x12b;" horiz-adv-x="330" 
d="M70 0v600h190v-600h-190zM295 697h-260v98h260v-98z" />
    <glyph glyph-name="ibreve" unicode="&#x12d;" horiz-adv-x="330" 
d="M70 0v600h190v-600h-190zM-2 830h98v-51q0 -16 9.5 -24.5t24.5 -8.5h60q15 0 24.5 8.5t9.5 24.5v51h96v-84q0 -36 -28.5 -59.5t-65.5 -23.5h-133q-40 0 -67.5 23.5t-27.5 59.5v84z" />
    <glyph glyph-name="iogonek" unicode="&#x12f;" horiz-adv-x="330" 
d="M260 652h-190v118h190v-118zM70 0v600h190v-600h-190zM133 0h112l-44 -58q-9 -11 -14 -18.5t-5 -16.5t7 -14.5t21 -5.5h35v-77h-85q-55 0 -79.5 21t-24.5 52q0 19 9.5 39t34.5 45z" />
    <glyph glyph-name="kcommaaccent" unicode="&#x137;" horiz-adv-x="713" 
d="M58 0v750h190v-365h21q28 0 42.5 5t27.5 21l148 189h218l-248 -295l256 -305h-226l-156 197q-16 20 -28.5 24t-37.5 4h-17v-225h-190zM271 -188q16 48 21 70t5 53v25h152v-25q0 -31 -5 -53t-24 -70h-149z" />
    <glyph glyph-name="kra" unicode="&#x138;" horiz-adv-x="713" 
d="M58 0v600h190v-215h21q28 0 42.5 5t27.5 21l148 189h218l-248 -295l256 -305h-226l-156 197q-16 20 -28.5 24t-37.5 4h-17v-225h-190z" />
    <glyph glyph-name="lacute" unicode="&#x13a;" horiz-adv-x="330" 
d="M70 750h190v-750h-190v750zM93 822l65 188h155l-70 -188h-150z" />
    <glyph glyph-name="lcommaaccent" unicode="&#x13c;" horiz-adv-x="330" 
d="M70 750h190v-750h-190v750zM63 -188q16 48 21 70t5 53v25h152v-25q0 -31 -5 -53t-24 -70h-149z" />
    <glyph glyph-name="lcaron" unicode="&#x13e;" horiz-adv-x="478" 
d="M70 750h190v-750h-190v750zM306 483l42 267h130l-42 -267h-130z" />
    <glyph glyph-name="ldot" unicode="&#x140;" horiz-adv-x="474" 
d="M70 750h190v-750h-190v750zM454 332h-139v128h139v-128z" />
    <glyph glyph-name="lslash" unicode="&#x142;" horiz-adv-x="330" 
d="M10 350l60 39v361h190v-239l60 39v-110l-60 -39v-401h-190v279l-60 -39v110z" />
    <glyph glyph-name="ntilde" unicode="&#xf1;" horiz-adv-x="737" 
d="M58 0v600h372q131 0 190 -66t59 -179v-355h-190v360q0 46 -15.5 65.5t-59.5 19.5h-166v-445h-190zM423 788l18 -13.5t15 -4.5q8 0 12 5.5t4 18.5v62h99v-76q0 -53 -31 -83.5t-79 -30.5q-34 0 -56.5 11.5t-55.5 36.5l-34 26q-10 8 -17 13t-15 5q-7 0 -12 -5.5t-5 -18.5
v-62h-99v78q0 54 32 83t78 29q34 0 56.5 -11.5t55.5 -36.5z" />
    <glyph glyph-name="nacute" unicode="&#x144;" horiz-adv-x="737" 
d="M58 0v600h372q131 0 190 -66t59 -179v-355h-190v360q0 46 -15.5 65.5t-59.5 19.5h-166v-445h-190zM297 672l65 188h155l-70 -188h-150z" />
    <glyph glyph-name="ncommaaccent" unicode="&#x146;" horiz-adv-x="737" 
d="M58 0v600h372q131 0 190 -66t59 -179v-355h-190v360q0 46 -15.5 65.5t-59.5 19.5h-166v-445h-190zM267 -188q16 48 21 70t5 53v25h152v-25q0 -31 -5 -53t-24 -70h-149z" />
    <glyph glyph-name="ncaron" unicode="&#x148;" horiz-adv-x="737" 
d="M58 0v600h372q131 0 190 -66t59 -179v-355h-190v360q0 46 -15.5 65.5t-59.5 19.5h-166v-445h-190zM457 700q-13 -18 -34 -33.5t-54 -15.5t-55 16.5t-34 32.5l-101 145h137l53 -82l52 82h137z" />
    <glyph glyph-name="eng" unicode="&#x14b;" horiz-adv-x="737" 
d="M58 0v600h372q131 0 190 -66t59 -179v-308q0 -99 -53.5 -148t-146.5 -49h-80v129h46q21 0 32.5 11.5t11.5 40.5v329q0 46 -15.5 65.5t-59.5 19.5h-166v-445h-190z" />
    <glyph glyph-name="ograve" unicode="&#xf2;" horiz-adv-x="727" 
d="M690 336v-72q0 -125 -75.5 -199.5t-215.5 -74.5h-70q-140 0 -216 74.5t-76 199.5v72q0 125 76 199.5t216 74.5h70q140 0 215.5 -74.5t75.5 -199.5zM495 352q0 58 -21.5 86.5t-76.5 28.5h-66q-55 0 -77 -28.5t-22 -86.5v-103q0 -59 22 -87.5t77 -28.5h66q55 0 76.5 28.5
t21.5 87.5v103zM440 672h-150l-70 188h155z" />
    <glyph glyph-name="oacute" unicode="&#xf3;" horiz-adv-x="727" 
d="M690 336v-72q0 -125 -75.5 -199.5t-215.5 -74.5h-70q-140 0 -216 74.5t-76 199.5v72q0 125 76 199.5t216 74.5h70q140 0 215.5 -74.5t75.5 -199.5zM495 352q0 58 -21.5 86.5t-76.5 28.5h-66q-55 0 -77 -28.5t-22 -86.5v-103q0 -59 22 -87.5t77 -28.5h66q55 0 76.5 28.5
t21.5 87.5v103zM292 672l65 188h155l-70 -188h-150z" />
    <glyph glyph-name="ocircumflex" unicode="&#xf4;" horiz-adv-x="727" 
d="M690 336v-72q0 -125 -75.5 -199.5t-215.5 -74.5h-70q-140 0 -216 74.5t-76 199.5v72q0 125 76 199.5t216 74.5h70q140 0 215.5 -74.5t75.5 -199.5zM495 352q0 58 -21.5 86.5t-76.5 28.5h-66q-55 0 -77 -28.5t-22 -86.5v-103q0 -59 22 -87.5t77 -28.5h66q55 0 76.5 28.5
t21.5 87.5v103zM416 672l-52 82l-53 -82h-137l101 145q12 16 34 32.5t55 16.5t54 -15.5t34 -33.5l101 -145h-137z" />
    <glyph glyph-name="otilde" unicode="&#xf5;" horiz-adv-x="727" 
d="M690 336v-72q0 -125 -75.5 -199.5t-215.5 -74.5h-70q-140 0 -216 74.5t-76 199.5v72q0 125 76 199.5t216 74.5h70q140 0 215.5 -74.5t75.5 -199.5zM495 352q0 58 -21.5 86.5t-76.5 28.5h-66q-55 0 -77 -28.5t-22 -86.5v-103q0 -59 22 -87.5t77 -28.5h66q55 0 76.5 28.5
t21.5 87.5v103zM418 788l18 -13.5t15 -4.5q8 0 12 5.5t4 18.5v62h99v-76q0 -53 -31 -83.5t-79 -30.5q-34 0 -56.5 11.5t-55.5 36.5l-34 26q-10 8 -17 13t-15 5q-7 0 -12 -5.5t-5 -18.5v-62h-99v78q0 54 32 83t78 29q34 0 56.5 -11.5t55.5 -36.5z" />
    <glyph glyph-name="odieresis" unicode="&#xf6;" horiz-adv-x="727" 
d="M690 336v-72q0 -125 -75.5 -199.5t-215.5 -74.5h-70q-140 0 -216 74.5t-76 199.5v72q0 125 76 199.5t216 74.5h70q140 0 215.5 -74.5t75.5 -199.5zM495 352q0 58 -21.5 86.5t-76.5 28.5h-66q-55 0 -77 -28.5t-22 -86.5v-103q0 -59 22 -87.5t77 -28.5h66q55 0 76.5 28.5
t21.5 87.5v103zM533 692h-134v128h134v-128zM328 692h-134v128h134v-128z" />
    <glyph glyph-name="omacron" unicode="&#x14d;" horiz-adv-x="727" 
d="M690 336v-72q0 -125 -75.5 -199.5t-215.5 -74.5h-70q-140 0 -216 74.5t-76 199.5v72q0 125 76 199.5t216 74.5h70q140 0 215.5 -74.5t75.5 -199.5zM495 352q0 58 -21.5 86.5t-76.5 28.5h-66q-55 0 -77 -28.5t-22 -86.5v-103q0 -59 22 -87.5t77 -28.5h66q55 0 76.5 28.5
t21.5 87.5v103zM494 697h-260v98h260v-98z" />
    <glyph glyph-name="obreve" unicode="&#x14f;" horiz-adv-x="727" 
d="M690 336v-72q0 -125 -75.5 -199.5t-215.5 -74.5h-70q-140 0 -216 74.5t-76 199.5v72q0 125 76 199.5t216 74.5h70q140 0 215.5 -74.5t75.5 -199.5zM495 352q0 58 -21.5 86.5t-76.5 28.5h-66q-55 0 -77 -28.5t-22 -86.5v-103q0 -59 22 -87.5t77 -28.5h66q55 0 76.5 28.5
t21.5 87.5v103zM197 830h98v-51q0 -16 9.5 -24.5t24.5 -8.5h60q15 0 24.5 8.5t9.5 24.5v51h96v-84q0 -36 -28.5 -59.5t-65.5 -23.5h-133q-40 0 -67.5 23.5t-27.5 59.5v84z" />
    <glyph glyph-name="ohungarumlaut" unicode="&#x151;" horiz-adv-x="727" 
d="M690 336v-72q0 -125 -75.5 -199.5t-215.5 -74.5h-70q-140 0 -216 74.5t-76 199.5v72q0 125 76 199.5t216 74.5h70q140 0 215.5 -74.5t75.5 -199.5zM495 352q0 58 -21.5 86.5t-76.5 28.5h-66q-55 0 -77 -28.5t-22 -86.5v-103q0 -59 22 -87.5t77 -28.5h66q55 0 76.5 28.5
t21.5 87.5v103zM197 672l65 188h155l-70 -188h-150zM397 672l65 188h155l-70 -188h-150z" />
    <glyph glyph-name="oslash" unicode="&#xf8;" horiz-adv-x="727" 
d="M35 0l69 73q-33 35 -50 83.5t-17 107.5v72q0 125 76 199.5t216 74.5h70q50 0 92.5 -10t76.5 -29l27 29h96l-68 -72q33 -35 50 -84t17 -108v-72q0 -125 -75.5 -199.5t-215.5 -74.5h-70q-51 0 -94.5 10.5t-77.5 30.5l-29 -31h-93zM232 249q0 -10 0.5 -19t1.5 -17l224 240
q-11 7 -26.5 10.5t-34.5 3.5h-66q-55 0 -77 -28.5t-22 -86.5v-103zM495 352q0 10 -0.5 19.5t-1.5 17.5l-225 -240q11 -8 26.5 -12t36.5 -4h66q55 0 76.5 28.5t21.5 87.5v103z" />
    <glyph glyph-name="oe" unicode="&#x153;" horiz-adv-x="1157" 
d="M690 336v-72q0 -125 -75.5 -199.5t-215.5 -74.5h-70q-140 0 -216 74.5t-76 199.5v72q0 125 76 199.5t216 74.5h70q140 0 215.5 -74.5t75.5 -199.5zM495 352q0 58 -21.5 86.5t-76.5 28.5h-66q-55 0 -77 -28.5t-22 -86.5v-103q0 -59 22 -87.5t77 -28.5h66q55 0 76.5 28.5
t21.5 87.5v103zM1117 244h-429v-4q0 -57 25 -76t86 -19h304v-145h-293q-88 0 -148.5 19.5t-97 55t-53 85.5t-16.5 110v76q0 119 69 190.5t226 71.5h40q84 0 140 -20t88.5 -56.5t45.5 -87.5t13 -113v-87zM852 474h-78q-48 0 -67 -21t-19 -70v-13h249v13q0 49 -19.5 70
t-65.5 21z" />
    <glyph glyph-name="racute" unicode="&#x155;" horiz-adv-x="482" 
d="M58 377q0 43 13 83t41 71t72.5 50t106.5 19h176v-145h-133q-51 0 -68.5 -18t-17.5 -62v-375h-190v377zM169 672l65 188h155l-70 -188h-150z" />
    <glyph glyph-name="rcommaaccent" unicode="&#x157;" horiz-adv-x="482" 
d="M58 377q0 43 13 83t41 71t72.5 50t106.5 19h176v-145h-133q-51 0 -68.5 -18t-17.5 -62v-375h-190v377zM139 -188q16 48 21 70t5 53v25h152v-25q0 -31 -5 -53t-24 -70h-149z" />
    <glyph glyph-name="rcaron" unicode="&#x159;" horiz-adv-x="482" 
d="M58 377q0 43 13 83t41 71t72.5 50t106.5 19h176v-145h-133q-51 0 -68.5 -18t-17.5 -62v-375h-190v377zM329 700q-13 -18 -34 -33.5t-54 -15.5t-55 16.5t-34 32.5l-101 145h137l53 -82l52 82h137z" />
    <glyph glyph-name="sacute" unicode="&#x15b;" horiz-adv-x="637" 
d="M388 210l-163 32q-90 18 -137.5 63t-47.5 120q0 35 13.5 67t42 56t73 38t105.5 14h298v-145h-313q-30 0 -40 -9t-10 -20q0 -12 9 -21t31 -13l148 -29q110 -22 157.5 -65.5t47.5 -115.5q0 -81 -61.5 -131.5t-186.5 -50.5h-294v145h326q32 0 41.5 9t9.5 23q0 15 -13.5 22
t-35.5 11zM247 672l65 188h155l-70 -188h-150z" />
    <glyph glyph-name="scedilla" unicode="&#x15f;" horiz-adv-x="637" 
d="M388 210l-163 32q-90 18 -137.5 63t-47.5 120q0 35 13.5 67t42 56t73 38t105.5 14h298v-145h-313q-30 0 -40 -9t-10 -20q0 -12 9 -21t31 -13l148 -29q110 -22 157.5 -65.5t47.5 -115.5q0 -81 -61.5 -131.5t-186.5 -50.5h-294v145h326q32 0 41.5 9t9.5 23q0 15 -13.5 22
t-35.5 11zM396 10l-68 -198h-155l73 198h150z" />
    <glyph glyph-name="scommaaccent" unicode="&#x219;" horiz-adv-x="637" 
d="M388 210l-163 32q-90 18 -137.5 63t-47.5 120q0 35 13.5 67t42 56t73 38t105.5 14h298v-145h-313q-30 0 -40 -9t-10 -20q0 -12 9 -21t31 -13l148 -29q110 -22 157.5 -65.5t47.5 -115.5q0 -81 -61.5 -131.5t-186.5 -50.5h-294v145h326q32 0 41.5 9t9.5 23q0 15 -13.5 22
t-35.5 11zM218 -188q16 48 21 70t5 53v25h152v-25q0 -31 -5 -53t-24 -70h-149z" />
    <glyph glyph-name="scaron" unicode="&#x161;" horiz-adv-x="637" 
d="M388 210l-163 32q-90 18 -137.5 63t-47.5 120q0 35 13.5 67t42 56t73 38t105.5 14h298v-145h-313q-30 0 -40 -9t-10 -20q0 -12 9 -21t31 -13l148 -29q110 -22 157.5 -65.5t47.5 -115.5q0 -81 -61.5 -131.5t-186.5 -50.5h-294v145h326q32 0 41.5 9t9.5 23q0 15 -13.5 22
t-35.5 11zM407 700q-13 -18 -34 -33.5t-54 -15.5t-55 16.5t-34 32.5l-101 145h137l53 -82l52 82h137z" />
    <glyph glyph-name="tcedilla" unicode="&#x163;" horiz-adv-x="542" 
d="M20 455v145h97v122h175v-122h205v-145h-205v-243q0 -38 16 -52.5t52 -14.5h137v-145h-159q-124 0 -177.5 52.5t-53.5 159.5v243h-87zM418 10l-68 -198h-155l73 198h150z" />
    <glyph glyph-name="tcommaaccent" unicode="&#x21b;" horiz-adv-x="542" 
d="M20 455v145h97v122h175v-122h205v-145h-205v-243q0 -38 16 -52.5t52 -14.5h137v-145h-159q-124 0 -177.5 52.5t-53.5 159.5v243h-87zM240 -188q16 48 21 70t5 53v25h152v-25q0 -31 -5 -53t-24 -70h-149z" />
    <glyph glyph-name="tcaron" unicode="&#x165;" horiz-adv-x="542" 
d="M338 649l42 150h120l-42 -150h-120zM20 455v145h97v122h175v-122h205v-145h-205v-243q0 -38 16 -52.5t52 -14.5h137v-145h-159q-124 0 -177.5 52.5t-53.5 159.5v243h-87z" />
    <glyph glyph-name="tbar" unicode="&#x167;" horiz-adv-x="542" 
d="M47 350h60v105h-87v145h97v122h175v-122h205v-145h-205v-105h146v-90h-146v-48q0 -38 16 -52.5t52 -14.5h137v-145h-159q-124 0 -177.5 52.5t-53.5 159.5v48h-60v90z" />
    <glyph glyph-name="thorn" unicode="&#xfe;" horiz-adv-x="758" 
d="M58 -150v900h190v-150h236q111 0 174 -74t63 -196v-60q0 -122 -63 -196t-174 -74h-236v-150h-190zM419 452h-171v-304h171q61 0 84 28t23 87v79q0 59 -23 84.5t-84 25.5z" />
    <glyph glyph-name="ugrave" unicode="&#xf9;" horiz-adv-x="737" 
d="M489 155v445h190v-600h-372q-131 0 -190 66t-59 179v355h190v-360q0 -46 15.5 -65.5t59.5 -19.5h166zM445 672h-150l-70 188h155z" />
    <glyph glyph-name="uacute" unicode="&#xfa;" horiz-adv-x="737" 
d="M489 155v445h190v-600h-372q-131 0 -190 66t-59 179v355h190v-360q0 -46 15.5 -65.5t59.5 -19.5h166zM297 672l65 188h155l-70 -188h-150z" />
    <glyph glyph-name="ucircumflex" unicode="&#xfb;" horiz-adv-x="737" 
d="M489 155v445h190v-600h-372q-131 0 -190 66t-59 179v355h190v-360q0 -46 15.5 -65.5t59.5 -19.5h166zM421 672l-52 82l-53 -82h-137l101 145q12 16 34 32.5t55 16.5t54 -15.5t34 -33.5l101 -145h-137z" />
    <glyph glyph-name="udieresis" unicode="&#xfc;" horiz-adv-x="737" 
d="M489 155v445h190v-600h-372q-131 0 -190 66t-59 179v355h190v-360q0 -46 15.5 -65.5t59.5 -19.5h166zM538 692h-134v128h134v-128zM333 692h-134v128h134v-128z" />
    <glyph glyph-name="utilde" unicode="&#x169;" horiz-adv-x="737" 
d="M489 155v445h190v-600h-372q-131 0 -190 66t-59 179v355h190v-360q0 -46 15.5 -65.5t59.5 -19.5h166zM423 788l18 -13.5t15 -4.5q8 0 12 5.5t4 18.5v62h99v-76q0 -53 -31 -83.5t-79 -30.5q-34 0 -56.5 11.5t-55.5 36.5l-34 26q-10 8 -17 13t-15 5q-7 0 -12 -5.5t-5 -18.5
v-62h-99v78q0 54 32 83t78 29q34 0 56.5 -11.5t55.5 -36.5z" />
    <glyph glyph-name="umacron" unicode="&#x16b;" horiz-adv-x="737" 
d="M489 155v445h190v-600h-372q-131 0 -190 66t-59 179v355h190v-360q0 -46 15.5 -65.5t59.5 -19.5h166zM499 697h-260v98h260v-98z" />
    <glyph glyph-name="ubreve" unicode="&#x16d;" horiz-adv-x="737" 
d="M489 155v445h190v-600h-372q-131 0 -190 66t-59 179v355h190v-360q0 -46 15.5 -65.5t59.5 -19.5h166zM202 830h98v-51q0 -16 9.5 -24.5t24.5 -8.5h60q15 0 24.5 8.5t9.5 24.5v51h96v-84q0 -36 -28.5 -59.5t-65.5 -23.5h-133q-40 0 -67.5 23.5t-27.5 59.5v84z" />
    <glyph glyph-name="uring" unicode="&#x16f;" horiz-adv-x="737" 
d="M489 155v445h190v-600h-372q-131 0 -190 66t-59 179v355h190v-360q0 -46 15.5 -65.5t59.5 -19.5h166zM261 754v24q0 39 25.5 63t62.5 24h39q37 0 62.5 -24t25.5 -63v-24q0 -39 -25.5 -63t-62.5 -24h-39q-37 0 -62.5 24t-25.5 63zM328 776v-20q0 -16 7.5 -23.5t20.5 -7.5
h25q13 0 21 7.5t8 23.5v20q0 16 -8 23.5t-21 7.5h-25q-13 0 -20.5 -7.5t-7.5 -23.5z" />
    <glyph glyph-name="uhungarumlaut" unicode="&#x171;" horiz-adv-x="737" 
d="M489 155v445h190v-600h-372q-131 0 -190 66t-59 179v355h190v-360q0 -46 15.5 -65.5t59.5 -19.5h166zM202 672l65 188h155l-70 -188h-150zM402 672l65 188h155l-70 -188h-150z" />
    <glyph glyph-name="uogonek" unicode="&#x173;" horiz-adv-x="737" 
d="M489 155v445h190v-600h-372q-131 0 -190 66t-59 179v355h190v-360q0 -46 15.5 -65.5t59.5 -19.5h166zM567 0h112l-44 -58q-9 -11 -14 -18.5t-5 -16.5t7 -14.5t21 -5.5h35v-77h-85q-55 0 -79.5 21t-24.5 52q0 19 9.5 39t34.5 45z" />
    <glyph glyph-name="wcircumflex" unicode="&#x175;" horiz-adv-x="1070" 
d="M536 613q48 0 82 -14t57 -36.5t35.5 -52.5t17.5 -62l44 -287q1 -10 6 -17t14 -7t13 7t5 17l66 439h179l-75 -459q-12 -71 -61.5 -111t-119.5 -40q-90 0 -141.5 46t-63.5 122l-43 275q-1 9 -4.5 14t-12.5 5t-12 -5t-4 -15l-36 -275q-10 -75 -59 -121t-128 -46
q-76 0 -126 38t-65 115l-89 457h191l70 -438q2 -13 6.5 -19t12.5 -6q9 0 13.5 6.5t5.5 17.5l40 289q4 31 17 60t35 52t54.5 37t75.5 14zM583 672l-52 82l-53 -82h-137l101 145q12 16 34 32.5t55 16.5t54 -15.5t34 -33.5l101 -145h-137z" />
    <glyph glyph-name="yacute" unicode="&#xfd;" horiz-adv-x="720" 
d="M351 241q4 -11 10 -14.5t11 -3.5q6 0 10.5 3.5t8.5 14.5l117 359h202l-215 -582q-27 -73 -91.5 -120.5t-172.5 -47.5h-164v159h181q36 0 54.5 16.5t31.5 54.5l7 20h-48q-41 0 -67.5 18t-41.5 55l-174 427h209zM288 672l65 188h155l-70 -188h-150z" />
    <glyph glyph-name="ydieresis" unicode="&#xff;" horiz-adv-x="720" 
d="M351 241q4 -11 10 -14.5t11 -3.5q6 0 10.5 3.5t8.5 14.5l117 359h202l-215 -582q-27 -73 -91.5 -120.5t-172.5 -47.5h-164v159h181q36 0 54.5 16.5t31.5 54.5l7 20h-48q-41 0 -67.5 18t-41.5 55l-174 427h209zM529 692h-134v128h134v-128zM324 692h-134v128h134v-128z
" />
    <glyph glyph-name="ycircumflex" unicode="&#x177;" horiz-adv-x="720" 
d="M351 241q4 -11 10 -14.5t11 -3.5q6 0 10.5 3.5t8.5 14.5l117 359h202l-215 -582q-27 -73 -91.5 -120.5t-172.5 -47.5h-164v159h181q36 0 54.5 16.5t31.5 54.5l7 20h-48q-41 0 -67.5 18t-41.5 55l-174 427h209zM412 672l-52 82l-53 -82h-137l101 145q12 16 34 32.5
t55 16.5t54 -15.5t34 -33.5l101 -145h-137z" />
    <glyph glyph-name="zacute" unicode="&#x17a;" horiz-adv-x="669" 
d="M625 0h-372q-107 0 -158.5 47t-51.5 117q0 71 47 114t119 65l211 66q13 4 19.5 10t6.5 15q0 10 -7 15.5t-22 5.5h-354v145h350q119 0 168.5 -44t49.5 -116q0 -75 -42.5 -116.5t-114.5 -63.5l-219 -66q-13 -4 -20 -10t-7 -16q0 -11 7.5 -17t21.5 -6h368v-145zM268 672
l65 188h155l-70 -188h-150z" />
    <glyph glyph-name="zdotaccent" unicode="&#x17c;" horiz-adv-x="669" 
d="M625 0h-372q-107 0 -158.5 47t-51.5 117q0 71 47 114t119 65l211 66q13 4 19.5 10t6.5 15q0 10 -7 15.5t-22 5.5h-354v145h350q119 0 168.5 -44t49.5 -116q0 -75 -42.5 -116.5t-114.5 -63.5l-219 -66q-13 -4 -20 -10t-7 -16q0 -11 7.5 -17t21.5 -6h368v-145zM409 662
h-139v128h139v-128z" />
    <glyph glyph-name="zcaron" unicode="&#x17e;" horiz-adv-x="649" 
d="M625 0h-372q-107 0 -158.5 47t-51.5 117q0 71 47 114t119 65l211 66q13 4 19.5 10t6.5 15q0 10 -7 15.5t-22 5.5h-354v145h350q119 0 168.5 -44t49.5 -116q0 -75 -42.5 -116.5t-114.5 -63.5l-219 -66q-13 -4 -20 -10t-7 -16q0 -11 7.5 -17t21.5 -6h368v-145zM418 700
q-13 -18 -34 -33.5t-54 -15.5t-55 16.5t-34 32.5l-101 145h137l53 -82l52 82h137z" />
    <glyph glyph-name="Agrave" unicode="&#xc0;" horiz-adv-x="890" 
d="M677 0l-59 157h-351l-60 -157h-202l249 605q29 71 71.5 114t117.5 43q78 0 122.5 -42.5t72.5 -112.5l247 -607h-208zM426 569l-99 -257h232l-97 257q-3 7 -6.5 12.5t-11.5 5.5q-7 0 -11 -5t-7 -13zM522 822h-150l-70 188h155z" />
    <glyph glyph-name="Aacute" unicode="&#xc1;" horiz-adv-x="890" 
d="M677 0l-59 157h-351l-60 -157h-202l249 605q29 71 71.5 114t117.5 43q78 0 122.5 -42.5t72.5 -112.5l247 -607h-208zM426 569l-99 -257h232l-97 257q-3 7 -6.5 12.5t-11.5 5.5q-7 0 -11 -5t-7 -13zM373 822l65 188h155l-70 -188h-150z" />
    <glyph glyph-name="Acircumflex" unicode="&#xc2;" horiz-adv-x="890" 
d="M677 0l-59 157h-351l-60 -157h-202l249 605q29 71 71.5 114t117.5 43q78 0 122.5 -42.5t72.5 -112.5l247 -607h-208zM426 569l-99 -257h232l-97 257q-3 7 -6.5 12.5t-11.5 5.5q-7 0 -11 -5t-7 -13zM497 822l-52 82l-53 -82h-137l101 145q12 16 34 32.5t55 16.5t54 -15.5
t34 -33.5l101 -145h-137z" />
    <glyph glyph-name="Atilde" unicode="&#xc3;" horiz-adv-x="890" 
d="M677 0l-59 157h-351l-60 -157h-202l249 605q29 71 71.5 114t117.5 43q78 0 122.5 -42.5t72.5 -112.5l247 -607h-208zM426 569l-99 -257h232l-97 257q-3 7 -6.5 12.5t-11.5 5.5q-7 0 -11 -5t-7 -13zM500 938l18 -13.5t15 -4.5q8 0 12 5.5t4 18.5v62h99v-76
q0 -53 -31 -83.5t-79 -30.5q-34 0 -56.5 11.5t-55.5 36.5l-34 26q-10 8 -17 13t-15 5q-7 0 -12 -5.5t-5 -18.5v-62h-99v78q0 54 32 83t78 29q34 0 56.5 -11.5t55.5 -36.5z" />
    <glyph glyph-name="Adieresis" unicode="&#xc4;" horiz-adv-x="890" 
d="M677 0l-59 157h-351l-60 -157h-202l249 605q29 71 71.5 114t117.5 43q78 0 122.5 -42.5t72.5 -112.5l247 -607h-208zM426 569l-99 -257h232l-97 257q-3 7 -6.5 12.5t-11.5 5.5q-7 0 -11 -5t-7 -13zM614 842h-134v128h134v-128zM409 842h-134v128h134v-128z" />
    <glyph glyph-name="Aring" unicode="&#xc5;" horiz-adv-x="890" 
d="M677 0l-59 157h-351l-60 -157h-202l249 605q29 71 71.5 114t117.5 43q78 0 122.5 -42.5t72.5 -112.5l247 -607h-208zM426 569l-99 -257h232l-97 257q-3 7 -6.5 12.5t-11.5 5.5q-7 0 -11 -5t-7 -13zM338 904v24q0 39 25.5 63t62.5 24h39q37 0 62.5 -24t25.5 -63v-24
q0 -39 -25.5 -63t-62.5 -24h-39q-37 0 -62.5 24t-25.5 63zM405 926v-20q0 -16 7.5 -23.5t20.5 -7.5h25q13 0 21 7.5t8 23.5v20q0 16 -8 23.5t-21 7.5h-25q-13 0 -20.5 -7.5t-7.5 -23.5z" />
    <glyph glyph-name="AE" unicode="&#xc6;" horiz-adv-x="1283" 
d="M620 0v750h626v-165h-431v-130h431v-160h-431v-130h431v-165h-626zM5 0l348 588q50 84 113.5 123t160.5 39h193v-750h-187v157h-314l-89 -157h-225zM529 529l-123 -217h227v268h-33q-22 0 -38.5 -11t-32.5 -40z" />
    <glyph glyph-name="Amacron" unicode="&#x100;" horiz-adv-x="890" 
d="M677 0l-59 157h-351l-60 -157h-202l249 605q29 71 71.5 114t117.5 43q78 0 122.5 -42.5t72.5 -112.5l247 -607h-208zM426 569l-99 -257h232l-97 257q-3 7 -6.5 12.5t-11.5 5.5q-7 0 -11 -5t-7 -13zM575 847h-260v98h260v-98z" />
    <glyph glyph-name="Abreve" unicode="&#x102;" horiz-adv-x="890" 
d="M677 0l-59 157h-351l-60 -157h-202l249 605q29 71 71.5 114t117.5 43q78 0 122.5 -42.5t72.5 -112.5l247 -607h-208zM426 569l-99 -257h232l-97 257q-3 7 -6.5 12.5t-11.5 5.5q-7 0 -11 -5t-7 -13zM279 980h98v-51q0 -16 9.5 -24.5t24.5 -8.5h60q15 0 24.5 8.5t9.5 24.5
v51h96v-84q0 -36 -28.5 -59.5t-65.5 -23.5h-133q-40 0 -67.5 23.5t-27.5 59.5v84z" />
    <glyph glyph-name="Aogonek" unicode="&#x104;" horiz-adv-x="890" 
d="M677 0l-59 157h-351l-60 -157h-202l249 605q29 71 71.5 114t117.5 43q78 0 122.5 -42.5t72.5 -112.5l247 -607h-208zM426 569l-99 -257h232l-97 257q-3 7 -6.5 12.5t-11.5 5.5q-7 0 -11 -5t-7 -13zM773 0h112l-44 -58q-9 -11 -14 -18.5t-5 -16.5t7 -14.5t21 -5.5h35v-77
h-85q-55 0 -79.5 21t-24.5 52q0 19 9.5 39t34.5 45z" />
    <glyph glyph-name="Ccedilla" unicode="&#xc7;" horiz-adv-x="721" 
d="M691 165v-165h-290q-89 0 -157 22.5t-113 64t-68 101t-23 132.5v110q0 73 23 132.5t68 101t113 64t157 22.5h285v-165h-275q-93 0 -127 -36.5t-34 -120.5v-106q0 -84 35 -120.5t131 -36.5h275zM487 10l-68 -198h-155l73 198h150z" />
    <glyph glyph-name="Cacute" unicode="&#x106;" horiz-adv-x="721" 
d="M691 165v-165h-290q-89 0 -157 22.5t-113 64t-68 101t-23 132.5v110q0 73 23 132.5t68 101t113 64t157 22.5h285v-165h-275q-93 0 -127 -36.5t-34 -120.5v-106q0 -84 35 -120.5t131 -36.5h275zM339 822l65 188h155l-70 -188h-150z" />
    <glyph glyph-name="Cdotaccent" unicode="&#x10a;" horiz-adv-x="721" 
d="M691 165v-165h-290q-89 0 -157 22.5t-113 64t-68 101t-23 132.5v110q0 73 23 132.5t68 101t113 64t157 22.5h285v-165h-275q-93 0 -127 -36.5t-34 -120.5v-106q0 -84 35 -120.5t131 -36.5h275zM480 812h-139v128h139v-128z" />
    <glyph glyph-name="Ccaron" unicode="&#x10c;" horiz-adv-x="721" 
d="M691 165v-165h-290q-89 0 -157 22.5t-113 64t-68 101t-23 132.5v110q0 73 23 132.5t68 101t113 64t157 22.5h285v-165h-275q-93 0 -127 -36.5t-34 -120.5v-106q0 -84 35 -120.5t131 -36.5h275zM500 850q-13 -18 -34 -33.5t-54 -15.5t-55 16.5t-34 32.5l-101 145h137
l53 -82l52 82h137z" />
    <glyph glyph-name="Dcaron" unicode="&#x10e;" horiz-adv-x="850" 
d="M454 750q89 0 156.5 -22.5t111.5 -64t66 -101t22 -132.5v-110q0 -73 -22 -132.5t-66 -101t-111.5 -64t-156.5 -22.5h-389v750h389zM441 592h-176v-434h171q99 0 131.5 37t32.5 127v107q0 90 -32 126.5t-127 36.5zM514 850q-13 -18 -34 -33.5t-54 -15.5t-55 16.5t-34 32.5
l-101 145h137l53 -82l52 82h137z" />
    <glyph glyph-name="Dcroat" unicode="&#x110;" horiz-adv-x="873" 
d="M10 430h78v320h389q89 0 156.5 -22.5t111.5 -64t66 -101t22 -132.5v-110q0 -73 -22 -132.5t-66 -101t-111.5 -64t-156.5 -22.5h-389v320h-78v110zM464 592h-176v-162h183v-110h-183v-162h171q99 0 131.5 37t32.5 127v107q0 90 -32 126.5t-127 36.5z" />
    <glyph glyph-name="Eth" unicode="&#xd0;" horiz-adv-x="873" 
d="M10 430h78v320h389q89 0 156.5 -22.5t111.5 -64t66 -101t22 -132.5v-110q0 -73 -22 -132.5t-66 -101t-111.5 -64t-156.5 -22.5h-389v320h-78v110zM464 592h-176v-162h183v-110h-183v-162h171q99 0 131.5 37t32.5 127v107q0 90 -32 126.5t-127 36.5z" />
    <glyph glyph-name="Egrave" unicode="&#xc8;" horiz-adv-x="748" 
d="M65 0v750h626v-165h-431v-130h431v-160h-431v-130h431v-165h-626zM471 822h-150l-70 188h155z" />
    <glyph glyph-name="Eacute" unicode="&#xc9;" horiz-adv-x="748" 
d="M65 0v750h626v-165h-431v-130h431v-160h-431v-130h431v-165h-626zM322 822l65 188h155l-70 -188h-150z" />
    <glyph glyph-name="Ecircumflex" unicode="&#xca;" horiz-adv-x="748" 
d="M65 0v750h626v-165h-431v-130h431v-160h-431v-130h431v-165h-626zM446 822l-52 82l-53 -82h-137l101 145q12 16 34 32.5t55 16.5t54 -15.5t34 -33.5l101 -145h-137z" />
    <glyph glyph-name="Edieresis" unicode="&#xcb;" horiz-adv-x="748" 
d="M65 0v750h626v-165h-431v-130h431v-160h-431v-130h431v-165h-626zM563 842h-134v128h134v-128zM358 842h-134v128h134v-128z" />
    <glyph glyph-name="Emacron" unicode="&#x112;" horiz-adv-x="748" 
d="M65 0v750h626v-165h-431v-130h431v-160h-431v-130h431v-165h-626zM524 847h-260v98h260v-98z" />
    <glyph glyph-name="Ebreve" unicode="&#x114;" horiz-adv-x="748" 
d="M65 0v750h626v-165h-431v-130h431v-160h-431v-130h431v-165h-626zM228 980h98v-51q0 -16 9.5 -24.5t24.5 -8.5h60q15 0 24.5 8.5t9.5 24.5v51h96v-84q0 -36 -28.5 -59.5t-65.5 -23.5h-133q-40 0 -67.5 23.5t-27.5 59.5v84z" />
    <glyph glyph-name="Edotaccent" unicode="&#x116;" horiz-adv-x="748" 
d="M65 0v750h626v-165h-431v-130h431v-160h-431v-130h431v-165h-626zM463 812h-139v128h139v-128z" />
    <glyph glyph-name="Eogonek" unicode="&#x118;" horiz-adv-x="748" 
d="M65 0v750h626v-165h-431v-130h431v-160h-431v-130h431v-165h-626zM579 0h112l-44 -58q-9 -11 -14 -18.5t-5 -16.5t7 -14.5t21 -5.5h35v-77h-85q-55 0 -79.5 21t-24.5 52q0 19 9.5 39t34.5 45z" />
    <glyph glyph-name="Ecaron" unicode="&#x11a;" horiz-adv-x="748" 
d="M65 0v750h626v-165h-431v-130h431v-160h-431v-130h431v-165h-626zM483 850q-13 -18 -34 -33.5t-54 -15.5t-55 16.5t-34 32.5l-101 145h137l53 -82l52 82h137z" />
    <glyph glyph-name="Schwa" unicode="&#x18f;" horiz-adv-x="812" 
d="M40 454h529v41q0 57 -25 76t-86 19h-404v160h403q88 0 148.5 -19.5t97 -55t53 -85.5t16.5 -110v-168q0 -71 -16.5 -128.5t-52 -98t-91.5 -63t-135 -22.5h-150q-84 0 -140 22.5t-88.5 62.5t-45.5 97t-13 125v147zM325 159h158q48 0 67 21t19 70v53h-329v-53
q0 -49 19.5 -70t65.5 -21z" />
    <glyph glyph-name="Gbreve" unicode="&#x11e;" horiz-adv-x="855" 
d="M791 750v-165h-380q-93 0 -127 -36.5t-34 -120.5v-113q0 -89 33.5 -126t114.5 -37h122q56 0 80.5 16.5t24.5 52.5v66h-202v158h382v-237q0 -112 -75.5 -165t-216.5 -53h-109q-183 0 -273.5 88t-90.5 245v107q0 73 23 132.5t68 101t113 64t157 22.5h390zM285 980h98v-51
q0 -16 9.5 -24.5t24.5 -8.5h60q15 0 24.5 8.5t9.5 24.5v51h96v-84q0 -36 -28.5 -59.5t-65.5 -23.5h-133q-40 0 -67.5 23.5t-27.5 59.5v84z" />
    <glyph glyph-name="Gdotaccent" unicode="&#x120;" horiz-adv-x="855" 
d="M791 750v-165h-380q-93 0 -127 -36.5t-34 -120.5v-113q0 -89 33.5 -126t114.5 -37h122q56 0 80.5 16.5t24.5 52.5v66h-202v158h382v-237q0 -112 -75.5 -165t-216.5 -53h-109q-183 0 -273.5 88t-90.5 245v107q0 73 23 132.5t68 101t113 64t157 22.5h390zM520 812h-139v128
h139v-128z" />
    <glyph glyph-name="Gcommaaccent" unicode="&#x122;" horiz-adv-x="855" 
d="M791 750v-165h-380q-93 0 -127 -36.5t-34 -120.5v-113q0 -89 33.5 -126t114.5 -37h122q56 0 80.5 16.5t24.5 52.5v66h-202v158h382v-237q0 -112 -75.5 -165t-216.5 -53h-109q-183 0 -273.5 88t-90.5 245v107q0 73 23 132.5t68 101t113 64t157 22.5h390zM350 -188
q16 48 21 70t5 53v25h152v-25q0 -31 -5 -53t-24 -70h-149z" />
    <glyph glyph-name="Hbar" unicode="&#x126;" horiz-adv-x="865" 
d="M65 0v550h-58v110h58v90h200v-90h355v90h200v-90h58v-110h-58v-550h-200v291h-355v-291h-200zM265 466h355v84h-355v-84z" />
    <glyph glyph-name="Igrave" unicode="&#xcc;" horiz-adv-x="340" 
d="M70 0v750h200v-750h-200zM246 822h-150l-70 188h155z" />
    <glyph glyph-name="Iacute" unicode="&#xcd;" horiz-adv-x="340" 
d="M70 0v750h200v-750h-200zM98 822l65 188h155l-70 -188h-150z" />
    <glyph glyph-name="Icircumflex" unicode="&#xce;" horiz-adv-x="340" 
d="M70 0v750h200v-750h-200zM222 822l-52 82l-53 -82h-137l101 145q12 16 34 32.5t55 16.5t54 -15.5t34 -33.5l101 -145h-137z" />
    <glyph glyph-name="Idieresis" unicode="&#xcf;" horiz-adv-x="340" 
d="M70 0v750h200v-750h-200zM339 842h-134v128h134v-128zM134 842h-134v128h134v-128z" />
    <glyph glyph-name="Itilde" unicode="&#x128;" horiz-adv-x="340" 
d="M70 0v750h200v-750h-200zM225 938l18 -13.5t15 -4.5q8 0 12 5.5t4 18.5v62h99v-76q0 -53 -31 -83.5t-79 -30.5q-34 0 -56.5 11.5t-55.5 36.5l-34 26q-10 8 -17 13t-15 5q-7 0 -12 -5.5t-5 -18.5v-62h-99v78q0 54 32 83t78 29q34 0 56.5 -11.5t55.5 -36.5z" />
    <glyph glyph-name="Imacron" unicode="&#x12a;" horiz-adv-x="340" 
d="M70 0v750h200v-750h-200zM300 847h-260v98h260v-98z" />
    <glyph glyph-name="Ibreve" unicode="&#x12c;" horiz-adv-x="340" 
d="M70 0v750h200v-750h-200zM3 980h98v-51q0 -16 9.5 -24.5t24.5 -8.5h60q15 0 24.5 8.5t9.5 24.5v51h96v-84q0 -36 -28.5 -59.5t-65.5 -23.5h-133q-40 0 -67.5 23.5t-27.5 59.5v84z" />
    <glyph glyph-name="Iogonek" unicode="&#x12e;" horiz-adv-x="340" 
d="M70 0v750h200v-750h-200zM138 0h112l-44 -58q-9 -11 -14 -18.5t-5 -16.5t7 -14.5t21 -5.5h35v-77h-85q-55 0 -79.5 21t-24.5 52q0 19 9.5 39t34.5 45z" />
    <glyph glyph-name="Idotaccent" unicode="&#x130;" horiz-adv-x="340" 
d="M70 0v750h200v-750h-200zM239 812h-139v128h139v-128z" />
    <glyph glyph-name="Kcommaaccent" unicode="&#x136;" horiz-adv-x="805" 
d="M60 0v750h200v-288h37q31 0 47 8t37 36l181 244h225l-285 -366l293 -384h-231l-176 238q-25 34 -42.5 45t-48.5 11h-37v-294h-200zM312 -188q16 48 21 70t5 53v25h152v-25q0 -31 -5 -53t-24 -70h-149z" />
    <glyph glyph-name="Lacute" unicode="&#x139;" horiz-adv-x="676" 
d="M65 0v750h200v-585h381v-165h-581zM94 822l65 188h155l-70 -188h-150z" />
    <glyph glyph-name="Lcommaaccent" unicode="&#x13b;" horiz-adv-x="676" 
d="M65 0v750h200v-585h381v-165h-581zM244 -188q16 48 21 70t5 53v25h152v-25q0 -31 -5 -53t-24 -70h-149z" />
    <glyph glyph-name="Lcaron" unicode="&#x13d;" horiz-adv-x="676" 
d="M65 0v750h200v-585h381v-165h-581zM336 483l42 267h130l-42 -267h-130z" />
    <glyph glyph-name="Ldot" unicode="&#x13f;" horiz-adv-x="676" 
d="M65 0v750h200v-585h381v-165h-581zM574 392h-139v128h139v-128z" />
    <glyph glyph-name="Lslash" unicode="&#x141;" horiz-adv-x="734" 
d="M108 0v276l-98 -36v110l98 36v364h200v-292l253 92v-110l-253 -92v-183h381v-165h-581z" />
    <glyph glyph-name="Ntilde" unicode="&#xd1;" horiz-adv-x="971" 
d="M65 0v550q0 51 17 91t44.5 66.5t65 40.5t77.5 14q96 0 150.5 -51.5t88.5 -135.5l163 -398q3 -7 6.5 -13.5t11.5 -6.5q10 0 13.5 5.5t3.5 15.5v572h200v-551q0 -53 -17 -93t-44.5 -66.5t-65 -39.5t-77.5 -13q-96 0 -149.5 50t-89.5 137l-163 398q-3 7 -6.5 13.5t-11.5 6.5
q-10 0 -13.5 -5.5t-3.5 -15.5v-571h-200zM600 938l18 -13.5t15 -4.5q8 0 12 5.5t4 18.5v62h99v-76q0 -53 -31 -83.5t-79 -30.5q-34 0 -56.5 11.5t-55.5 36.5l-34 26q-10 8 -17 13t-15 5q-7 0 -12 -5.5t-5 -18.5v-62h-99v78q0 54 32 83t78 29q34 0 56.5 -11.5t55.5 -36.5z
" />
    <glyph glyph-name="Nacute" unicode="&#x143;" horiz-adv-x="971" 
d="M65 0v550q0 51 17 91t44.5 66.5t65 40.5t77.5 14q96 0 150.5 -51.5t88.5 -135.5l163 -398q3 -7 6.5 -13.5t11.5 -6.5q10 0 13.5 5.5t3.5 15.5v572h200v-551q0 -53 -17 -93t-44.5 -66.5t-65 -39.5t-77.5 -13q-96 0 -149.5 50t-89.5 137l-163 398q-3 7 -6.5 13.5t-11.5 6.5
q-10 0 -13.5 -5.5t-3.5 -15.5v-571h-200zM473 822l65 188h155l-70 -188h-150z" />
    <glyph glyph-name="Ncommaaccent" unicode="&#x145;" horiz-adv-x="971" 
d="M65 0v550q0 51 17 91t44.5 66.5t65 40.5t77.5 14q96 0 150.5 -51.5t88.5 -135.5l163 -398q3 -7 6.5 -13.5t11.5 -6.5q10 0 13.5 5.5t3.5 15.5v572h200v-551q0 -53 -17 -93t-44.5 -66.5t-65 -39.5t-77.5 -13q-96 0 -149.5 50t-89.5 137l-163 398q-3 7 -6.5 13.5t-11.5 6.5
q-10 0 -13.5 -5.5t-3.5 -15.5v-571h-200zM314 -188q16 48 21 70t5 53v25h152v-25q0 -31 -5 -53t-24 -70h-149z" />
    <glyph glyph-name="Ncaron" unicode="&#x147;" horiz-adv-x="971" 
d="M65 0v550q0 51 17 91t44.5 66.5t65 40.5t77.5 14q96 0 150.5 -51.5t88.5 -135.5l163 -398q3 -7 6.5 -13.5t11.5 -6.5q10 0 13.5 5.5t3.5 15.5v572h200v-551q0 -53 -17 -93t-44.5 -66.5t-65 -39.5t-77.5 -13q-96 0 -149.5 50t-89.5 137l-163 398q-3 7 -6.5 13.5t-11.5 6.5
q-10 0 -13.5 -5.5t-3.5 -15.5v-571h-200zM634 850q-13 -18 -34 -33.5t-54 -15.5t-55 16.5t-34 32.5l-101 145h137l53 -82l52 82h137z" />
    <glyph glyph-name="Eng" unicode="&#x14a;" horiz-adv-x="971" 
d="M65 0v550q0 51 17 91t44.5 66.5t65 40.5t77.5 14q96 0 148.5 -52.5t90.5 -134.5l198 -428v603h200v-612q0 -134 -75.5 -211t-244.5 -77h-207v150h192l-271 562q-4 7 -8.5 13.5t-11.5 6.5q-9 0 -12 -5.5t-3 -15.5v-561h-200z" />
    <glyph glyph-name="Ograve" unicode="&#xd2;" horiz-adv-x="874" 
d="M834 323q0 -75 -22.5 -136.5t-67.5 -105t-114 -67.5t-160 -24h-66q-91 0 -160 24t-114 67.5t-67.5 105t-22.5 136.5v104q0 75 22.5 136.5t67.5 105t114 67.5t160 24h66q91 0 160 -24t114 -67.5t67.5 -105t22.5 -136.5v-104zM250 315q0 -89 33.5 -126t114.5 -37h78
q81 0 114.5 37t33.5 126v122q0 89 -33.5 125.5t-114.5 36.5h-78q-81 0 -114.5 -36.5t-33.5 -125.5v-122zM514 822h-150l-70 188h155z" />
    <glyph glyph-name="Oacute" unicode="&#xd3;" horiz-adv-x="874" 
d="M834 323q0 -75 -22.5 -136.5t-67.5 -105t-114 -67.5t-160 -24h-66q-91 0 -160 24t-114 67.5t-67.5 105t-22.5 136.5v104q0 75 22.5 136.5t67.5 105t114 67.5t160 24h66q91 0 160 -24t114 -67.5t67.5 -105t22.5 -136.5v-104zM250 315q0 -89 33.5 -126t114.5 -37h78
q81 0 114.5 37t33.5 126v122q0 89 -33.5 125.5t-114.5 36.5h-78q-81 0 -114.5 -36.5t-33.5 -125.5v-122zM365 822l65 188h155l-70 -188h-150z" />
    <glyph glyph-name="Ocircumflex" unicode="&#xd4;" horiz-adv-x="874" 
d="M834 323q0 -75 -22.5 -136.5t-67.5 -105t-114 -67.5t-160 -24h-66q-91 0 -160 24t-114 67.5t-67.5 105t-22.5 136.5v104q0 75 22.5 136.5t67.5 105t114 67.5t160 24h66q91 0 160 -24t114 -67.5t67.5 -105t22.5 -136.5v-104zM250 315q0 -89 33.5 -126t114.5 -37h78
q81 0 114.5 37t33.5 126v122q0 89 -33.5 125.5t-114.5 36.5h-78q-81 0 -114.5 -36.5t-33.5 -125.5v-122zM489 822l-52 82l-53 -82h-137l101 145q12 16 34 32.5t55 16.5t54 -15.5t34 -33.5l101 -145h-137z" />
    <glyph glyph-name="Otilde" unicode="&#xd5;" horiz-adv-x="874" 
d="M834 323q0 -75 -22.5 -136.5t-67.5 -105t-114 -67.5t-160 -24h-66q-91 0 -160 24t-114 67.5t-67.5 105t-22.5 136.5v104q0 75 22.5 136.5t67.5 105t114 67.5t160 24h66q91 0 160 -24t114 -67.5t67.5 -105t22.5 -136.5v-104zM250 315q0 -89 33.5 -126t114.5 -37h78
q81 0 114.5 37t33.5 126v122q0 89 -33.5 125.5t-114.5 36.5h-78q-81 0 -114.5 -36.5t-33.5 -125.5v-122zM492 938l18 -13.5t15 -4.5q8 0 12 5.5t4 18.5v62h99v-76q0 -53 -31 -83.5t-79 -30.5q-34 0 -56.5 11.5t-55.5 36.5l-34 26q-10 8 -17 13t-15 5q-7 0 -12 -5.5t-5 -18.5
v-62h-99v78q0 54 32 83t78 29q34 0 56.5 -11.5t55.5 -36.5z" />
    <glyph glyph-name="Odieresis" unicode="&#xd6;" horiz-adv-x="874" 
d="M834 323q0 -75 -22.5 -136.5t-67.5 -105t-114 -67.5t-160 -24h-66q-91 0 -160 24t-114 67.5t-67.5 105t-22.5 136.5v104q0 75 22.5 136.5t67.5 105t114 67.5t160 24h66q91 0 160 -24t114 -67.5t67.5 -105t22.5 -136.5v-104zM250 315q0 -89 33.5 -126t114.5 -37h78
q81 0 114.5 37t33.5 126v122q0 89 -33.5 125.5t-114.5 36.5h-78q-81 0 -114.5 -36.5t-33.5 -125.5v-122zM606 842h-134v128h134v-128zM401 842h-134v128h134v-128z" />
    <glyph glyph-name="Omacron" unicode="&#x14c;" horiz-adv-x="874" 
d="M834 323q0 -75 -22.5 -136.5t-67.5 -105t-114 -67.5t-160 -24h-66q-91 0 -160 24t-114 67.5t-67.5 105t-22.5 136.5v104q0 75 22.5 136.5t67.5 105t114 67.5t160 24h66q91 0 160 -24t114 -67.5t67.5 -105t22.5 -136.5v-104zM250 315q0 -89 33.5 -126t114.5 -37h78
q81 0 114.5 37t33.5 126v122q0 89 -33.5 125.5t-114.5 36.5h-78q-81 0 -114.5 -36.5t-33.5 -125.5v-122zM567 847h-260v98h260v-98z" />
    <glyph glyph-name="Obreve" unicode="&#x14e;" horiz-adv-x="874" 
d="M834 323q0 -75 -22.5 -136.5t-67.5 -105t-114 -67.5t-160 -24h-66q-91 0 -160 24t-114 67.5t-67.5 105t-22.5 136.5v104q0 75 22.5 136.5t67.5 105t114 67.5t160 24h66q91 0 160 -24t114 -67.5t67.5 -105t22.5 -136.5v-104zM250 315q0 -89 33.5 -126t114.5 -37h78
q81 0 114.5 37t33.5 126v122q0 89 -33.5 125.5t-114.5 36.5h-78q-81 0 -114.5 -36.5t-33.5 -125.5v-122zM271 980h98v-51q0 -16 9.5 -24.5t24.5 -8.5h60q15 0 24.5 8.5t9.5 24.5v51h96v-84q0 -36 -28.5 -59.5t-65.5 -23.5h-133q-40 0 -67.5 23.5t-27.5 59.5v84z" />
    <glyph glyph-name="Ohungarumlaut" unicode="&#x150;" horiz-adv-x="874" 
d="M834 323q0 -75 -22.5 -136.5t-67.5 -105t-114 -67.5t-160 -24h-66q-91 0 -160 24t-114 67.5t-67.5 105t-22.5 136.5v104q0 75 22.5 136.5t67.5 105t114 67.5t160 24h66q91 0 160 -24t114 -67.5t67.5 -105t22.5 -136.5v-104zM250 315q0 -89 33.5 -126t114.5 -37h78
q81 0 114.5 37t33.5 126v122q0 89 -33.5 125.5t-114.5 36.5h-78q-81 0 -114.5 -36.5t-33.5 -125.5v-122zM270 822l65 188h155l-70 -188h-150zM470 822l65 188h155l-70 -188h-150z" />
    <glyph glyph-name="Oslash" unicode="&#xd8;" horiz-adv-x="874" 
d="M35 0l86 91q-40 43 -60.5 102t-20.5 130v104q0 75 22.5 136.5t67.5 105t114 67.5t160 24h66q71 0 128.5 -14.5t100.5 -41.5l44 46h96l-86 -91q40 -43 60.5 -102t20.5 -130v-104q0 -75 -22.5 -136.5t-67.5 -105t-114 -67.5t-160 -24h-66q-72 0 -130 15t-101 43l-45 -48
h-93zM250 315q0 -23 2.5 -42.5t6.5 -35.5l318 337q-17 13 -42 19t-59 6h-78q-81 0 -114.5 -36.5t-33.5 -125.5v-122zM398 152h78q81 0 114.5 37t33.5 126v122q0 23 -2 42t-6 35l-320 -337q18 -13 43 -19t59 -6z" />
    <glyph glyph-name="OE" unicode="&#x152;" horiz-adv-x="1228" 
d="M40 430q0 73 22 132.5t66 101t111.5 64t156.5 22.5h775v-165h-386v-130h386v-160h-386v-130h386v-165h-775q-89 0 -156.5 22.5t-111.5 64t-66 101t-22 132.5v110zM414 158h171v434h-176q-95 0 -127 -36.5t-32 -126.5v-107q0 -90 32.5 -127t131.5 -37z" />
    <glyph glyph-name="Racute" unicode="&#x154;" horiz-adv-x="808" 
d="M785 0h-224l-199 229q-25 29 -35 57t-10 50q0 49 30 74.5t81 25.5h99q33 0 49 18.5t16 46.5v33q0 30 -15.5 46t-51.5 16h-260v-596h-200v750h440q145 0 214 -48t69 -155v-43q0 -47 -19 -83.5t-50.5 -61.5t-74 -38.5t-89.5 -13.5h-24zM322 822l65 188h155l-70 -188h-150z
" />
    <glyph glyph-name="Rcommaaccent" unicode="&#x156;" horiz-adv-x="808" 
d="M785 0h-224l-199 229q-25 29 -35 57t-10 50q0 49 30 74.5t81 25.5h99q33 0 49 18.5t16 46.5v33q0 30 -15.5 46t-51.5 16h-260v-596h-200v750h440q145 0 214 -48t69 -155v-43q0 -47 -19 -83.5t-50.5 -61.5t-74 -38.5t-89.5 -13.5h-24zM293 -188q16 48 21 70t5 53v25h152
v-25q0 -31 -5 -53t-24 -70h-149z" />
    <glyph glyph-name="Rcaron" unicode="&#x158;" horiz-adv-x="808" 
d="M785 0h-224l-199 229q-25 29 -35 57t-10 50q0 49 30 74.5t81 25.5h99q33 0 49 18.5t16 46.5v33q0 30 -15.5 46t-51.5 16h-260v-596h-200v750h440q145 0 214 -48t69 -155v-43q0 -47 -19 -83.5t-50.5 -61.5t-74 -38.5t-89.5 -13.5h-24zM483 850q-13 -18 -34 -33.5
t-54 -15.5t-55 16.5t-34 32.5l-101 145h137l53 -82l52 82h137z" />
    <glyph glyph-name="Sacute" unicode="&#x15a;" horiz-adv-x="752" 
d="M434 279l-180 53q-104 31 -154 85t-50 129q0 94 66 149t186 55h385v-165h-386q-32 0 -45 -11.5t-13 -25.5q0 -18 12.5 -29.5t40.5 -19.5l183 -53q116 -34 174.5 -83.5t58.5 -138.5q0 -46 -17.5 -87t-53 -71t-90 -48t-127.5 -18h-354v165h384q38 0 53 15t15 35
q0 24 -18.5 36.5t-69.5 27.5zM334 822l65 188h155l-70 -188h-150z" />
    <glyph glyph-name="Scedilla" unicode="&#x15e;" horiz-adv-x="752" 
d="M434 279l-180 53q-104 31 -154 85t-50 129q0 94 66 149t186 55h385v-165h-386q-32 0 -45 -11.5t-13 -25.5q0 -18 12.5 -29.5t40.5 -19.5l183 -53q116 -34 174.5 -83.5t58.5 -138.5q0 -46 -17.5 -87t-53 -71t-90 -48t-127.5 -18h-354v165h384q38 0 53 15t15 35
q0 24 -18.5 36.5t-69.5 27.5zM453 10l-68 -198h-155l73 198h150z" />
    <glyph glyph-name="Scommaaccent" unicode="&#x218;" horiz-adv-x="752" 
d="M434 279l-180 53q-104 31 -154 85t-50 129q0 94 66 149t186 55h385v-165h-386q-32 0 -45 -11.5t-13 -25.5q0 -18 12.5 -29.5t40.5 -19.5l183 -53q116 -34 174.5 -83.5t58.5 -138.5q0 -46 -17.5 -87t-53 -71t-90 -48t-127.5 -18h-354v165h384q38 0 53 15t15 35
q0 24 -18.5 36.5t-69.5 27.5zM275 -188q16 48 21 70t5 53v25h152v-25q0 -31 -5 -53t-24 -70h-149z" />
    <glyph glyph-name="Scaron" unicode="&#x160;" horiz-adv-x="752" 
d="M434 279l-180 53q-104 31 -154 85t-50 129q0 94 66 149t186 55h385v-165h-386q-32 0 -45 -11.5t-13 -25.5q0 -18 12.5 -29.5t40.5 -19.5l183 -53q116 -34 174.5 -83.5t58.5 -138.5q0 -46 -17.5 -87t-53 -71t-90 -48t-127.5 -18h-354v165h384q38 0 53 15t15 35
q0 24 -18.5 36.5t-69.5 27.5zM495 850q-13 -18 -34 -33.5t-54 -15.5t-55 16.5t-34 32.5l-101 145h137l53 -82l52 82h137z" />
    <glyph glyph-name="Tcedilla" unicode="&#x162;" horiz-adv-x="820" 
d="M310 0v585h-285v165h770v-165h-285v-585h-200zM486 10l-68 -198h-155l73 198h150z" />
    <glyph glyph-name="Tcommaaccent" unicode="&#x21a;" horiz-adv-x="820" 
d="M310 0v585h-285v165h770v-165h-285v-585h-200zM309 -188q16 48 21 70t5 53v25h152v-25q0 -31 -5 -53t-24 -70h-149z" />
    <glyph glyph-name="Tcaron" unicode="&#x164;" horiz-adv-x="820" 
d="M310 0v585h-285v165h770v-165h-285v-585h-200zM499 850q-13 -18 -34 -33.5t-54 -15.5t-55 16.5t-34 32.5l-101 145h137l53 -82l52 82h137z" />
    <glyph glyph-name="Tbar" unicode="&#x166;" horiz-adv-x="820" 
d="M310 0v270h-183v110h183v205h-285v165h770v-165h-285v-205h183v-110h-183v-270h-200z" />
    <glyph glyph-name="Thorn" unicode="&#xde;" horiz-adv-x="778" 
d="M65 750h200v-100h175q155 0 229 -49t74 -163v-74q0 -122 -74 -168t-229 -46h-175v-150h-200v750zM446 503h-181v-206h181q54 0 75.5 19.5t21.5 53.5v59q0 35 -21.5 54.5t-75.5 19.5z" />
    <glyph glyph-name="Ugrave" unicode="&#xd9;" horiz-adv-x="850" 
d="M372 -13q-168 0 -240 75t-72 209v479h200v-498q0 -54 24.5 -79.5t84.5 -25.5h114q56 0 81.5 25.5t25.5 79.5v498h200v-479q0 -67 -15.5 -120t-51 -89.5t-95.5 -55.5t-148 -19h-108zM512 822h-150l-70 188h155z" />
    <glyph glyph-name="Uacute" unicode="&#xda;" horiz-adv-x="850" 
d="M372 -13q-168 0 -240 75t-72 209v479h200v-498q0 -54 24.5 -79.5t84.5 -25.5h114q56 0 81.5 25.5t25.5 79.5v498h200v-479q0 -67 -15.5 -120t-51 -89.5t-95.5 -55.5t-148 -19h-108zM363 822l65 188h155l-70 -188h-150z" />
    <glyph glyph-name="Ucircumflex" unicode="&#xdb;" horiz-adv-x="850" 
d="M372 -13q-168 0 -240 75t-72 209v479h200v-498q0 -54 24.5 -79.5t84.5 -25.5h114q56 0 81.5 25.5t25.5 79.5v498h200v-479q0 -67 -15.5 -120t-51 -89.5t-95.5 -55.5t-148 -19h-108zM487 822l-52 82l-53 -82h-137l101 145q12 16 34 32.5t55 16.5t54 -15.5t34 -33.5
l101 -145h-137z" />
    <glyph glyph-name="Udieresis" unicode="&#xdc;" horiz-adv-x="850" 
d="M372 -13q-168 0 -240 75t-72 209v479h200v-498q0 -54 24.5 -79.5t84.5 -25.5h114q56 0 81.5 25.5t25.5 79.5v498h200v-479q0 -67 -15.5 -120t-51 -89.5t-95.5 -55.5t-148 -19h-108zM604 842h-134v128h134v-128zM399 842h-134v128h134v-128z" />
    <glyph glyph-name="Utilde" unicode="&#x168;" horiz-adv-x="850" 
d="M372 -13q-168 0 -240 75t-72 209v479h200v-498q0 -54 24.5 -79.5t84.5 -25.5h114q56 0 81.5 25.5t25.5 79.5v498h200v-479q0 -67 -15.5 -120t-51 -89.5t-95.5 -55.5t-148 -19h-108zM490 938l18 -13.5t15 -4.5q8 0 12 5.5t4 18.5v62h99v-76q0 -53 -31 -83.5t-79 -30.5
q-34 0 -56.5 11.5t-55.5 36.5l-34 26q-10 8 -17 13t-15 5q-7 0 -12 -5.5t-5 -18.5v-62h-99v78q0 54 32 83t78 29q34 0 56.5 -11.5t55.5 -36.5z" />
    <glyph glyph-name="Umacron" unicode="&#x16a;" horiz-adv-x="850" 
d="M372 -13q-168 0 -240 75t-72 209v479h200v-498q0 -54 24.5 -79.5t84.5 -25.5h114q56 0 81.5 25.5t25.5 79.5v498h200v-479q0 -67 -15.5 -120t-51 -89.5t-95.5 -55.5t-148 -19h-108zM565 847h-260v98h260v-98z" />
    <glyph glyph-name="Ubreve" unicode="&#x16c;" horiz-adv-x="850" 
d="M372 -13q-168 0 -240 75t-72 209v479h200v-498q0 -54 24.5 -79.5t84.5 -25.5h114q56 0 81.5 25.5t25.5 79.5v498h200v-479q0 -67 -15.5 -120t-51 -89.5t-95.5 -55.5t-148 -19h-108zM269 980h98v-51q0 -16 9.5 -24.5t24.5 -8.5h60q15 0 24.5 8.5t9.5 24.5v51h96v-84
q0 -36 -28.5 -59.5t-65.5 -23.5h-133q-40 0 -67.5 23.5t-27.5 59.5v84z" />
    <glyph glyph-name="Uring" unicode="&#x16e;" horiz-adv-x="850" 
d="M372 -13q-168 0 -240 75t-72 209v479h200v-498q0 -54 24.5 -79.5t84.5 -25.5h114q56 0 81.5 25.5t25.5 79.5v498h200v-479q0 -67 -15.5 -120t-51 -89.5t-95.5 -55.5t-148 -19h-108zM328 904v24q0 39 25.5 63t62.5 24h39q37 0 62.5 -24t25.5 -63v-24q0 -39 -25.5 -63
t-62.5 -24h-39q-37 0 -62.5 24t-25.5 63zM395 926v-20q0 -16 7.5 -23.5t20.5 -7.5h25q13 0 21 7.5t8 23.5v20q0 16 -8 23.5t-21 7.5h-25q-13 0 -20.5 -7.5t-7.5 -23.5z" />
    <glyph glyph-name="Uhungarumlaut" unicode="&#x170;" horiz-adv-x="850" 
d="M372 -13q-168 0 -240 75t-72 209v479h200v-498q0 -54 24.5 -79.5t84.5 -25.5h114q56 0 81.5 25.5t25.5 79.5v498h200v-479q0 -67 -15.5 -120t-51 -89.5t-95.5 -55.5t-148 -19h-108zM268 822l65 188h155l-70 -188h-150zM468 822l65 188h155l-70 -188h-150z" />
    <glyph glyph-name="Uogonek" unicode="&#x172;" horiz-adv-x="850" 
d="M372 -13q-168 0 -240 75t-72 209v479h200v-498q0 -54 24.5 -79.5t84.5 -25.5h114q56 0 81.5 25.5t25.5 79.5v498h200v-479q0 -67 -15.5 -120t-51 -89.5t-95.5 -55.5t-148 -19h-108zM393 0h112l-44 -58q-9 -11 -14 -18.5t-5 -16.5t7 -14.5t21 -5.5h35v-77h-85
q-55 0 -79.5 21t-24.5 52q0 19 9.5 39t34.5 45z" />
    <glyph glyph-name="Wcircumflex" unicode="&#x174;" horiz-adv-x="1210" 
d="M215 750l86 -571q1 -10 6 -17t15 -7q9 0 13.5 6.5t5.5 15.5l64 379q16 93 65.5 149.5t144.5 56.5q96 0 139.5 -57t59.5 -148l64 -379q2 -11 7 -17t13 -6q13 0 17.5 7t5.5 18l84 570h200l-104 -580q-16 -88 -62.5 -134t-132.5 -46q-96 0 -149 51t-67 138l-65 394
q-1 9 -5 14t-12 5t-12 -5t-5 -14l-67 -396q-15 -87 -62.5 -137t-138.5 -50q-96 0 -144.5 54.5t-63.5 138.5l-100 567h200zM662 822l-52 82l-53 -82h-137l101 145q12 16 34 32.5t55 16.5t54 -15.5t34 -33.5l101 -145h-137z" />
    <glyph glyph-name="Yacute" unicode="&#xdd;" horiz-adv-x="800" 
d="M300 0v261l-290 489h224l145 -260q8 -15 22.5 -15.5t23.5 15.5l156 260h209l-290 -489v-261h-200zM328 822l65 188h155l-70 -188h-150z" />
    <glyph glyph-name="Ycircumflex" unicode="&#x176;" horiz-adv-x="800" 
d="M300 0v261l-290 489h224l145 -260q8 -15 22.5 -15.5t23.5 15.5l156 260h209l-290 -489v-261h-200zM452 822l-52 82l-53 -82h-137l101 145q12 16 34 32.5t55 16.5t54 -15.5t34 -33.5l101 -145h-137z" />
    <glyph glyph-name="Ydieresis" unicode="&#x178;" horiz-adv-x="800" 
d="M300 0v261l-290 489h224l145 -260q8 -15 22.5 -15.5t23.5 15.5l156 260h209l-290 -489v-261h-200zM569 842h-134v128h134v-128zM364 842h-134v128h134v-128z" />
    <glyph glyph-name="Zacute" unicode="&#x179;" horiz-adv-x="719" 
d="M678 0h-442q-57 0 -98.5 13.5t-68 36t-39.5 52.5t-13 63q0 65 39.5 115t120.5 96l292 162q10 5 14 11t4 14q0 10 -7.5 16t-23.5 6h-413v165h412q129 0 183 -38.5t54 -119.5q0 -52 -33 -103t-111 -96l-304 -173q-12 -7 -18 -13t-6 -18q0 -13 9 -18.5t25 -5.5h424v-165z
M298 822l65 188h155l-70 -188h-150z" />
    <glyph glyph-name="Zdotaccent" unicode="&#x17b;" horiz-adv-x="719" 
d="M678 0h-442q-57 0 -98.5 13.5t-68 36t-39.5 52.5t-13 63q0 65 39.5 115t120.5 96l292 162q10 5 14 11t4 14q0 10 -7.5 16t-23.5 6h-413v165h412q129 0 183 -38.5t54 -119.5q0 -52 -33 -103t-111 -96l-304 -173q-12 -7 -18 -13t-6 -18q0 -13 9 -18.5t25 -5.5h424v-165z
M439 812h-139v128h139v-128z" />
    <glyph glyph-name="Zcaron" unicode="&#x17d;" horiz-adv-x="719" 
d="M678 0h-442q-57 0 -98.5 13.5t-68 36t-39.5 52.5t-13 63q0 65 39.5 115t120.5 96l292 162q10 5 14 11t4 14q0 10 -7.5 16t-23.5 6h-413v165h412q129 0 183 -38.5t54 -119.5q0 -52 -33 -103t-111 -96l-304 -173q-12 -7 -18 -13t-6 -18q0 -13 9 -18.5t25 -5.5h424v-165z
M459 850q-13 -18 -34 -33.5t-54 -15.5t-55 16.5t-34 32.5l-101 145h137l53 -82l52 82h137z" />
    <glyph glyph-name="zero.tnum" 
d="M799 325q0 -75 -20.5 -137t-62 -106t-104.5 -68t-147 -24h-76q-84 0 -147 24.5t-104.5 68.5t-62 106.5t-20.5 137.5v104q0 74 20.5 135t62 104t104.5 66.5t147 23.5h76q84 0 147 -24t104.5 -67t62 -104.5t20.5 -135.5v-104zM265 295q0 -78 31.5 -110.5t106.5 -32.5h48
q75 0 106.5 32.5t31.5 110.5v162q0 78 -31.5 110t-106.5 32h-48q-75 0 -106.5 -32t-31.5 -110v-162z" />
    <glyph glyph-name="one.tnum" 
d="M106 0v153h229v402q0 16 -7.5 24.5t-22.5 8.5h-199v162h282q76 0 111.5 -38.5t35.5 -113.5v-445h213v-153h-642z" />
    <glyph glyph-name="two.tnum" 
d="M732 157v-157h-619v122q0 48 10 86t35 70.5t66.5 63t104.5 63.5l159 83q26 13 37 25.5t11 31.5q0 28 -19 38t-51 10h-337v157h354q134 0 196 -48.5t62 -132.5q0 -47 -14 -81t-41.5 -61t-67.5 -51.5t-92 -52.5l-145 -79q-34 -18 -43.5 -33t-9.5 -34v-20h404z" />
    <glyph glyph-name="three.tnum" 
d="M280 453l183 137h-351v160h629v-130l-258 -187h9q71 0 119 -13.5t77 -36t41.5 -52.5t12.5 -63v-73q0 -99 -73 -147t-215 -48h-327v160h353q32 0 46.5 11.5t14.5 45.5v27q0 34 -15.5 44.5t-43.5 10.5h-185q-38 0 -58 20t-20 51q0 26 16.5 44.5t44.5 38.5z" />
    <glyph glyph-name="four.tnum" 
d="M221 115q-93 0 -136.5 37.5t-43.5 94.5q0 39 18.5 76.5t61.5 91.5l181 227q43 54 94.5 86t111.5 32h26q69 0 116.5 -43t47.5 -136v-313h115v-153h-115v-115h-195v115h-282zM279 268h224v297q0 10 -5 14.5t-13 4.5q-6 0 -10.5 -3.5t-8.5 -9.5l-205 -263q-4 -6 -6.5 -11
t-2.5 -10q0 -8 5.5 -13.5t21.5 -5.5z" />
    <glyph glyph-name="five.tnum" 
d="M476 474q143 0 201.5 -54t58.5 -171v-27q0 -105 -58.5 -163.5t-208.5 -58.5h-352v157h331q51 0 69 12.5t18 52.5v27q0 42 -17.5 56.5t-64.5 14.5h-336v430h612v-167h-432v-109h179z" />
    <glyph glyph-name="six.tnum" 
d="M469 466q151 0 223 -53t72 -154v-34q0 -112 -71 -171t-228 -59h-39q-175 0 -255.5 74.5t-80.5 234.5v131q0 72 20.5 130.5t64 99t111.5 63t162 22.5h283v-152h-290q-87 0 -116.5 -28t-29.5 -94v-10h174zM420 138h25q70 0 94 20.5t24 58.5v22q0 44 -23.5 61t-85.5 17h-159
v-62q0 -70 26.5 -93.5t98.5 -23.5z" />
    <glyph glyph-name="seven.tnum" 
d="M411 0h-218l321 535q8 13 10.5 22.5t2.5 17.5q0 11 -8 16.5t-24 5.5h-378v153h441q93 0 136 -37t43 -101q0 -37 -15.5 -75t-38.5 -78z" />
    <glyph glyph-name="eight.tnum" 
d="M103 574q0 97 76.5 141.5t236.5 44.5h23q160 0 236.5 -44.5t76.5 -141.5v-40q0 -48 -25.5 -91t-103.5 -64q87 -21 118.5 -64.5t31.5 -92.5v-42q0 -97 -78 -143.5t-246 -46.5h-43q-168 0 -246 46.5t-78 143.5v42q0 49 31.5 92.5t118.5 64.5q-78 21 -103.5 64t-25.5 91v40z
M561 550q0 34 -23.5 48t-89.5 14h-41q-66 0 -89.5 -14t-23.5 -48v-35q0 -34 24 -48t94 -14h31q70 0 94 14t24 48v35zM582 242q0 34 -23.5 49t-89.5 15h-83q-66 0 -89.5 -15t-23.5 -49v-35q0 -34 24 -51.5t94 -17.5h73q70 0 94 17.5t24 51.5v35z" />
    <glyph glyph-name="nine.tnum" 
d="M386 284q-151 0 -223 53t-72 154v34q0 112 71 171t228 59h39q175 0 255.5 -74.5t80.5 -234.5v-131q0 -72 -20.5 -130.5t-64 -99t-111.5 -63t-162 -22.5h-283v152h290q87 0 116.5 28t29.5 94v10h-174zM401 433h159v62q0 70 -26.5 93.5t-98.5 23.5h-25q-70 0 -94 -20.5
t-24 -58.5v-22q0 -44 23.5 -61t85.5 -17z" />
    <glyph glyph-name="space.tnum" horiz-adv-x="427" 
 />
    <glyph glyph-name="Euro.tnum" 
d="M53 225v120h96v60h-96v120h107q26 104 114.5 164.5t235.5 60.5h285v-155h-275q-63 0 -98.5 -16.5t-49.5 -53.5h318v-120h-331v-60h331v-120h-318q15 -37 51 -53.5t102 -16.5h275v-155h-290q-147 0 -235.5 60.5t-114.5 164.5h-107z" />
    <glyph glyph-name="dollar.tnum" 
d="M378 -100v100h-262v165h262v144l-78 23q-104 31 -154 85t-50 129q0 94 66 149t186 55h30v100h110v-100h245v-165h-245v-128l37 -11q116 -34 174.5 -83.5t58.5 -138.5q0 -44 -16.5 -84t-49.5 -70.5t-84 -49t-120 -20.5v-100h-110zM342 499l36 -10v96h-31q-32 0 -45 -11.5
t-13 -25.5q0 -18 12.5 -29.5t40.5 -19.5zM568 215q0 24 -17 36.5t-63 25.5v-112h12q38 0 53 15t15 35z" />
    <glyph glyph-name="cent.tnum" 
d="M460 -100v100h-22q-161 0 -232 70t-71 193v73q0 123 71 193.5t232 70.5h22v100h110v-100h149v-145h-149v-310h149v-145h-149v-100h-110zM444 455q-59 0 -86.5 -26.5t-27.5 -80.5v-103q0 -60 27.5 -80t86.5 -20h16v310h-16z" />
    <glyph glyph-name="sterling.tnum" 
d="M77 157h150v143h-150v157h150v107q0 84 62 135t196 51h284v-157h-277q-32 0 -51 -10t-19 -36v-90h347v-157h-347v-143h354v-157h-699v157z" />
    <glyph glyph-name="yen.tnum" 
d="M109 164v120h204l-35 60h-169v120h98l-170 286h224l145 -260q8 -15 22.5 -15.5t23.5 15.5l156 260h209l-170 -286h99v-120h-170l-35 -60h205v-120h-219v-164h-200v164h-218z" />
    <glyph glyph-name="ruble.tnum" 
d="M9 220h158v55h-158v147h158v328h375q155 0 229 -49t74 -163v-49q0 -122 -74.5 -168t-228.5 -46h-175v-55h273v-120h-273v-100h-200v100h-158v120zM367 603v-181h181q54 0 75.5 19.5t21.5 53.5v34q0 35 -21.5 54.5t-75.5 19.5h-181z" />
    <glyph glyph-name="manat.tnum" 
d="M537 420h-15v-320h-190v320h-15q-53 0 -76 -20t-23 -73v-327h-200v285q0 149 75.5 229.5t238.5 85.5v150h190v-150q163 -5 238.5 -85.5t75.5 -229.5v-285h-200v327q0 53 -23 73t-76 20z" />
    <glyph glyph-name="percent.tnum" 
d="M44 551v57q0 69 46.5 110.5t113.5 41.5h70q63 0 109.5 -41.5t46.5 -110.5v-57q0 -69 -46.5 -111.5t-109.5 -42.5h-70q-67 0 -113.5 42.5t-46.5 111.5zM636 419h-159l155 331h160zM175 589v-25q0 -25 11 -40t36 -15h29q27 0 37.5 15t10.5 40v25q0 27 -10.5 43t-37.5 16
h-29q-25 0 -36 -16t-11 -43zM424 144v57q0 69 46.5 110.5t113.5 41.5h70q63 0 109.5 -41.5t46.5 -110.5v-57q0 -69 -46.5 -111.5t-109.5 -42.5h-70q-67 0 -113.5 42.5t-46.5 111.5zM218 331h159l-155 -331h-160zM555 182v-25q0 -25 11 -40t36 -15h29q27 0 37.5 15t10.5 40
v25q0 27 -10.5 43t-37.5 16h-29q-25 0 -36 -16t-11 -43z" />
    <glyph glyph-name="plus.tnum" 
d="M184 295v160h163v163h160v-163h163v-160h-163v-173h-160v173h-163z" />
    <glyph glyph-name="minus.tnum" 
d="M214 295v160h426v-160h-426z" />
    <glyph glyph-name="plusminus.tnum" 
d="M184 400v160h163v113h160v-113h163v-160h-163v-123h-160v123h-163zM214 70v150h426v-150h-426z" />
    <glyph glyph-name="multiply.tnum" 
d="M188 496l113 113l126 -126l122 122l113 -113l-122 -122l126 -126l-113 -113l-126 126l-122 -122l-113 113l122 122z" />
    <glyph glyph-name="divide.tnum" 
d="M347 525v170h160v-170h-160zM204 295v160h446v-160h-446zM347 55v170h160v-170h-160z" />
    <glyph glyph-name="equal.tnum" 
d="M214 425v160h426v-160h-426zM214 165v160h426v-160h-426z" />
    <glyph glyph-name="less.tnum" 
d="M595 288v-173l-273 165q-22 13 -42.5 35.5t-20.5 55.5v9q0 33 20.5 55.5t42.5 35.5l273 165v-173l-166 -87z" />
    <glyph glyph-name="greater.tnum" 
d="M532 280l-273 -165v173l166 88l-166 87v173l273 -165q22 -13 42.5 -35.5t20.5 -55.5v-9q0 -33 -20.5 -55.5t-42.5 -35.5z" />
    <glyph glyph-name="period.tnum" horiz-adv-x="427" 
d="M108 0v210h210v-210h-210z" />
    <glyph glyph-name="comma.tnum" horiz-adv-x="427" 
d="M75 -130q16 31 24.5 52t12.5 40t4.5 41.5t0.5 56.5v140h193v-139q0 -57 -12 -97t-52 -94h-171z" />
    <glyph glyph-name="colon.tnum" horiz-adv-x="427" 
d="M108 0v210h210v-210h-210z" />
    <glyph glyph-name="semicolon.tnum" horiz-adv-x="427" 
d="M77 -130q16 31 24.5 52t12.5 40t4.5 41.5t0.5 56.5v140h193v-139q0 -57 -12 -97t-52 -94h-171z" />
    <glyph glyph-name="numbersign.tnum" 
d="M730 323v-133h-148l-49 -190h-145l49 190h-120l-49 -190h-145l49 190h-112v133h147l34 133h-118v134h153l47 180h145l-47 -180h120l47 180h145l-47 -180h107v-134h-142l-34 -133h113zM352 323h120l34 133h-120z" />
    <glyph glyph-name="slash.tnum" horiz-adv-x="427" 
d="M228 750h170l-200 -860h-170z" />
    <glyph glyph-name="c.long" horiz-adv-x="591" 
d="M346 455q-59 0 -86.5 -26.5t-27.5 -80.5v-103q0 -60 27.5 -80t86.5 -20h195v-145h-201q-161 0 -232 70t-71 193v73q0 123 71 193.5t232 70.5h431v-145h-425z" />
    <glyph glyph-name="f.long" horiz-adv-x="452" 
d="M122 0v455h-92v145h93q7 94 56 142t165 48h138v-124h-146q-22 0 -33 -11t-11 -36v-19h290v-145h-270v-455h-190z" />
    <glyph glyph-name="k.alt1" horiz-adv-x="744" 
d="M100 0v750h175v-486l245 336h214l-333 -446h307v-154h-608z" />
    <glyph glyph-name="r.long" horiz-adv-x="382" 
d="M58 357q0 46 17.5 90t52 78t88 54.5t125.5 20.5h206v-145h-218q-48 0 -64.5 -18t-16.5 -62v-375h-190v357z" />
    <glyph glyph-name="s.long1" horiz-adv-x="597" 
d="M388 210l-163 32q-90 18 -137.5 63t-47.5 120q0 35 13.5 67t42 56t73 38t105.5 14h498v-145h-513q-30 0 -40 -9t-10 -20q0 -12 9 -21t31 -13l148 -29q110 -22 157.5 -65.5t47.5 -115.5q0 -81 -61.5 -131.5t-186.5 -50.5h-294v145h321q32 0 44 9t12 23q0 15 -13.5 22
t-35.5 11z" />
    <glyph glyph-name="s.long2" horiz-adv-x="597" 
d="M348 210l-163 32q-90 18 -137.5 63t-47.5 120q0 35 13.5 67t42 56t73 38t105.5 14h298v-145h-313q-30 0 -40 -8.5t-10 -21.5t9 -21t31 -12l148 -29q110 -22 157.5 -65.5t47.5 -115.5q0 -81 -61.5 -131.5t-186.5 -50.5h-494v145h521q32 0 44 9.5t12 23.5q0 15 -13.5 21.5
t-35.5 10.5z" />
    <glyph glyph-name="t.long" horiz-adv-x="512" 
d="M20 455v145h97v122h175v-122h325v-145h-325v-243q0 -38 16 -52.5t52 -14.5h97v-145h-119q-124 0 -177.5 52.5t-53.5 159.5v243h-87z" />
    <glyph glyph-name="w.alt1" horiz-adv-x="1087" 
d="M639 600v-445h200v445h190v-600h-712q-137 0 -198 66t-61 179v355h190v-360q0 -46 15.5 -65.5t59.5 -19.5h126v445h190z" />
    <glyph glyph-name="x.alt1" 
d="M195 455h-145v145h141q90 0 147.5 -27t88.5 -78q31 51 88.5 78t147.5 27h141v-145h-145q-59 0 -86.5 -26.5t-27.5 -80.5v-103q0 -60 27.5 -80t86.5 -20h145v-145h-141q-90 0 -147.5 27t-88.5 77q-31 -50 -88.5 -77t-147.5 -27h-141v145h145q59 0 86.5 20t27.5 80v103
q0 54 -27.5 80.5t-86.5 26.5z" />
    <glyph glyph-name="x.long" 
d="M185 455h-135v145h141q90 0 147.5 -27t88.5 -78q31 51 88.5 78t147.5 27h291v-145h-285q-59 0 -86.5 -26.5t-27.5 -80.5v-103q0 -60 27.5 -80t86.5 -20h105v-145h-111q-90 0 -147.5 27t-88.5 77q-31 -50 -88.5 -77t-147.5 -27h-141v145h135q59 0 86.5 20t27.5 80v103
q0 54 -27.5 80.5t-86.5 26.5z" />
    <glyph glyph-name="y.alt1" horiz-adv-x="741" 
d="M218 600l263 -363v363h170v-413q0 -52 -17.5 -88t-46 -58t-65.5 -31.5t-76 -9.5h-410v155h300l-326 445h208z" />
    <glyph glyph-name="A.alt1" horiz-adv-x="915" 
d="M10 0l348 588q50 84 113.5 123t160.5 39h193v-750h-187v157h-314l-89 -157h-225zM534 529l-123 -217h227v268h-33q-22 0 -38.5 -11t-32.5 -40z" />
    <glyph glyph-name="A.alt2" horiz-adv-x="915" 
d="M905 0h-225l-89 157h-314v-157h-187v750h193q97 0 160.5 -39t113.5 -123zM277 580v-268h227l-123 217q-16 29 -32.5 40t-38.5 11h-33z" />
    <glyph glyph-name="A.alt3" horiz-adv-x="763" 
d="M743 405v-405h-521q-101 0 -153.5 47t-52.5 124q0 40 9.5 69t28.5 54t49.5 49l72.5 55l256 187h-402v165h373q182 0 261 -91t79 -254zM281 165h272v305l-280 -216q-19 -15 -27.5 -24.5t-8.5 -24.5q0 -21 13.5 -30.5t30.5 -9.5z" />
    <glyph glyph-name="C.long" horiz-adv-x="711" 
d="M631 165v-165h-230q-89 0 -157 22.5t-113 64t-68 101t-23 132.5v110q0 73 23 132.5t68 101t113 64t157 22.5h455v-165h-445q-93 0 -127 -35.5t-34 -119.5v-108q0 -84 35 -120.5t131 -36.5h215z" />
    <glyph glyph-name="D.alt1" horiz-adv-x="865" 
d="M75 0v480h200v-315h186q93 0 123.5 31t30.5 106v140q0 79 -30 111t-119 32h-566v165h569q89 0 156.5 -22.5t111.5 -64t66 -101t22 -132.5v-110q0 -73 -22 -132.5t-66 -101t-111.5 -64t-156.5 -22.5h-394z" />
    <glyph glyph-name="D.alt2" horiz-adv-x="855" 
d="M65 0v480h200v-315h186q93 0 123.5 31t30.5 106v140q0 79 -30 111t-119 32h-391v165h394q89 0 156.5 -22.5t111.5 -64t66 -101t22 -132.5v-110q0 -73 -22 -132.5t-66 -101t-111.5 -64t-156.5 -22.5h-394z" />
    <glyph glyph-name="E.alt1" horiz-adv-x="741" 
d="M691 165v-165h-290q-89 0 -157 22.5t-113 64t-68 101t-23 132.5v110q0 73 23 132.5t68 101t113 64t157 22.5h285v-165h-275q-80 0 -116 -30.5t-43 -99.5h429v-160h-430q4 -71 39.5 -100.5t125.5 -29.5h275z" />
    <glyph glyph-name="E.open" horiz-adv-x="728" 
d="M65 585v165h606v-165h-606zM65 140v179q0 29 12.5 55t33 44.5t48 29.5t56.5 11h456v-160h-406v-134h406v-165h-456q-29 0 -56.5 11t-48 29.5t-33 44.5t-12.5 55z" />
    <glyph glyph-name="F.alt1" horiz-adv-x="711" 
d="M250 0h-210v430q0 73 23 132.5t68 101t113 64t157 22.5h255v-165h-275q-75 0 -103 -31.5t-28 -101.5h401v-160h-401v-292z" />
    <glyph glyph-name="F.open" horiz-adv-x="716" 
d="M63 585v165h593v-165h-593zM64 0v237q0 46 17 85t46.5 66.5t69.5 43t86 15.5h373v-165h-382v-282h-210z" />
    <glyph glyph-name="G.alt1" horiz-adv-x="849" 
d="M581 389q38 40 77.5 49t71 -2t52 -38t20.5 -60v-338h-173v205l-90 -98q-57 -63 -109.5 -91.5t-133.5 -28.5q-121 0 -179.5 67.5t-57.5 209.5l2 166q1 73 24 132.5t67.5 101t112.5 64t157 22.5h378v-165h-398q-75 0 -103 -29.5t-28 -97.5v-226q0 -33 13 -51.5t41 -18.5
q31 0 48 13.5t41 38.5z" />
    <glyph glyph-name="H.connect" horiz-adv-x="885" 
d="M65 0v750h200v-284h355v123q0 71 45 116t116 45h39v-750h-200v291h-355v-291h-200z" />
    <glyph glyph-name="K.alt1" horiz-adv-x="864" 
d="M90 750h200v-474l325 474h229l-405 -585h389v-165h-738v750z" />
    <glyph glyph-name="L.alt1" horiz-adv-x="611" 
d="M255 290q0 -55 23 -82.5t77 -27.5h226v-180h-186q-182 0 -261 84t-79 234v432h200v-460z" />
    <glyph glyph-name="M.alt1" horiz-adv-x="1214" 
d="M616 158q10 0 14 6.5t7 19.5l83 386q18 85 72 138.5t141 53.5q57 0 98 -17.5t67 -45.5t38.5 -63t12.5 -70v-566h-200v548q0 10 -3 17t-13 7q-8 0 -12.5 -6.5t-6.5 -15.5l-80 -374q-19 -89 -71 -138.5t-152 -49.5q-99 0 -152.5 51t-72.5 138l-81 372q-2 11 -7 17t-13 6
q-12 0 -16 -7t-4 -18v-547h-200v566q0 35 13 70.5t39.5 63t67.5 45t95 17.5t92.5 -17t65 -44t42.5 -62t24 -70l91 -385q3 -13 7 -19.5t14 -6.5z" />
    <glyph glyph-name="M.alt2" horiz-adv-x="1324" 
d="M5 0l317 611q39 75 89 107t118 32h161v-537l207 398q40 76 89 107.5t117 31.5h156v-750h-195v558l-280 -558h-284v560l-280 -560h-215z" />
    <glyph glyph-name="M.alt3" horiz-adv-x="1254" 
d="M527 0v575h-262v-575h-200v750h885q132 0 185.5 -61t53.5 -174v-515h-200v490q0 46 -15.5 65.5t-59.5 19.5h-187v-575h-200z" />
    <glyph glyph-name="N.alt1" horiz-adv-x="871" 
d="M65 0v750h502q132 0 185.5 -61t53.5 -174v-515h-200v490q0 46 -15.5 65.5t-59.5 19.5h-266v-575h-200z" />
    <glyph glyph-name="N.connect" horiz-adv-x="971" 
d="M65 0v550q0 51 17 91t44.5 66.5t65 40.5t77.5 14q96 0 150.5 -51.5t88.5 -135.5l163 -398q3 -7 6.5 -13.5t11.5 -6.5q10 0 13.5 5.5t3.5 15.5v411q0 71 45 116t116 45h39v-551q0 -53 -17 -93t-44.5 -66.5t-65 -39.5t-77.5 -13q-96 0 -149.5 50t-89.5 137l-163 398
q-3 7 -6.5 13.5t-11.5 6.5q-10 0 -13.5 -5.5t-3.5 -15.5v-571h-200z" />
    <glyph glyph-name="P.alt1" horiz-adv-x="768" 
d="M-100 585v165h530q155 0 229 -49t74 -163v-74q0 -122 -74 -168t-229 -46h-125v-250h-210v217q0 80 55.5 130t144.5 50h141q54 0 75.5 19.5t21.5 53.5v41q0 35 -21.5 54.5t-75.5 19.5h-536z" />
    <glyph glyph-name="P.alt2" horiz-adv-x="768" 
d="M95 585v165h335q155 0 229 -49t74 -163v-74q0 -122 -74 -168t-229 -46h-125v-250h-210v217q0 80 55.5 130t144.5 50h141q54 0 75.5 19.5t21.5 53.5v41q0 35 -21.5 54.5t-75.5 19.5h-341z" />
    <glyph glyph-name="R.alt1" horiz-adv-x="553" 
d="M-160 585v165h415q145 0 214 -46.5t69 -166.5v-43q0 -87 -59 -137.5t-169 -50.5h-35l272 -306h-238l-192 212q-29 32 -44.5 58t-15.5 60q0 49 36 75.5t90 26.5h95q33 0 49 17.5t16 43.5v26q0 32 -18 49t-59 17h-426z" />
    <glyph glyph-name="R.alt2" horiz-adv-x="758" 
d="M225 0h-190v374q0 28 18 45t43 17h373q41 0 56.5 13t15.5 60v5q0 44 -15.5 57.5t-56.5 13.5h-634v165h629q55 0 105 -9t86.5 -31t58.5 -59.5t22 -94.5v-47q0 -60 -19 -99.5t-53.5 -62.5t-84.5 -32.5t-110 -9.5h-11l277 -305h-234l-276 301v-301z" />
    <glyph glyph-name="R.alt3" horiz-adv-x="788" 
d="M255 0h-190v374q0 28 18 45t43 17h373q41 0 56.5 17t15.5 64v5q0 44 -15.5 59t-56.5 15h-434v154h429q55 0 105 -9t86.5 -31t58.5 -59.5t22 -94.5v-47q0 -60 -19 -99.5t-53.5 -62.5t-84.5 -32.5t-110 -9.5h-11l277 -305h-249l-261 285v-285z" />
    <glyph glyph-name="S.alt1" horiz-adv-x="858" 
d="M433 162q-43 -90 -111 -126t-153 -36h-149v165h98q61 0 99 19.5t68 82.5l152 321q43 90 116 126t158 36h127v-165h-86q-61 0 -99 -19.5t-68 -82.5z" />
    <glyph glyph-name="S.long1" horiz-adv-x="602" 
d="M435 279l-181 53q-104 31 -154 90.5t-50 133.5q0 90 64.5 142t197.5 52h375v-165h-393q-28 0 -39.5 -11t-11.5 -26q0 -18 14.5 -28.5t45.5 -20.5l176 -53q117 -35 175 -88t58 -134q0 -99 -71 -161.5t-217 -62.5h-354v165h374q48 0 63 14t15 36q0 24 -17 36t-70 28z" />
    <glyph glyph-name="S.long2" horiz-adv-x="742" 
d="M425 279l-181 53q-104 31 -154 83.5t-50 130.5q0 94 62 149t190 55h385v-165h-378q-37 0 -51.5 -11.5t-14.5 -25.5q0 -18 14.5 -28.5t45.5 -20.5l176 -53q117 -35 175 -84t58 -138q0 -99 -71 -161.5t-217 -62.5h-554v165h574q48 0 63 15t15 35q0 24 -17 36t-70 28z" />
    <glyph glyph-name="U.alt1" horiz-adv-x="871" 
d="M606 175v575h200v-750h-502q-132 0 -185.5 61t-53.5 174v515h200v-490q0 -46 15.5 -65.5t59.5 -19.5h266z" />
    <glyph glyph-name="U.connect" horiz-adv-x="850" 
d="M590 589q0 71 45 116t116 45h39v-479q0 -67 -15.5 -120t-51 -89.5t-95.5 -55.5t-148 -19h-108q-168 0 -240 75t-72 209v479h200v-498q0 -54 24.5 -79.5t84.5 -25.5h114q56 0 81.5 25.5t25.5 79.5v337z" />
    <glyph glyph-name="V.alt1" horiz-adv-x="915" 
d="M905 750l-348 -588q-50 -84 -113.5 -123t-160.5 -39h-193v750h187v-580h33q22 0 38.5 11t32.5 40l299 529h225z" />
    <glyph glyph-name="W.alt1" horiz-adv-x="1354" 
d="M1344 750l-317 -611q-39 -75 -89 -107t-118 -32h-161v537l-207 -398q-40 -76 -89 -107.5t-117 -31.5h-156v750h195v-558l280 558h284v-560l280 560h215z" />
    <glyph glyph-name="W.alt2" horiz-adv-x="1254" 
d="M727 750v-575h262v575h200v-750h-885q-132 0 -185.5 61t-53.5 174v515h200v-490q0 -46 15.5 -65.5t59.5 -19.5h187v575h200z" />
    <glyph glyph-name="X.alt1" horiz-adv-x="891" 
d="M731 0q-105 0 -176.5 28t-109.5 84q-37 -56 -108.5 -84t-176.5 -28h-140v165h145q96 0 131 36.5t35 120.5v106q0 84 -34 120.5t-127 36.5h-145v165h135q105 0 176.5 -28t109.5 -84q37 56 108.5 84t176.5 28h135v-165h-145q-93 0 -127 -36.5t-34 -120.5v-116
q0 -84 35 -115.5t131 -31.5h145v-165h-140z" />
    <glyph glyph-name="Y.alt1" horiz-adv-x="868" 
d="M38 0v165h274l-302 585h224l209 -434l195 434h220l-279 -569q-48 -97 -114.5 -139t-186.5 -42h-240z" />
    <glyph glyph-name="Y.alt2" horiz-adv-x="829" 
d="M38 0v165h355l-383 585h233l300 -479q1 6 1 12v13v454h195v-412q0 -75 -18.5 -138t-60.5 -107t-111.5 -68.5t-171.5 -24.5h-339z" />
    <glyph glyph-name="Y.alt3" horiz-adv-x="791" 
d="M60 0v165h351q54 0 77 24.5t23 75.5v15h-171q-81 0 -137 21t-90 58.5t-48.5 91t-14.5 117.5v182h205v-200q0 -46 20.5 -68t69.5 -22h166v290h190v-452q0 -66 -16.5 -121.5t-55 -94.5t-102 -60.5t-156.5 -21.5h-311z" />
    <glyph glyph-name="ccedilla.long" horiz-adv-x="591" 
d="M346 455q-59 0 -86.5 -26.5t-27.5 -80.5v-103q0 -60 27.5 -80t86.5 -20h195v-145h-201q-161 0 -232 70t-71 193v73q0 123 71 193.5t232 70.5h431v-145h-425zM422 10l-68 -198h-155l73 198h150z" />
    <glyph glyph-name="cacute.long" horiz-adv-x="591" 
d="M346 455q-59 0 -86.5 -26.5t-27.5 -80.5v-103q0 -60 27.5 -80t86.5 -20h195v-145h-201q-161 0 -232 70t-71 193v73q0 123 71 193.5t232 70.5h431v-145h-425zM284 672l65 188h155l-70 -188h-150z" />
    <glyph glyph-name="cdotaccent.long" horiz-adv-x="591" 
d="M346 455q-59 0 -86.5 -26.5t-27.5 -80.5v-103q0 -60 27.5 -80t86.5 -20h195v-145h-201q-161 0 -232 70t-71 193v73q0 123 71 193.5t232 70.5h431v-145h-425zM425 662h-139v128h139v-128z" />
    <glyph glyph-name="ccaron.long" horiz-adv-x="591" 
d="M346 455q-59 0 -86.5 -26.5t-27.5 -80.5v-103q0 -60 27.5 -80t86.5 -20h195v-145h-201q-161 0 -232 70t-71 193v73q0 123 71 193.5t232 70.5h431v-145h-425zM445 700q-13 -18 -34 -33.5t-54 -15.5t-55 16.5t-34 32.5l-101 145h137l53 -82l52 82h137z" />
    <glyph glyph-name="kcommaaccent.alt1" horiz-adv-x="744" 
d="M100 0v750h175v-486l245 336h214l-333 -446h307v-154h-608zM321 -188q16 48 21 70t5 53v25h152v-25q0 -31 -5 -53t-24 -70h-149z" />
    <glyph glyph-name="racute.long" horiz-adv-x="382" 
d="M58 357q0 46 17.5 90t52 78t88 54.5t125.5 20.5h206v-145h-218q-48 0 -64.5 -18t-16.5 -62v-375h-190v357zM269 672l65 188h155l-70 -188h-150z" />
    <glyph glyph-name="rcommaaccent.long" horiz-adv-x="382" 
d="M58 357q0 46 17.5 90t52 78t88 54.5t125.5 20.5h206v-145h-218q-48 0 -64.5 -18t-16.5 -62v-375h-190v357zM55 -188q16 48 21 70t5 53v25h152v-25q0 -31 -5 -53t-24 -70h-149z" />
    <glyph glyph-name="rcaron.long" horiz-adv-x="382" 
d="M58 357q0 46 17.5 90t52 78t88 54.5t125.5 20.5h206v-145h-218q-48 0 -64.5 -18t-16.5 -62v-375h-190v357zM429 700q-13 -18 -34 -33.5t-54 -15.5t-55 16.5t-34 32.5l-101 145h137l53 -82l52 82h137z" />
    <glyph glyph-name="sacute.long1" horiz-adv-x="597" 
d="M388 210l-163 32q-90 18 -137.5 63t-47.5 120q0 35 13.5 67t42 56t73 38t105.5 14h498v-145h-513q-30 0 -40 -9t-10 -20q0 -12 9 -21t31 -13l148 -29q110 -22 157.5 -65.5t47.5 -115.5q0 -81 -61.5 -131.5t-186.5 -50.5h-294v145h321q32 0 44 9t12 23q0 15 -13.5 22
t-35.5 11zM226 672l65 188h155l-70 -188h-150z" />
    <glyph glyph-name="scedilla.long1" horiz-adv-x="597" 
d="M388 210l-163 32q-90 18 -137.5 63t-47.5 120q0 35 13.5 67t42 56t73 38t105.5 14h498v-145h-513q-30 0 -40 -9t-10 -20q0 -12 9 -21t31 -13l148 -29q110 -22 157.5 -65.5t47.5 -115.5q0 -81 -61.5 -131.5t-186.5 -50.5h-294v145h321q32 0 44 9t12 23q0 15 -13.5 22
t-35.5 11zM374 10l-68 -198h-155l73 198h150z" />
    <glyph glyph-name="scommaaccent.long1" horiz-adv-x="597" 
d="M388 210l-163 32q-90 18 -137.5 63t-47.5 120q0 35 13.5 67t42 56t73 38t105.5 14h498v-145h-513q-30 0 -40 -9t-10 -20q0 -12 9 -21t31 -13l148 -29q110 -22 157.5 -65.5t47.5 -115.5q0 -81 -61.5 -131.5t-186.5 -50.5h-294v145h321q32 0 44 9t12 23q0 15 -13.5 22
t-35.5 11zM197 -188q16 48 21 70t5 53v25h152v-25q0 -31 -5 -53t-24 -70h-149z" />
    <glyph glyph-name="scaron.long1" horiz-adv-x="597" 
d="M388 210l-163 32q-90 18 -137.5 63t-47.5 120q0 35 13.5 67t42 56t73 38t105.5 14h498v-145h-513q-30 0 -40 -9t-10 -20q0 -12 9 -21t31 -13l148 -29q110 -22 157.5 -65.5t47.5 -115.5q0 -81 -61.5 -131.5t-186.5 -50.5h-294v145h321q32 0 44 9t12 23q0 15 -13.5 22
t-35.5 11zM387 700q-13 -18 -34 -33.5t-54 -15.5t-55 16.5t-34 32.5l-101 145h137l53 -82l52 82h137z" />
    <glyph glyph-name="sacute.long2" horiz-adv-x="597" 
d="M348 210l-163 32q-90 18 -137.5 63t-47.5 120q0 35 13.5 67t42 56t73 38t105.5 14h298v-145h-313q-30 0 -40 -8.5t-10 -21.5t9 -21t31 -12l148 -29q110 -22 157.5 -65.5t47.5 -115.5q0 -81 -61.5 -131.5t-186.5 -50.5h-494v145h521q32 0 44 9.5t12 23.5q0 15 -13.5 21.5
t-35.5 10.5zM226 672l65 188h155l-70 -188h-150z" />
    <glyph glyph-name="scedilla.long2" horiz-adv-x="597" 
d="M348 210l-163 32q-90 18 -137.5 63t-47.5 120q0 35 13.5 67t42 56t73 38t105.5 14h298v-145h-313q-30 0 -40 -8.5t-10 -21.5t9 -21t31 -12l148 -29q110 -22 157.5 -65.5t47.5 -115.5q0 -81 -61.5 -131.5t-186.5 -50.5h-494v145h521q32 0 44 9.5t12 23.5q0 15 -13.5 21.5
t-35.5 10.5zM374 10l-68 -198h-155l73 198h150z" />
    <glyph glyph-name="scommaaccent.long2" horiz-adv-x="597" 
d="M348 210l-163 32q-90 18 -137.5 63t-47.5 120q0 35 13.5 67t42 56t73 38t105.5 14h298v-145h-313q-30 0 -40 -8.5t-10 -21.5t9 -21t31 -12l148 -29q110 -22 157.5 -65.5t47.5 -115.5q0 -81 -61.5 -131.5t-186.5 -50.5h-494v145h521q32 0 44 9.5t12 23.5q0 15 -13.5 21.5
t-35.5 10.5zM197 -188q16 48 21 70t5 53v25h152v-25q0 -31 -5 -53t-24 -70h-149z" />
    <glyph glyph-name="scaron.long2" horiz-adv-x="597" 
d="M348 210l-163 32q-90 18 -137.5 63t-47.5 120q0 35 13.5 67t42 56t73 38t105.5 14h298v-145h-313q-30 0 -40 -8.5t-10 -21.5t9 -21t31 -12l148 -29q110 -22 157.5 -65.5t47.5 -115.5q0 -81 -61.5 -131.5t-186.5 -50.5h-494v145h521q32 0 44 9.5t12 23.5q0 15 -13.5 21.5
t-35.5 10.5zM387 700q-13 -18 -34 -33.5t-54 -15.5t-55 16.5t-34 32.5l-101 145h137l53 -82l52 82h137z" />
    <glyph glyph-name="tcedilla.long" horiz-adv-x="532" 
d="M20 455v145h97v122h175v-122h325v-145h-325v-243q0 -38 16 -52.5t52 -14.5h97v-145h-119q-124 0 -177.5 52.5t-53.5 159.5v243h-87zM412 10l-68 -198h-155l73 198h150z" />
    <glyph glyph-name="tcommaaccent.long" horiz-adv-x="532" 
d="M20 455v145h97v122h175v-122h325v-145h-325v-243q0 -38 16 -52.5t52 -14.5h97v-145h-119q-124 0 -177.5 52.5t-53.5 159.5v243h-87zM235 -188q16 48 21 70t5 53v25h152v-25q0 -31 -5 -53t-24 -70h-149z" />
    <glyph glyph-name="tcaron.long" horiz-adv-x="532" 
d="M338 649l42 150h120l-42 -150h-120zM20 455v145h97v122h175v-122h325v-145h-325v-243q0 -38 16 -52.5t52 -14.5h97v-145h-119q-124 0 -177.5 52.5t-53.5 159.5v243h-87z" />
    <glyph glyph-name="tbar.long" horiz-adv-x="532" 
d="M47 350h60v105h-87v145h97v122h175v-122h325v-145h-325v-105h146v-90h-146v-48q0 -38 16 -52.5t52 -14.5h97v-145h-119q-124 0 -177.5 52.5t-53.5 159.5v48h-60v90z" />
    <glyph glyph-name="wcircumflex.alt1" horiz-adv-x="1087" 
d="M639 600v-445h200v445h190v-600h-712q-137 0 -198 66t-61 179v355h190v-360q0 -46 15.5 -65.5t59.5 -19.5h126v445h190zM596 672l-52 82l-53 -82h-137l101 145q12 16 34 32.5t55 16.5t54 -15.5t34 -33.5l101 -145h-137z" />
    <glyph glyph-name="yacute.alt1" horiz-adv-x="741" 
d="M218 600l263 -363v363h170v-413q0 -52 -17.5 -88t-46 -58t-65.5 -31.5t-76 -9.5h-410v155h300l-326 445h208zM299 672l65 188h155l-70 -188h-150z" />
    <glyph glyph-name="ydieresis.alt1" horiz-adv-x="741" 
d="M218 600l263 -363v363h170v-413q0 -52 -17.5 -88t-46 -58t-65.5 -31.5t-76 -9.5h-410v155h300l-326 445h208zM540 692h-134v128h134v-128zM335 692h-134v128h134v-128z" />
    <glyph glyph-name="ycircumflex.alt1" horiz-adv-x="741" 
d="M218 600l263 -363v363h170v-413q0 -52 -17.5 -88t-46 -58t-65.5 -31.5t-76 -9.5h-410v155h300l-326 445h208zM423 672l-52 82l-53 -82h-137l101 145q12 16 34 32.5t55 16.5t54 -15.5t34 -33.5l101 -145h-137z" />
    <glyph glyph-name="Agrave.alt1" horiz-adv-x="915" 
d="M10 0l348 588q50 84 113.5 123t160.5 39h193v-750h-187v157h-314l-89 -157h-225zM534 529l-123 -217h227v268h-33q-22 0 -38.5 -11t-32.5 -40zM715 822h-150l-70 188h155z" />
    <glyph glyph-name="Aacute.alt1" horiz-adv-x="915" 
d="M10 0l348 588q50 84 113.5 123t160.5 39h193v-750h-187v157h-314l-89 -157h-225zM534 529l-123 -217h227v268h-33q-22 0 -38.5 -11t-32.5 -40zM566 822l65 188h155l-70 -188h-150z" />
    <glyph glyph-name="Acircumflex.alt1" horiz-adv-x="915" 
d="M10 0l348 588q50 84 113.5 123t160.5 39h193v-750h-187v157h-314l-89 -157h-225zM534 529l-123 -217h227v268h-33q-22 0 -38.5 -11t-32.5 -40zM688 822l-52 82l-53 -82h-137l101 145q12 16 34 32.5t55 16.5t54 -15.5t34 -33.5l101 -145h-137z" />
    <glyph glyph-name="Atilde.alt1" horiz-adv-x="915" 
d="M10 0l348 588q50 84 113.5 123t160.5 39h193v-750h-187v157h-314l-89 -157h-225zM534 529l-123 -217h227v268h-33q-22 0 -38.5 -11t-32.5 -40zM677 938l18 -13.5t15 -4.5q8 0 12 5.5t4 18.5v62h99v-76q0 -53 -31 -83.5t-79 -30.5q-34 0 -56.5 11.5t-55.5 36.5l-34 26
q-10 8 -17 13t-15 5q-7 0 -12 -5.5t-5 -18.5v-62h-99v78q0 54 32 83t78 29q34 0 56.5 -11.5t55.5 -36.5z" />
    <glyph glyph-name="Adieresis.alt1" horiz-adv-x="915" 
d="M10 0l348 588q50 84 113.5 123t160.5 39h193v-750h-187v157h-314l-89 -157h-225zM534 529l-123 -217h227v268h-33q-22 0 -38.5 -11t-32.5 -40zM825 842h-134v128h134v-128zM620 842h-134v128h134v-128z" />
    <glyph glyph-name="Aring.alt1" horiz-adv-x="915" 
d="M10 0l348 588q50 84 113.5 123t160.5 39h193v-750h-187v157h-314l-89 -157h-225zM534 529l-123 -217h227v268h-33q-22 0 -38.5 -11t-32.5 -40zM610 904v24q0 39 25.5 63t62.5 24h39q37 0 62.5 -24t25.5 -63v-24q0 -39 -25.5 -63t-62.5 -24h-39q-37 0 -62.5 24t-25.5 63z
M677 926v-20q0 -16 7.5 -23.5t20.5 -7.5h25q13 0 21 7.5t8 23.5v20q0 16 -8 23.5t-21 7.5h-25q-13 0 -20.5 -7.5t-7.5 -23.5z" />
    <glyph glyph-name="Amacron.alt1" horiz-adv-x="915" 
d="M10 0l348 588q50 84 113.5 123t160.5 39h193v-750h-187v157h-314l-89 -157h-225zM534 529l-123 -217h227v268h-33q-22 0 -38.5 -11t-32.5 -40zM768 847h-260v98h260v-98z" />
    <glyph glyph-name="Abreve.alt1" horiz-adv-x="915" 
d="M10 0l348 588q50 84 113.5 123t160.5 39h193v-750h-187v157h-314l-89 -157h-225zM534 529l-123 -217h227v268h-33q-22 0 -38.5 -11t-32.5 -40zM503 980h98v-51q0 -16 9.5 -24.5t24.5 -8.5h60q15 0 24.5 8.5t9.5 24.5v51h96v-84q0 -36 -28.5 -59.5t-65.5 -23.5h-133
q-40 0 -67.5 23.5t-27.5 59.5v84z" />
    <glyph glyph-name="Aogonek.alt1" horiz-adv-x="915" 
d="M10 0l348 588q50 84 113.5 123t160.5 39h193v-750h-187v157h-314l-89 -157h-225zM534 529l-123 -217h227v268h-33q-22 0 -38.5 -11t-32.5 -40zM713 0h112l-44 -58q-9 -11 -14 -18.5t-5 -16.5t7 -14.5t21 -5.5h35v-77h-85q-55 0 -79.5 21t-24.5 52q0 19 9.5 39t34.5 45z
" />
    <glyph glyph-name="Agrave.alt2" horiz-adv-x="915" 
d="M905 0h-225l-89 157h-314v-157h-187v750h193q97 0 160.5 -39t113.5 -123zM277 580v-268h227l-123 217q-16 29 -32.5 40t-38.5 11h-33zM334 822h-150l-70 188h155z" />
    <glyph glyph-name="Aacute.alt2" horiz-adv-x="915" 
d="M905 0h-225l-89 157h-314v-157h-187v750h193q97 0 160.5 -39t113.5 -123zM277 580v-268h227l-123 217q-16 29 -32.5 40t-38.5 11h-33zM206 822l65 188h155l-70 -188h-150z" />
    <glyph glyph-name="Acircumflex.alt2" horiz-adv-x="915" 
d="M905 0h-225l-89 157h-314v-157h-187v750h193q97 0 160.5 -39t113.5 -123zM277 580v-268h227l-123 217q-16 29 -32.5 40t-38.5 11h-33zM332 822l-52 82l-53 -82h-137l101 145q12 16 34 32.5t55 16.5t54 -15.5t34 -33.5l101 -145h-137z" />
    <glyph glyph-name="Atilde.alt2" horiz-adv-x="915" 
d="M905 0h-225l-89 157h-314v-157h-187v750h193q97 0 160.5 -39t113.5 -123zM277 580v-268h227l-123 217q-16 29 -32.5 40t-38.5 11h-33zM346 938l18 -13.5t15 -4.5q8 0 12 5.5t4 18.5v62h99v-76q0 -53 -31 -83.5t-79 -30.5q-34 0 -56.5 11.5t-55.5 36.5l-34 26
q-10 8 -17 13t-15 5q-7 0 -12 -5.5t-5 -18.5v-62h-99v78q0 54 32 83t78 29q34 0 56.5 -11.5t55.5 -36.5z" />
    <glyph glyph-name="Adieresis.alt2" horiz-adv-x="915" 
d="M905 0h-225l-89 157h-314v-157h-187v750h193q97 0 160.5 -39t113.5 -123zM277 580v-268h227l-123 217q-16 29 -32.5 40t-38.5 11h-33zM429 842h-134v128h134v-128zM224 842h-134v128h134v-128z" />
    <glyph glyph-name="Aring.alt2" horiz-adv-x="915" 
d="M905 0h-225l-89 157h-314v-157h-187v750h193q97 0 160.5 -39t113.5 -123zM277 580v-268h227l-123 217q-16 29 -32.5 40t-38.5 11h-33zM90 904v24q0 39 25.5 63t62.5 24h39q37 0 62.5 -24t25.5 -63v-24q0 -39 -25.5 -63t-62.5 -24h-39q-37 0 -62.5 24t-25.5 63zM157 926
v-20q0 -16 7.5 -23.5t20.5 -7.5h25q13 0 21 7.5t8 23.5v20q0 16 -8 23.5t-21 7.5h-25q-13 0 -20.5 -7.5t-7.5 -23.5z" />
    <glyph glyph-name="Amacron.alt2" horiz-adv-x="915" 
d="M905 0h-225l-89 157h-314v-157h-187v750h193q97 0 160.5 -39t113.5 -123zM277 580v-268h227l-123 217q-16 29 -32.5 40t-38.5 11h-33zM350 847h-260v98h260v-98z" />
    <glyph glyph-name="Abreve.alt2" horiz-adv-x="915" 
d="M905 0h-225l-89 157h-314v-157h-187v750h193q97 0 160.5 -39t113.5 -123zM277 580v-268h227l-123 217q-16 29 -32.5 40t-38.5 11h-33zM90 980h98v-51q0 -16 9.5 -24.5t24.5 -8.5h60q15 0 24.5 8.5t9.5 24.5v51h96v-84q0 -36 -28.5 -59.5t-65.5 -23.5h-133
q-40 0 -67.5 23.5t-27.5 59.5v84z" />
    <glyph glyph-name="Aogonek.alt2" horiz-adv-x="915" 
d="M905 0h-225l-89 157h-314v-157h-187v750h193q97 0 160.5 -39t113.5 -123zM277 580v-268h227l-123 217q-16 29 -32.5 40t-38.5 11h-33zM786 0h112l-44 -58q-9 -11 -14 -18.5t-5 -16.5t7 -14.5t21 -5.5h35v-77h-85q-55 0 -79.5 21t-24.5 52q0 19 9.5 39t34.5 45z" />
    <glyph glyph-name="Agrave.alt3" horiz-adv-x="798" 
d="M743 405v-405h-521q-101 0 -153.5 47t-52.5 124q0 40 9.5 69t28.5 54t49.5 49l72.5 55l256 187h-402v165h373q182 0 261 -91t79 -254zM281 165h272v305l-280 -216q-19 -15 -27.5 -24.5t-8.5 -24.5q0 -21 13.5 -30.5t30.5 -9.5zM446 822h-150l-70 188h155z" />
    <glyph glyph-name="Aacute.alt3" horiz-adv-x="798" 
d="M743 405v-405h-521q-101 0 -153.5 47t-52.5 124q0 40 9.5 69t28.5 54t49.5 49l72.5 55l256 187h-402v165h373q182 0 261 -91t79 -254zM281 165h272v305l-280 -216q-19 -15 -27.5 -24.5t-8.5 -24.5q0 -21 13.5 -30.5t30.5 -9.5zM297 822l65 188h155l-70 -188h-150z" />
    <glyph glyph-name="Acircumflex.alt3" horiz-adv-x="798" 
d="M743 405v-405h-521q-101 0 -153.5 47t-52.5 124q0 40 9.5 69t28.5 54t49.5 49l72.5 55l256 187h-402v165h373q182 0 261 -91t79 -254zM281 165h272v305l-280 -216q-19 -15 -27.5 -24.5t-8.5 -24.5q0 -21 13.5 -30.5t30.5 -9.5zM421 822l-52 82l-53 -82h-137l101 145
q12 16 34 32.5t55 16.5t54 -15.5t34 -33.5l101 -145h-137z" />
    <glyph glyph-name="Atilde.alt3" horiz-adv-x="798" 
d="M743 405v-405h-521q-101 0 -153.5 47t-52.5 124q0 40 9.5 69t28.5 54t49.5 49l72.5 55l256 187h-402v165h373q182 0 261 -91t79 -254zM281 165h272v305l-280 -216q-19 -15 -27.5 -24.5t-8.5 -24.5q0 -21 13.5 -30.5t30.5 -9.5zM424 938l18 -13.5t15 -4.5q8 0 12 5.5
t4 18.5v62h99v-76q0 -53 -31 -83.5t-79 -30.5q-34 0 -56.5 11.5t-55.5 36.5l-34 26q-10 8 -17 13t-15 5q-7 0 -12 -5.5t-5 -18.5v-62h-99v78q0 54 32 83t78 29q34 0 56.5 -11.5t55.5 -36.5z" />
    <glyph glyph-name="Adieresis.alt3" horiz-adv-x="798" 
d="M743 405v-405h-521q-101 0 -153.5 47t-52.5 124q0 40 9.5 69t28.5 54t49.5 49l72.5 55l256 187h-402v165h373q182 0 261 -91t79 -254zM281 165h272v305l-280 -216q-19 -15 -27.5 -24.5t-8.5 -24.5q0 -21 13.5 -30.5t30.5 -9.5zM538 842h-134v128h134v-128zM333 842h-134
v128h134v-128z" />
    <glyph glyph-name="Aring.alt3" horiz-adv-x="798" 
d="M743 405v-405h-521q-101 0 -153.5 47t-52.5 124q0 40 9.5 69t28.5 54t49.5 49l72.5 55l256 187h-402v165h373q182 0 261 -91t79 -254zM281 165h272v305l-280 -216q-19 -15 -27.5 -24.5t-8.5 -24.5q0 -21 13.5 -30.5t30.5 -9.5zM262 904v24q0 39 25.5 63t62.5 24h39
q37 0 62.5 -24t25.5 -63v-24q0 -39 -25.5 -63t-62.5 -24h-39q-37 0 -62.5 24t-25.5 63zM329 926v-20q0 -16 7.5 -23.5t20.5 -7.5h25q13 0 21 7.5t8 23.5v20q0 16 -8 23.5t-21 7.5h-25q-13 0 -20.5 -7.5t-7.5 -23.5z" />
    <glyph glyph-name="Amacron.alt3" horiz-adv-x="798" 
d="M743 405v-405h-521q-101 0 -153.5 47t-52.5 124q0 40 9.5 69t28.5 54t49.5 49l72.5 55l256 187h-402v165h373q182 0 261 -91t79 -254zM281 165h272v305l-280 -216q-19 -15 -27.5 -24.5t-8.5 -24.5q0 -21 13.5 -30.5t30.5 -9.5zM499 847h-260v98h260v-98z" />
    <glyph glyph-name="Abreve.alt3" horiz-adv-x="798" 
d="M743 405v-405h-521q-101 0 -153.5 47t-52.5 124q0 40 9.5 69t28.5 54t49.5 49l72.5 55l256 187h-402v165h373q182 0 261 -91t79 -254zM281 165h272v305l-280 -216q-19 -15 -27.5 -24.5t-8.5 -24.5q0 -21 13.5 -30.5t30.5 -9.5zM203 980h98v-51q0 -16 9.5 -24.5t24.5 -8.5
h60q15 0 24.5 8.5t9.5 24.5v51h96v-84q0 -36 -28.5 -59.5t-65.5 -23.5h-133q-40 0 -67.5 23.5t-27.5 59.5v84z" />
    <glyph glyph-name="Aogonek.alt3" horiz-adv-x="763" 
d="M743 405v-405h-521q-101 0 -153.5 47t-52.5 124q0 40 9.5 69t28.5 54t49.5 49l72.5 55l256 187h-402v165h373q182 0 261 -91t79 -254zM281 165h272v305l-280 -216q-19 -15 -27.5 -24.5t-8.5 -24.5q0 -21 13.5 -30.5t30.5 -9.5zM630 0h112l-44 -58q-9 -11 -14 -18.5
t-5 -16.5t7 -14.5t21 -5.5h35v-77h-85q-55 0 -79.5 21t-24.5 52q0 19 9.5 39t34.5 45z" />
    <glyph glyph-name="Ccedilla.long" horiz-adv-x="711" 
d="M631 165v-165h-230q-89 0 -157 22.5t-113 64t-68 101t-23 132.5v110q0 73 23 132.5t68 101t113 64t157 22.5h455v-165h-445q-93 0 -127 -35.5t-34 -119.5v-108q0 -84 35 -120.5t131 -36.5h215zM492 10l-68 -198h-155l73 198h150z" />
    <glyph glyph-name="Cacute.long" horiz-adv-x="711" 
d="M631 165v-165h-230q-89 0 -157 22.5t-113 64t-68 101t-23 132.5v110q0 73 23 132.5t68 101t113 64t157 22.5h455v-165h-445q-93 0 -127 -35.5t-34 -119.5v-108q0 -84 35 -120.5t131 -36.5h215zM354 822l65 188h155l-70 -188h-150z" />
    <glyph glyph-name="Cdotaccent.long" horiz-adv-x="711" 
d="M631 165v-165h-230q-89 0 -157 22.5t-113 64t-68 101t-23 132.5v110q0 73 23 132.5t68 101t113 64t157 22.5h455v-165h-445q-93 0 -127 -35.5t-34 -119.5v-108q0 -84 35 -120.5t131 -36.5h215zM495 812h-139v128h139v-128z" />
    <glyph glyph-name="Ccaron.long" horiz-adv-x="711" 
d="M631 165v-165h-230q-89 0 -157 22.5t-113 64t-68 101t-23 132.5v110q0 73 23 132.5t68 101t113 64t157 22.5h455v-165h-445q-93 0 -127 -35.5t-34 -119.5v-108q0 -84 35 -120.5t131 -36.5h215zM515 850q-13 -18 -34 -33.5t-54 -15.5t-55 16.5t-34 32.5l-101 145h137
l53 -82l52 82h137z" />
    <glyph glyph-name="Dcaron.alt1" horiz-adv-x="865" 
d="M75 0v480h200v-315h186q93 0 123.5 31t30.5 106v140q0 79 -30 111t-119 32h-566v165h569q89 0 156.5 -22.5t111.5 -64t66 -101t22 -132.5v-110q0 -73 -22 -132.5t-66 -101t-111.5 -64t-156.5 -22.5h-394zM462 850q-13 -18 -34 -33.5t-54 -15.5t-55 16.5t-34 32.5
l-101 145h137l53 -82l52 82h137z" />
    <glyph glyph-name="Dcroat.alt1" horiz-adv-x="865" 
d="M75 0v280h-65v110h65v90h200v-90h196v-110h-196v-115h186q93 0 123.5 31t30.5 106v140q0 79 -30 111t-119 32h-566v165h569q89 0 156.5 -22.5t111.5 -64t66 -101t22 -132.5v-110q0 -73 -22 -132.5t-66 -101t-111.5 -64t-156.5 -22.5h-394z" />
    <glyph glyph-name="Dcaron.alt2" horiz-adv-x="855" 
d="M65 0v480h200v-315h186q93 0 123.5 31t30.5 106v140q0 79 -30 111t-119 32h-391v165h394q89 0 156.5 -22.5t111.5 -64t66 -101t22 -132.5v-110q0 -73 -22 -132.5t-66 -101t-111.5 -64t-156.5 -22.5h-394zM452 850q-13 -18 -34 -33.5t-54 -15.5t-55 16.5t-34 32.5
l-101 145h137l53 -82l52 82h137z" />
    <glyph glyph-name="Dcroat.alt2" horiz-adv-x="855" 
d="M65 0v280h-55v110h55v90h200v-90h206v-110h-206v-115h186q93 0 123.5 31t30.5 106v140q0 79 -30 111t-119 32h-391v165h394q89 0 156.5 -22.5t111.5 -64t66 -101t22 -132.5v-110q0 -73 -22 -132.5t-66 -101t-111.5 -64t-156.5 -22.5h-394z" />
    <glyph glyph-name="Egrave.alt1" horiz-adv-x="741" 
d="M691 165v-165h-290q-89 0 -157 22.5t-113 64t-68 101t-23 132.5v110q0 73 23 132.5t68 101t113 64t157 22.5h285v-165h-275q-80 0 -116 -30.5t-43 -99.5h429v-160h-430q4 -71 39.5 -100.5t125.5 -29.5h275zM498 822h-150l-70 188h155z" />
    <glyph glyph-name="Eacute.alt1" horiz-adv-x="741" 
d="M691 165v-165h-290q-89 0 -157 22.5t-113 64t-68 101t-23 132.5v110q0 73 23 132.5t68 101t113 64t157 22.5h285v-165h-275q-80 0 -116 -30.5t-43 -99.5h429v-160h-430q4 -71 39.5 -100.5t125.5 -29.5h275zM349 822l65 188h155l-70 -188h-150z" />
    <glyph glyph-name="Ecircumflex.alt1" horiz-adv-x="741" 
d="M691 165v-165h-290q-89 0 -157 22.5t-113 64t-68 101t-23 132.5v110q0 73 23 132.5t68 101t113 64t157 22.5h285v-165h-275q-80 0 -116 -30.5t-43 -99.5h429v-160h-430q4 -71 39.5 -100.5t125.5 -29.5h275zM473 822l-52 82l-53 -82h-137l101 145q12 16 34 32.5t55 16.5
t54 -15.5t34 -33.5l101 -145h-137z" />
    <glyph glyph-name="Edieresis.alt1" horiz-adv-x="741" 
d="M691 165v-165h-290q-89 0 -157 22.5t-113 64t-68 101t-23 132.5v110q0 73 23 132.5t68 101t113 64t157 22.5h285v-165h-275q-80 0 -116 -30.5t-43 -99.5h429v-160h-430q4 -71 39.5 -100.5t125.5 -29.5h275zM590 842h-134v128h134v-128zM385 842h-134v128h134v-128z" />
    <glyph glyph-name="Emacron.alt1" horiz-adv-x="741" 
d="M691 165v-165h-290q-89 0 -157 22.5t-113 64t-68 101t-23 132.5v110q0 73 23 132.5t68 101t113 64t157 22.5h285v-165h-275q-80 0 -116 -30.5t-43 -99.5h429v-160h-430q4 -71 39.5 -100.5t125.5 -29.5h275zM551 847h-260v98h260v-98z" />
    <glyph glyph-name="Ebreve.alt1" horiz-adv-x="741" 
d="M691 165v-165h-290q-89 0 -157 22.5t-113 64t-68 101t-23 132.5v110q0 73 23 132.5t68 101t113 64t157 22.5h285v-165h-275q-80 0 -116 -30.5t-43 -99.5h429v-160h-430q4 -71 39.5 -100.5t125.5 -29.5h275zM255 980h98v-51q0 -16 9.5 -24.5t24.5 -8.5h60q15 0 24.5 8.5
t9.5 24.5v51h96v-84q0 -36 -28.5 -59.5t-65.5 -23.5h-133q-40 0 -67.5 23.5t-27.5 59.5v84z" />
    <glyph glyph-name="Edotaccent.alt1" horiz-adv-x="741" 
d="M691 165v-165h-290q-89 0 -157 22.5t-113 64t-68 101t-23 132.5v110q0 73 23 132.5t68 101t113 64t157 22.5h285v-165h-275q-80 0 -116 -30.5t-43 -99.5h429v-160h-430q4 -71 39.5 -100.5t125.5 -29.5h275zM490 812h-139v128h139v-128z" />
    <glyph glyph-name="Eogonek.alt1" horiz-adv-x="741" 
d="M691 165v-165h-290q-89 0 -157 22.5t-113 64t-68 101t-23 132.5v110q0 73 23 132.5t68 101t113 64t157 22.5h285v-165h-275q-80 0 -116 -30.5t-43 -99.5h429v-160h-430q4 -71 39.5 -100.5t125.5 -29.5h275zM579 0h112l-44 -58q-9 -11 -14 -18.5t-5 -16.5t7 -14.5t21 -5.5
h35v-77h-85q-55 0 -79.5 21t-24.5 52q0 19 9.5 39t34.5 45z" />
    <glyph glyph-name="Ecaron.alt1" horiz-adv-x="741" 
d="M691 165v-165h-290q-89 0 -157 22.5t-113 64t-68 101t-23 132.5v110q0 73 23 132.5t68 101t113 64t157 22.5h285v-165h-275q-80 0 -116 -30.5t-43 -99.5h429v-160h-430q4 -71 39.5 -100.5t125.5 -29.5h275zM510 850q-13 -18 -34 -33.5t-54 -15.5t-55 16.5t-34 32.5
l-101 145h137l53 -82l52 82h137z" />
    <glyph glyph-name="Egrave.open" horiz-adv-x="728" 
d="M65 585v165h606v-165h-606zM65 140v179q0 29 12.5 55t33 44.5t48 29.5t56.5 11h456v-160h-406v-134h406v-165h-456q-29 0 -56.5 11t-48 29.5t-33 44.5t-12.5 55zM441 822h-150l-70 188h155z" />
    <glyph glyph-name="Eacute.open" horiz-adv-x="728" 
d="M65 585v165h606v-165h-606zM65 140v179q0 29 12.5 55t33 44.5t48 29.5t56.5 11h456v-160h-406v-134h406v-165h-456q-29 0 -56.5 11t-48 29.5t-33 44.5t-12.5 55zM292 822l65 188h155l-70 -188h-150z" />
    <glyph glyph-name="Ecircumflex.open" horiz-adv-x="728" 
d="M65 585v165h606v-165h-606zM65 140v179q0 29 12.5 55t33 44.5t48 29.5t56.5 11h456v-160h-406v-134h406v-165h-456q-29 0 -56.5 11t-48 29.5t-33 44.5t-12.5 55zM416 822l-52 82l-53 -82h-137l101 145q12 16 34 32.5t55 16.5t54 -15.5t34 -33.5l101 -145h-137z" />
    <glyph glyph-name="Edieresis.open" horiz-adv-x="728" 
d="M65 585v165h606v-165h-606zM65 140v179q0 29 12.5 55t33 44.5t48 29.5t56.5 11h456v-160h-406v-134h406v-165h-456q-29 0 -56.5 11t-48 29.5t-33 44.5t-12.5 55zM533 842h-134v128h134v-128zM328 842h-134v128h134v-128z" />
    <glyph glyph-name="Emacron.open" horiz-adv-x="728" 
d="M65 585v165h606v-165h-606zM65 140v179q0 29 12.5 55t33 44.5t48 29.5t56.5 11h456v-160h-406v-134h406v-165h-456q-29 0 -56.5 11t-48 29.5t-33 44.5t-12.5 55zM494 847h-260v98h260v-98z" />
    <glyph glyph-name="Ebreve.open" horiz-adv-x="728" 
d="M65 585v165h606v-165h-606zM65 140v179q0 29 12.5 55t33 44.5t48 29.5t56.5 11h456v-160h-406v-134h406v-165h-456q-29 0 -56.5 11t-48 29.5t-33 44.5t-12.5 55zM198 980h98v-51q0 -16 9.5 -24.5t24.5 -8.5h60q15 0 24.5 8.5t9.5 24.5v51h96v-84q0 -36 -28.5 -59.5
t-65.5 -23.5h-133q-40 0 -67.5 23.5t-27.5 59.5v84z" />
    <glyph glyph-name="Edotaccent.open" horiz-adv-x="728" 
d="M65 585v165h606v-165h-606zM65 140v179q0 29 12.5 55t33 44.5t48 29.5t56.5 11h456v-160h-406v-134h406v-165h-456q-29 0 -56.5 11t-48 29.5t-33 44.5t-12.5 55zM433 812h-139v128h139v-128z" />
    <glyph glyph-name="Eogonek.open" horiz-adv-x="728" 
d="M65 585v165h606v-165h-606zM65 140v179q0 29 12.5 55t33 44.5t48 29.5t56.5 11h456v-160h-406v-134h406v-165h-456q-29 0 -56.5 11t-48 29.5t-33 44.5t-12.5 55zM559 0h112l-44 -58q-9 -11 -14 -18.5t-5 -16.5t7 -14.5t21 -5.5h35v-77h-85q-55 0 -79.5 21t-24.5 52
q0 19 9.5 39t34.5 45z" />
    <glyph glyph-name="Ecaron.open" horiz-adv-x="728" 
d="M65 585v165h606v-165h-606zM65 140v179q0 29 12.5 55t33 44.5t48 29.5t56.5 11h456v-160h-406v-134h406v-165h-456q-29 0 -56.5 11t-48 29.5t-33 44.5t-12.5 55zM453 850q-13 -18 -34 -33.5t-54 -15.5t-55 16.5t-34 32.5l-101 145h137l53 -82l52 82h137z" />
    <glyph glyph-name="Gbreve.alt1" horiz-adv-x="849" 
d="M581 389q38 40 77.5 49t71 -2t52 -38t20.5 -60v-338h-173v205l-90 -98q-57 -63 -109.5 -91.5t-133.5 -28.5q-121 0 -179.5 67.5t-57.5 209.5l2 166q1 73 24 132.5t67.5 101t112.5 64t157 22.5h378v-165h-398q-75 0 -103 -29.5t-28 -97.5v-226q0 -33 13 -51.5t41 -18.5
q31 0 48 13.5t41 38.5zM299 980h98v-51q0 -16 9.5 -24.5t24.5 -8.5h60q15 0 24.5 8.5t9.5 24.5v51h96v-84q0 -36 -28.5 -59.5t-65.5 -23.5h-133q-40 0 -67.5 23.5t-27.5 59.5v84z" />
    <glyph glyph-name="Gdotaccent.alt1" horiz-adv-x="849" 
d="M581 389q38 40 77.5 49t71 -2t52 -38t20.5 -60v-338h-173v205l-90 -98q-57 -63 -109.5 -91.5t-133.5 -28.5q-121 0 -179.5 67.5t-57.5 209.5l2 166q1 73 24 132.5t67.5 101t112.5 64t157 22.5h378v-165h-398q-75 0 -103 -29.5t-28 -97.5v-226q0 -33 13 -51.5t41 -18.5
q31 0 48 13.5t41 38.5zM534 812h-139v128h139v-128z" />
    <glyph glyph-name="Gcommaaccent.alt1" horiz-adv-x="849" 
d="M581 389q38 40 77.5 49t71 -2t52 -38t20.5 -60v-338h-173v205l-90 -98q-57 -63 -109.5 -91.5t-133.5 -28.5q-121 0 -179.5 67.5t-57.5 209.5l2 166q1 73 24 132.5t67.5 101t112.5 64t157 22.5h378v-165h-398q-75 0 -103 -29.5t-28 -97.5v-226q0 -33 13 -51.5t41 -18.5
q31 0 48 13.5t41 38.5zM434 -188q16 48 21 70t5 53v25h152v-25q0 -31 -5 -53t-24 -70h-149z" />
    <glyph glyph-name="Hbar.connect" horiz-adv-x="885" 
d="M65 0v550h-58v110h58v90h200v-90h369q18 41 57 65.5t90 24.5h39v-90h58v-110h-58v-550h-200v291h-355v-291h-200zM265 466h355v84h-355v-84z" />
    <glyph glyph-name="Kcommaaccent.alt1" horiz-adv-x="864" 
d="M90 750h200v-474l325 474h229l-405 -585h389v-165h-738v750zM391 -188q16 48 21 70t5 53v25h152v-25q0 -31 -5 -53t-24 -70h-149z" />
    <glyph glyph-name="Lacute.alt1" horiz-adv-x="611" 
d="M255 290q0 -55 23 -82.5t77 -27.5h226v-180h-186q-182 0 -261 84t-79 234v432h200v-460zM87 823l65 188h155l-70 -188h-150z" />
    <glyph glyph-name="Lcommaaccent.alt1" horiz-adv-x="611" 
d="M255 290q0 -55 23 -82.5t77 -27.5h226v-180h-186q-182 0 -261 84t-79 234v432h200v-460zM295 -188q16 48 21 70t5 53v25h152v-25q0 -31 -5 -53t-24 -70h-149z" />
    <glyph glyph-name="Lcaron.alt1" horiz-adv-x="611" 
d="M255 290q0 -55 23 -82.5t77 -27.5h226v-180h-186q-182 0 -261 84t-79 234v432h200v-460zM336 483l42 267h130l-42 -267h-130z" />
    <glyph glyph-name="Ldot.alt1" horiz-adv-x="611" 
d="M255 290q0 -55 23 -82.5t77 -27.5h226v-180h-186q-182 0 -261 84t-79 234v432h200v-460zM541 412h-139v128h139v-128z" />
    <glyph glyph-name="Lslash.alt1" horiz-adv-x="601" 
d="M-38 350l93 36v364h200v-285l218 85v-110l-218 -85v-65q0 -55 23 -82.5t77 -27.5h226v-180h-186q-169 0 -249 73t-90 204l-94 -37v110z" />
    <glyph glyph-name="Ntilde.alt1" horiz-adv-x="871" 
d="M65 0v750h502q132 0 185.5 -61t53.5 -174v-515h-200v490q0 46 -15.5 65.5t-59.5 19.5h-266v-575h-200zM491 938l18 -13.5t15 -4.5q8 0 12 5.5t4 18.5v62h99v-76q0 -53 -31 -83.5t-79 -30.5q-34 0 -56.5 11.5t-55.5 36.5l-34 26q-10 8 -17 13t-15 5q-7 0 -12 -5.5
t-5 -18.5v-62h-99v78q0 54 32 83t78 29q34 0 56.5 -11.5t55.5 -36.5z" />
    <glyph glyph-name="Nacute.alt1" horiz-adv-x="871" 
d="M65 0v750h502q132 0 185.5 -61t53.5 -174v-515h-200v490q0 46 -15.5 65.5t-59.5 19.5h-266v-575h-200zM364 822l65 188h155l-70 -188h-150z" />
    <glyph glyph-name="Ncommaaccent.alt1" horiz-adv-x="871" 
d="M65 0v750h502q132 0 185.5 -61t53.5 -174v-515h-200v490q0 46 -15.5 65.5t-59.5 19.5h-266v-575h-200zM334 -188q16 48 21 70t5 53v25h152v-25q0 -31 -5 -53t-24 -70h-149z" />
    <glyph glyph-name="Ncaron.alt1" horiz-adv-x="871" 
d="M65 0v750h502q132 0 185.5 -61t53.5 -174v-515h-200v490q0 46 -15.5 65.5t-59.5 19.5h-266v-575h-200zM524 850q-13 -18 -34 -33.5t-54 -15.5t-55 16.5t-34 32.5l-101 145h137l53 -82l52 82h137z" />
    <glyph glyph-name="Ntilde.connect" horiz-adv-x="971" 
d="M65 0v550q0 51 17 91t44.5 66.5t65 40.5t77.5 14q96 0 150.5 -51.5t88.5 -135.5l163 -398q3 -7 6.5 -13.5t11.5 -6.5q10 0 13.5 5.5t3.5 15.5v411q0 71 45 116t116 45h39v-551q0 -53 -17 -93t-44.5 -66.5t-65 -39.5t-77.5 -13q-96 0 -149.5 50t-89.5 137l-163 398
q-3 7 -6.5 13.5t-11.5 6.5q-10 0 -13.5 -5.5t-3.5 -15.5v-571h-200zM600 938l18 -13.5t15 -4.5q8 0 12 5.5t4 18.5v62h99v-76q0 -53 -31 -83.5t-79 -30.5q-34 0 -56.5 11.5t-55.5 36.5l-34 26q-10 8 -17 13t-15 5q-7 0 -12 -5.5t-5 -18.5v-62h-99v78q0 54 32 83t78 29
q34 0 56.5 -11.5t55.5 -36.5z" />
    <glyph glyph-name="Nacute.connect" horiz-adv-x="971" 
d="M65 0v550q0 51 17 91t44.5 66.5t65 40.5t77.5 14q96 0 150.5 -51.5t88.5 -135.5l163 -398q3 -7 6.5 -13.5t11.5 -6.5q10 0 13.5 5.5t3.5 15.5v411q0 71 45 116t116 45h39v-551q0 -53 -17 -93t-44.5 -66.5t-65 -39.5t-77.5 -13q-96 0 -149.5 50t-89.5 137l-163 398
q-3 7 -6.5 13.5t-11.5 6.5q-10 0 -13.5 -5.5t-3.5 -15.5v-571h-200zM473 822l65 188h155l-70 -188h-150z" />
    <glyph glyph-name="Ncommaaccent.connect" horiz-adv-x="971" 
d="M65 0v550q0 51 17 91t44.5 66.5t65 40.5t77.5 14q96 0 150.5 -51.5t88.5 -135.5l163 -398q3 -7 6.5 -13.5t11.5 -6.5q10 0 13.5 5.5t3.5 15.5v411q0 71 45 116t116 45h39v-551q0 -53 -17 -93t-44.5 -66.5t-65 -39.5t-77.5 -13q-96 0 -149.5 50t-89.5 137l-163 398
q-3 7 -6.5 13.5t-11.5 6.5q-10 0 -13.5 -5.5t-3.5 -15.5v-571h-200zM314 -188q16 48 21 70t5 53v25h152v-25q0 -31 -5 -53t-24 -70h-149z" />
    <glyph glyph-name="Ncaron.connect" horiz-adv-x="971" 
d="M65 0v550q0 51 17 91t44.5 66.5t65 40.5t77.5 14q96 0 150.5 -51.5t88.5 -135.5l163 -398q3 -7 6.5 -13.5t11.5 -6.5q10 0 13.5 5.5t3.5 15.5v411q0 71 45 116t116 45h39v-551q0 -53 -17 -93t-44.5 -66.5t-65 -39.5t-77.5 -13q-96 0 -149.5 50t-89.5 137l-163 398
q-3 7 -6.5 13.5t-11.5 6.5q-10 0 -13.5 -5.5t-3.5 -15.5v-571h-200zM634 850q-13 -18 -34 -33.5t-54 -15.5t-55 16.5t-34 32.5l-101 145h137l53 -82l52 82h137z" />
    <glyph glyph-name="Racute.alt1" horiz-adv-x="553" 
d="M-160 585v165h415q145 0 214 -46.5t69 -166.5v-43q0 -87 -59 -137.5t-169 -50.5h-35l272 -306h-238l-192 212q-29 32 -44.5 58t-15.5 60q0 49 36 75.5t90 26.5h95q33 0 49 17.5t16 43.5v26q0 32 -18 49t-59 17h-426zM155 822l65 188h155l-70 -188h-150z" />
    <glyph glyph-name="Rcommaaccent.alt1" horiz-adv-x="553" 
d="M-160 585v165h415q145 0 214 -46.5t69 -166.5v-43q0 -87 -59 -137.5t-169 -50.5h-35l272 -306h-238l-192 212q-29 32 -44.5 58t-15.5 60q0 49 36 75.5t90 26.5h95q33 0 49 17.5t16 43.5v26q0 32 -18 49t-59 17h-426zM65 -188q16 48 21 70t5 53v25h152v-25q0 -31 -5 -53
t-24 -70h-149z" />
    <glyph glyph-name="Rcaron.alt1" horiz-adv-x="553" 
d="M-160 585v165h415q145 0 214 -46.5t69 -166.5v-43q0 -87 -59 -137.5t-169 -50.5h-35l272 -306h-238l-192 212q-29 32 -44.5 58t-15.5 60q0 49 36 75.5t90 26.5h95q33 0 49 17.5t16 43.5v26q0 32 -18 49t-59 17h-426zM315 850q-13 -18 -34 -33.5t-54 -15.5t-55 16.5
t-34 32.5l-101 145h137l53 -82l52 82h137z" />
    <glyph glyph-name="Racute.alt2" horiz-adv-x="758" 
d="M225 0h-190v374q0 28 18 45t43 17h373q41 0 56.5 13t15.5 60v5q0 44 -15.5 57.5t-56.5 13.5h-634v165h629q55 0 105 -9t86.5 -31t58.5 -59.5t22 -94.5v-47q0 -60 -19 -99.5t-53.5 -62.5t-84.5 -32.5t-110 -9.5h-11l277 -305h-234l-276 301v-301zM274 822l65 188h155
l-70 -188h-150z" />
    <glyph glyph-name="Rcommaaccent.alt2" horiz-adv-x="758" 
d="M225 0h-190v374q0 28 18 45t43 17h373q41 0 56.5 13t15.5 60v5q0 44 -15.5 57.5t-56.5 13.5h-634v165h629q55 0 105 -9t86.5 -31t58.5 -59.5t22 -94.5v-47q0 -60 -19 -99.5t-53.5 -62.5t-84.5 -32.5t-110 -9.5h-11l277 -305h-234l-276 301v-301zM245 -188q16 48 21 70
t5 53v25h152v-25q0 -31 -5 -53t-24 -70h-149z" />
    <glyph glyph-name="Rcaron.alt2" horiz-adv-x="758" 
d="M225 0h-190v374q0 28 18 45t43 17h373q41 0 56.5 13t15.5 60v5q0 44 -15.5 57.5t-56.5 13.5h-634v165h629q55 0 105 -9t86.5 -31t58.5 -59.5t22 -94.5v-47q0 -60 -19 -99.5t-53.5 -62.5t-84.5 -32.5t-110 -9.5h-11l277 -305h-234l-276 301v-301zM434 850
q-13 -18 -34 -33.5t-54 -15.5t-55 16.5t-34 32.5l-101 145h137l53 -82l52 82h137z" />
    <glyph glyph-name="Racute.alt3" horiz-adv-x="788" 
d="M255 0h-190v374q0 28 18 45t43 17h373q41 0 56.5 17t15.5 64v5q0 44 -15.5 59t-56.5 15h-434v154h429q55 0 105 -9t86.5 -31t58.5 -59.5t22 -94.5v-47q0 -60 -19 -99.5t-53.5 -62.5t-84.5 -32.5t-110 -9.5h-11l277 -305h-249l-261 285v-285zM302 822l65 188h155l-70 -188
h-150z" />
    <glyph glyph-name="Rcommaaccent.alt3" horiz-adv-x="788" 
d="M255 0h-190v374q0 28 18 45t43 17h373q41 0 56.5 17t15.5 64v5q0 44 -15.5 59t-56.5 15h-434v154h429q55 0 105 -9t86.5 -31t58.5 -59.5t22 -94.5v-47q0 -60 -19 -99.5t-53.5 -62.5t-84.5 -32.5t-110 -9.5h-11l277 -305h-249l-261 285v-285zM273 -188q16 48 21 70t5 53
v25h152v-25q0 -31 -5 -53t-24 -70h-149z" />
    <glyph glyph-name="Rcaron.alt3" horiz-adv-x="788" 
d="M255 0h-190v374q0 28 18 45t43 17h373q41 0 56.5 17t15.5 64v5q0 44 -15.5 59t-56.5 15h-434v154h429q55 0 105 -9t86.5 -31t58.5 -59.5t22 -94.5v-47q0 -60 -19 -99.5t-53.5 -62.5t-84.5 -32.5t-110 -9.5h-11l277 -305h-249l-261 285v-285zM463 850q-13 -18 -34 -33.5
t-54 -15.5t-55 16.5t-34 32.5l-101 145h137l53 -82l52 82h137z" />
    <glyph glyph-name="Sacute.alt1" horiz-adv-x="858" 
d="M433 162q-43 -90 -111 -126t-153 -36h-149v165h98q61 0 99 19.5t68 82.5l152 321q43 90 116 126t158 36h127v-165h-86q-61 0 -99 -19.5t-68 -82.5zM627 822l65 188h155l-70 -188h-150z" />
    <glyph glyph-name="Scedilla.alt1" horiz-adv-x="858" 
d="M433 162q-43 -90 -111 -126t-153 -36h-149v165h98q61 0 99 19.5t68 82.5l152 321q43 90 116 126t158 36h127v-165h-86q-61 0 -99 -19.5t-68 -82.5zM255 10l-68 -198h-155l73 198h150z" />
    <glyph glyph-name="Scommaaccent.alt1" horiz-adv-x="858" 
d="M433 162q-43 -90 -111 -126t-153 -36h-149v165h98q61 0 99 19.5t68 82.5l152 321q43 90 116 126t158 36h127v-165h-86q-61 0 -99 -19.5t-68 -82.5zM107 -188q16 48 21 70t5 53v25h152v-25q0 -31 -5 -53t-24 -70h-149z" />
    <glyph glyph-name="Scaron.alt1" horiz-adv-x="858" 
d="M433 162q-43 -90 -111 -126t-153 -36h-149v165h98q61 0 99 19.5t68 82.5l152 321q43 90 116 126t158 36h127v-165h-86q-61 0 -99 -19.5t-68 -82.5zM788 850q-13 -18 -34 -33.5t-54 -15.5t-55 16.5t-34 32.5l-101 145h137l53 -82l52 82h137z" />
    <glyph glyph-name="Sacute.long1" horiz-adv-x="602" 
d="M435 279l-181 53q-104 31 -154 90.5t-50 133.5q0 90 64.5 142t197.5 52h375v-165h-393q-28 0 -39.5 -11t-11.5 -26q0 -18 14.5 -28.5t45.5 -20.5l176 -53q117 -35 175 -88t58 -134q0 -99 -71 -161.5t-217 -62.5h-354v165h374q48 0 63 14t15 36q0 24 -17 36t-70 28z
M299 822l65 188h155l-70 -188h-150z" />
    <glyph glyph-name="Scedilla.long1" horiz-adv-x="602" 
d="M435 279l-181 53q-104 31 -154 90.5t-50 133.5q0 90 64.5 142t197.5 52h375v-165h-393q-28 0 -39.5 -11t-11.5 -26q0 -18 14.5 -28.5t45.5 -20.5l176 -53q117 -35 175 -88t58 -134q0 -99 -71 -161.5t-217 -62.5h-354v165h374q48 0 63 14t15 36q0 24 -17 36t-70 28z
M447 10l-68 -198h-155l73 198h150z" />
    <glyph glyph-name="Scommaaccent.long1" horiz-adv-x="602" 
d="M435 279l-181 53q-104 31 -154 90.5t-50 133.5q0 90 64.5 142t197.5 52h375v-165h-393q-28 0 -39.5 -11t-11.5 -26q0 -18 14.5 -28.5t45.5 -20.5l176 -53q117 -35 175 -88t58 -134q0 -99 -71 -161.5t-217 -62.5h-354v165h374q48 0 63 14t15 36q0 24 -17 36t-70 28z
M270 -188q16 48 21 70t5 53v25h152v-25q0 -31 -5 -53t-24 -70h-149z" />
    <glyph glyph-name="Scaron.long1" horiz-adv-x="602" 
d="M435 279l-181 53q-104 31 -154 90.5t-50 133.5q0 90 64.5 142t197.5 52h375v-165h-393q-28 0 -39.5 -11t-11.5 -26q0 -18 14.5 -28.5t45.5 -20.5l176 -53q117 -35 175 -88t58 -134q0 -99 -71 -161.5t-217 -62.5h-354v165h374q48 0 63 14t15 36q0 24 -17 36t-70 28z
M460 850q-13 -18 -34 -33.5t-54 -15.5t-55 16.5t-34 32.5l-101 145h137l53 -82l52 82h137z" />
    <glyph glyph-name="Sacute.long2" horiz-adv-x="742" 
d="M425 279l-181 53q-104 31 -154 83.5t-50 130.5q0 94 62 149t190 55h385v-165h-378q-37 0 -51.5 -11.5t-14.5 -25.5q0 -18 14.5 -28.5t45.5 -20.5l176 -53q117 -35 175 -84t58 -138q0 -99 -71 -161.5t-217 -62.5h-554v165h574q48 0 63 15t15 35q0 24 -17 36t-70 28z
M349 822l65 188h155l-70 -188h-150z" />
    <glyph glyph-name="Scedilla.long2" horiz-adv-x="742" 
d="M425 279l-181 53q-104 31 -154 83.5t-50 130.5q0 94 62 149t190 55h385v-165h-378q-37 0 -51.5 -11.5t-14.5 -25.5q0 -18 14.5 -28.5t45.5 -20.5l176 -53q117 -35 175 -84t58 -138q0 -99 -71 -161.5t-217 -62.5h-554v165h574q48 0 63 15t15 35q0 24 -17 36t-70 28z
M447 10l-68 -198h-155l73 198h150z" />
    <glyph glyph-name="Scommaaccent.long2" horiz-adv-x="742" 
d="M425 279l-181 53q-104 31 -154 83.5t-50 130.5q0 94 62 149t190 55h385v-165h-378q-37 0 -51.5 -11.5t-14.5 -25.5q0 -18 14.5 -28.5t45.5 -20.5l176 -53q117 -35 175 -84t58 -138q0 -99 -71 -161.5t-217 -62.5h-554v165h574q48 0 63 15t15 35q0 24 -17 36t-70 28z
M270 -188q16 48 21 70t5 53v25h152v-25q0 -31 -5 -53t-24 -70h-149z" />
    <glyph glyph-name="Scaron.long2" horiz-adv-x="742" 
d="M425 279l-181 53q-104 31 -154 83.5t-50 130.5q0 94 62 149t190 55h385v-165h-378q-37 0 -51.5 -11.5t-14.5 -25.5q0 -18 14.5 -28.5t45.5 -20.5l176 -53q117 -35 175 -84t58 -138q0 -99 -71 -161.5t-217 -62.5h-554v165h574q48 0 63 15t15 35q0 24 -17 36t-70 28z
M510 850q-13 -18 -34 -33.5t-54 -15.5t-55 16.5t-34 32.5l-101 145h137l53 -82l52 82h137z" />
    <glyph glyph-name="Ugrave.alt1" horiz-adv-x="871" 
d="M606 175v575h200v-750h-502q-132 0 -185.5 61t-53.5 174v515h200v-490q0 -46 15.5 -65.5t59.5 -19.5h266zM512 822h-150l-70 188h155z" />
    <glyph glyph-name="Uacute.alt1" horiz-adv-x="871" 
d="M606 175v575h200v-750h-502q-132 0 -185.5 61t-53.5 174v515h200v-490q0 -46 15.5 -65.5t59.5 -19.5h266zM364 822l65 188h155l-70 -188h-150z" />
    <glyph glyph-name="Ucircumflex.alt1" horiz-adv-x="871" 
d="M606 175v575h200v-750h-502q-132 0 -185.5 61t-53.5 174v515h200v-490q0 -46 15.5 -65.5t59.5 -19.5h266zM488 822l-52 82l-53 -82h-137l101 145q12 16 34 32.5t55 16.5t54 -15.5t34 -33.5l101 -145h-137z" />
    <glyph glyph-name="Udieresis.alt1" horiz-adv-x="871" 
d="M606 175v575h200v-750h-502q-132 0 -185.5 61t-53.5 174v515h200v-490q0 -46 15.5 -65.5t59.5 -19.5h266zM605 842h-134v128h134v-128zM400 842h-134v128h134v-128z" />
    <glyph glyph-name="Utilde.alt1" horiz-adv-x="871" 
d="M606 175v575h200v-750h-502q-132 0 -185.5 61t-53.5 174v515h200v-490q0 -46 15.5 -65.5t59.5 -19.5h266zM491 938l18 -13.5t15 -4.5q8 0 12 5.5t4 18.5v62h99v-76q0 -53 -31 -83.5t-79 -30.5q-34 0 -56.5 11.5t-55.5 36.5l-34 26q-10 8 -17 13t-15 5q-7 0 -12 -5.5
t-5 -18.5v-62h-99v78q0 54 32 83t78 29q34 0 56.5 -11.5t55.5 -36.5z" />
    <glyph glyph-name="Umacron.alt1" horiz-adv-x="871" 
d="M606 175v575h200v-750h-502q-132 0 -185.5 61t-53.5 174v515h200v-490q0 -46 15.5 -65.5t59.5 -19.5h266zM566 847h-260v98h260v-98z" />
    <glyph glyph-name="Ubreve.alt1" horiz-adv-x="871" 
d="M606 175v575h200v-750h-502q-132 0 -185.5 61t-53.5 174v515h200v-490q0 -46 15.5 -65.5t59.5 -19.5h266zM269 980h98v-51q0 -16 9.5 -24.5t24.5 -8.5h60q15 0 24.5 8.5t9.5 24.5v51h96v-84q0 -36 -28.5 -59.5t-65.5 -23.5h-133q-40 0 -67.5 23.5t-27.5 59.5v84z" />
    <glyph glyph-name="Uring.alt1" horiz-adv-x="871" 
d="M606 175v575h200v-750h-502q-132 0 -185.5 61t-53.5 174v515h200v-490q0 -46 15.5 -65.5t59.5 -19.5h266zM328 904v24q0 39 25.5 63t62.5 24h39q37 0 62.5 -24t25.5 -63v-24q0 -39 -25.5 -63t-62.5 -24h-39q-37 0 -62.5 24t-25.5 63zM395 926v-20q0 -16 7.5 -23.5
t20.5 -7.5h25q13 0 21 7.5t8 23.5v20q0 16 -8 23.5t-21 7.5h-25q-13 0 -20.5 -7.5t-7.5 -23.5z" />
    <glyph glyph-name="Uhungarumlaut.alt1" horiz-adv-x="871" 
d="M606 175v575h200v-750h-502q-132 0 -185.5 61t-53.5 174v515h200v-490q0 -46 15.5 -65.5t59.5 -19.5h266zM269 822l65 188h155l-70 -188h-150zM469 822l65 188h155l-70 -188h-150z" />
    <glyph glyph-name="Uogonek.alt1" horiz-adv-x="871" 
d="M606 175v575h200v-750h-502q-132 0 -185.5 61t-53.5 174v515h200v-490q0 -46 15.5 -65.5t59.5 -19.5h266zM693 0h112l-44 -58q-9 -11 -14 -18.5t-5 -16.5t7 -14.5t21 -5.5h35v-77h-85q-55 0 -79.5 21t-24.5 52q0 19 9.5 39t34.5 45z" />
    <glyph glyph-name="Ugrave.connect" horiz-adv-x="850" 
d="M590 589q0 71 45 116t116 45h39v-479q0 -67 -15.5 -120t-51 -89.5t-95.5 -55.5t-148 -19h-108q-168 0 -240 75t-72 209v479h200v-498q0 -54 24.5 -79.5t84.5 -25.5h114q56 0 81.5 25.5t25.5 79.5v337zM512 822h-150l-70 188h155z" />
    <glyph glyph-name="Uacute.connect" horiz-adv-x="850" 
d="M590 589q0 71 45 116t116 45h39v-479q0 -67 -15.5 -120t-51 -89.5t-95.5 -55.5t-148 -19h-108q-168 0 -240 75t-72 209v479h200v-498q0 -54 24.5 -79.5t84.5 -25.5h114q56 0 81.5 25.5t25.5 79.5v337zM363 822l65 188h155l-70 -188h-150z" />
    <glyph glyph-name="Ucircumflex.connect" horiz-adv-x="850" 
d="M590 589q0 71 45 116t116 45h39v-479q0 -67 -15.5 -120t-51 -89.5t-95.5 -55.5t-148 -19h-108q-168 0 -240 75t-72 209v479h200v-498q0 -54 24.5 -79.5t84.5 -25.5h114q56 0 81.5 25.5t25.5 79.5v337zM487 822l-52 82l-53 -82h-137l101 145q12 16 34 32.5t55 16.5
t54 -15.5t34 -33.5l101 -145h-137z" />
    <glyph glyph-name="Udieresis.connect" horiz-adv-x="850" 
d="M590 589q0 71 45 116t116 45h39v-479q0 -67 -15.5 -120t-51 -89.5t-95.5 -55.5t-148 -19h-108q-168 0 -240 75t-72 209v479h200v-498q0 -54 24.5 -79.5t84.5 -25.5h114q56 0 81.5 25.5t25.5 79.5v337zM604 842h-134v128h134v-128zM399 842h-134v128h134v-128z" />
    <glyph glyph-name="Utilde.connect" horiz-adv-x="850" 
d="M590 589q0 71 45 116t116 45h39v-479q0 -67 -15.5 -120t-51 -89.5t-95.5 -55.5t-148 -19h-108q-168 0 -240 75t-72 209v479h200v-498q0 -54 24.5 -79.5t84.5 -25.5h114q56 0 81.5 25.5t25.5 79.5v337zM490 938l18 -13.5t15 -4.5q8 0 12 5.5t4 18.5v62h99v-76
q0 -53 -31 -83.5t-79 -30.5q-34 0 -56.5 11.5t-55.5 36.5l-34 26q-10 8 -17 13t-15 5q-7 0 -12 -5.5t-5 -18.5v-62h-99v78q0 54 32 83t78 29q34 0 56.5 -11.5t55.5 -36.5z" />
    <glyph glyph-name="Umacron.connect" horiz-adv-x="850" 
d="M590 589q0 71 45 116t116 45h39v-479q0 -67 -15.5 -120t-51 -89.5t-95.5 -55.5t-148 -19h-108q-168 0 -240 75t-72 209v479h200v-498q0 -54 24.5 -79.5t84.5 -25.5h114q56 0 81.5 25.5t25.5 79.5v337zM565 847h-260v98h260v-98z" />
    <glyph glyph-name="Ubreve.connect" horiz-adv-x="850" 
d="M590 589q0 71 45 116t116 45h39v-479q0 -67 -15.5 -120t-51 -89.5t-95.5 -55.5t-148 -19h-108q-168 0 -240 75t-72 209v479h200v-498q0 -54 24.5 -79.5t84.5 -25.5h114q56 0 81.5 25.5t25.5 79.5v337zM269 980h98v-51q0 -16 9.5 -24.5t24.5 -8.5h60q15 0 24.5 8.5
t9.5 24.5v51h96v-84q0 -36 -28.5 -59.5t-65.5 -23.5h-133q-40 0 -67.5 23.5t-27.5 59.5v84z" />
    <glyph glyph-name="Uring.connect" horiz-adv-x="850" 
d="M590 589q0 71 45 116t116 45h39v-479q0 -67 -15.5 -120t-51 -89.5t-95.5 -55.5t-148 -19h-108q-168 0 -240 75t-72 209v479h200v-498q0 -54 24.5 -79.5t84.5 -25.5h114q56 0 81.5 25.5t25.5 79.5v337zM328 904v24q0 39 25.5 63t62.5 24h39q37 0 62.5 -24t25.5 -63v-24
q0 -39 -25.5 -63t-62.5 -24h-39q-37 0 -62.5 24t-25.5 63zM395 926v-20q0 -16 7.5 -23.5t20.5 -7.5h25q13 0 21 7.5t8 23.5v20q0 16 -8 23.5t-21 7.5h-25q-13 0 -20.5 -7.5t-7.5 -23.5z" />
    <glyph glyph-name="Uhungarumlaut.connect" horiz-adv-x="850" 
d="M590 589q0 71 45 116t116 45h39v-479q0 -67 -15.5 -120t-51 -89.5t-95.5 -55.5t-148 -19h-108q-168 0 -240 75t-72 209v479h200v-498q0 -54 24.5 -79.5t84.5 -25.5h114q56 0 81.5 25.5t25.5 79.5v337zM268 822l65 188h155l-70 -188h-150zM468 822l65 188h155l-70 -188
h-150z" />
    <glyph glyph-name="Uogonek.connect" horiz-adv-x="850" 
d="M590 589q0 71 45 116t116 45h39v-479q0 -67 -15.5 -120t-51 -89.5t-95.5 -55.5t-148 -19h-108q-168 0 -240 75t-72 209v479h200v-498q0 -54 24.5 -79.5t84.5 -25.5h114q56 0 81.5 25.5t25.5 79.5v337zM393 0h112l-44 -58q-9 -11 -14 -18.5t-5 -16.5t7 -14.5t21 -5.5h35
v-77h-85q-55 0 -79.5 21t-24.5 52q0 19 9.5 39t34.5 45z" />
    <glyph glyph-name="Wcircumflex.alt1" horiz-adv-x="1354" 
d="M1344 750l-317 -611q-39 -75 -89 -107t-118 -32h-161v537l-207 -398q-40 -76 -89 -107.5t-117 -31.5h-156v750h195v-558l280 558h284v-560l280 560h215zM749 822l-52 82l-53 -82h-137l101 145q12 16 34 32.5t55 16.5t54 -15.5t34 -33.5l101 -145h-137z" />
    <glyph glyph-name="Wcircumflex.alt2" horiz-adv-x="1254" 
d="M727 750v-575h262v575h200v-750h-885q-132 0 -185.5 61t-53.5 174v515h200v-490q0 -46 15.5 -65.5t59.5 -19.5h187v575h200zM679 822l-52 82l-53 -82h-137l101 145q12 16 34 32.5t55 16.5t54 -15.5t34 -33.5l101 -145h-137z" />
    <glyph glyph-name="Yacute.alt1" horiz-adv-x="868" 
d="M38 0v165h274l-302 585h224l209 -434l195 434h220l-279 -569q-48 -97 -114.5 -139t-186.5 -42h-240zM362 822l65 188h155l-70 -188h-150z" />
    <glyph glyph-name="Ycircumflex.alt1" horiz-adv-x="868" 
d="M38 0v165h274l-302 585h224l209 -434l195 434h220l-279 -569q-48 -97 -114.5 -139t-186.5 -42h-240zM486 822l-52 82l-53 -82h-137l101 145q12 16 34 32.5t55 16.5t54 -15.5t34 -33.5l101 -145h-137z" />
    <glyph glyph-name="Ydieresis.alt1" horiz-adv-x="868" 
d="M38 0v165h274l-302 585h224l209 -434l195 434h220l-279 -569q-48 -97 -114.5 -139t-186.5 -42h-240zM603 842h-134v128h134v-128zM398 842h-134v128h134v-128z" />
    <glyph glyph-name="Yacute.alt2" horiz-adv-x="829" 
d="M38 0v165h355l-383 585h233l300 -479q1 6 1 12v13v454h195v-412q0 -75 -18.5 -138t-60.5 -107t-111.5 -68.5t-171.5 -24.5h-339zM332 822l65 188h155l-70 -188h-150z" />
    <glyph glyph-name="Ycircumflex.alt2" horiz-adv-x="829" 
d="M38 0v165h355l-383 585h233l300 -479q1 6 1 12v13v454h195v-412q0 -75 -18.5 -138t-60.5 -107t-111.5 -68.5t-171.5 -24.5h-339zM456 822l-52 82l-53 -82h-137l101 145q12 16 34 32.5t55 16.5t54 -15.5t34 -33.5l101 -145h-137z" />
    <glyph glyph-name="Ydieresis.alt2" horiz-adv-x="829" 
d="M38 0v165h355l-383 585h233l300 -479q1 6 1 12v13v454h195v-412q0 -75 -18.5 -138t-60.5 -107t-111.5 -68.5t-171.5 -24.5h-339zM573 842h-134v128h134v-128zM368 842h-134v128h134v-128z" />
    </font>
</defs>
</svg>
